<svg xmlns="http://www.w3.org/2000/svg" width="80" height="80" viewBox="0 0 80 80">
  <g fill="none" fill-rule="evenodd">
    <rect width="80" height="80"/>
    <g fill="#2196F3" transform="translate(13 17)">
      <path d="M57,18.3333333 L57,15 C57,14.74 56.9396471,14.4866667 56.8222941,14.2533333 L50.1164118,0.92 C49.8314118,0.356666667 49.2513529,0 48.6176471,0 L8.38235294,0 C7.74864706,0 7.16523529,0.356666667 6.88358824,0.92 L0.177705882,14.2533333 C0.0603529412,14.4833333 0,14.74 0,15 L0,18.3333333 C0,21.0533333 1.31770588,23.4733333 3.35294118,24.9966667 L3.35294118,46.6666667 L1.67647059,46.6666667 C0.751058824,46.6666667 3.72251249e-16,47.4133333 3.72251249e-16,48.3333333 C3.72251249e-16,49.2533333 0.751058824,50 1.67647059,50 L55.3235294,50 C56.2489412,50 57,49.2533333 57,48.3333333 C57,47.4133333 56.2489412,46.6666667 55.3235294,46.6666667 L53.6470588,46.6666667 L53.6470588,24.9966667 C55.6822941,23.4733333 57,21.0566667 57,18.3333333 L57,18.3333333 Z M35.2058824,23.3333333 C32.433,23.3333333 30.1764706,21.09 30.1764706,18.3333333 L30.1764706,16.6666667 L40.2352941,16.6666667 L40.2352941,18.3333333 C40.2352941,21.09 37.9787647,23.3333333 35.2058824,23.3333333 L35.2058824,23.3333333 Z M3.35294118,18.3333333 L3.35294118,16.6666667 L13.4117647,16.6666667 L13.4117647,18.3333333 C13.4117647,21.09 11.1552353,23.3333333 8.38235294,23.3333333 C5.60947059,23.3333333 3.35294118,21.09 3.35294118,18.3333333 L3.35294118,18.3333333 Z M26.8235294,3.33333333 L26.8235294,13.3333333 L17.2341176,13.3333333 L19.7488235,3.33333333 L26.8235294,3.33333333 L26.8235294,3.33333333 Z M37.2511765,3.33333333 L39.7658824,13.3333333 L30.1764706,13.3333333 L30.1764706,3.33333333 L37.2511765,3.33333333 L37.2511765,3.33333333 Z M16.7647059,16.6666667 L26.8235294,16.6666667 L26.8235294,18.3333333 C26.8235294,21.09 24.567,23.3333333 21.7941176,23.3333333 C19.0212353,23.3333333 16.7647059,21.09 16.7647059,18.3333333 L16.7647059,16.6666667 L16.7647059,16.6666667 Z M43.5882353,16.6666667 L53.6470588,16.6666667 L53.6470588,18.3333333 C53.6470588,21.09 51.3905294,23.3333333 48.6176471,23.3333333 C45.8447647,23.3333333 43.5882353,21.09 43.5882353,18.3333333 L43.5882353,16.6666667 L43.5882353,16.6666667 Z M52.611,13.3333333 L43.2194118,13.3333333 L40.7047059,3.33333333 L47.5815882,3.33333333 L52.611,13.3333333 L52.611,13.3333333 Z M9.41841176,3.33333333 L16.2952941,3.33333333 L13.7805882,13.3333333 L4.389,13.3333333 L9.41841176,3.33333333 L9.41841176,3.33333333 Z M6.70588235,26.5 C7.24905882,26.61 7.809,26.6666667 8.38235294,26.6666667 C11.1217059,26.6666667 13.5592941,25.3533333 15.0882353,23.3266667 C16.6171765,25.3533333 19.0547647,26.6666667 21.7941176,26.6666667 C24.5334706,26.6666667 26.9710588,25.3533333 28.5,23.3266667 C29.7104118,24.9266667 31.4841176,26.0833333 33.5294118,26.4966667 L33.5294118,46.6633333 L6.70588235,46.6633333 L6.70588235,26.4966667 L6.70588235,26.5 Z M50.2941176,46.6666667 L36.8823529,46.6666667 L36.8823529,26.5 C38.9276471,26.0866667 40.7013529,24.93 41.9117647,23.33 C43.4407059,25.3566667 45.8782941,26.67 48.6176471,26.67 C49.191,26.67 49.7509412,26.6133333 50.2941176,26.5033333 L50.2941176,46.67 L50.2941176,46.6666667 Z"/>
      <path d="M43.5882353 35C43.5882353 35.92 42.8371765 36.6666667 41.9117647 36.6666667 40.9863529 36.6666667 40.2352941 35.92 40.2352941 35 40.2352941 34.08 40.9863529 33.3333333 41.9117647 33.3333333 42.8371765 33.3333333 43.5882353 34.08 43.5882353 35L43.5882353 35zM11.7352941 36.6666667C11.3061176 36.6666667 10.8769412 36.5033333 10.5483529 36.18 9.89452941 35.53 9.89452941 34.4733333 10.5483529 33.8233333L13.9012941 30.49C14.5551176 29.84 15.618 29.84 16.2718235 30.49 16.9256471 31.14 16.9256471 32.1966667 16.2718235 32.8466667L12.9188824 36.18C12.5902941 36.5066667 12.1611176 36.6666667 11.7319412 36.6666667L11.7352941 36.6666667zM15.0882353 43.3333333C14.6590588 43.3333333 14.2298824 43.17 13.9012941 42.8466667 13.2474706 42.1966667 13.2474706 41.14 13.9012941 40.49L23.9601176 30.49C24.6139412 29.84 25.6768235 29.84 26.3306471 30.49 26.9844706 31.14 26.9844706 32.1966667 26.3306471 32.8466667L16.2718235 42.8466667C15.9432353 43.1733333 15.5140588 43.3333333 15.0848824 43.3333333L15.0882353 43.3333333zM25.1470588 43.3333333C24.7178824 43.3333333 24.2887059 43.17 23.9601176 42.8466667 23.3062941 42.1966667 23.3062941 41.14 23.9601176 40.49L27.3130588 37.1566667C27.9668824 36.5066667 29.0297647 36.5066667 29.6835882 37.1566667 30.3374118 37.8066667 30.3374118 38.8633333 29.6835882 39.5133333L26.3306471 42.8466667C26.0020588 43.1733333 25.5728824 43.3333333 25.1437059 43.3333333L25.1470588 43.3333333z"/>
    </g>
  </g>
</svg>
