<svg xmlns="http://www.w3.org/2000/svg" width="63" height="67" viewBox="0 0 63 67">
  <g fill="none" fill-rule="evenodd" transform="translate(-10 -6)">
    <rect width="80" height="80"/>
    <g fill="#2196F3" transform="translate(10 6)">
      <polygon points="46.421 20.333 49.737 20.333 49.737 23.667 46.421 23.667"/>
      <polygon points="46.421 27 49.737 27 49.737 30.333 46.421 30.333"/>
      <polygon points="46.421 33.667 49.737 33.667 49.737 37 46.421 37"/>
      <polygon points="46.421 40.333 49.737 40.333 49.737 43.667 46.421 43.667"/>
      <polygon points="46.421 53.667 49.737 53.667 49.737 57 46.421 57"/>
      <polygon points="46.421 47 49.737 47 49.737 50.333 46.421 50.333"/>
      <polygon points="19.895 20.333 23.211 20.333 23.211 23.667 19.895 23.667"/>
      <polygon points="19.895 27 23.211 27 23.211 30.333 19.895 30.333"/>
      <polygon points="19.895 33.667 23.211 33.667 23.211 37 19.895 37"/>
      <polygon points="19.895 40.333 23.211 40.333 23.211 43.667 19.895 43.667"/>
      <polygon points="19.895 53.667 23.211 53.667 23.211 57 19.895 57"/>
      <polygon points="19.895 47 23.211 47 23.211 50.333 19.895 50.333"/>
      <polygon points="13.263 20.333 16.579 20.333 16.579 23.667 13.263 23.667"/>
      <polygon points="13.263 27 16.579 27 16.579 30.333 13.263 30.333"/>
      <polygon points="13.263 33.667 16.579 33.667 16.579 37 13.263 37"/>
      <polygon points="13.263 40.333 16.579 40.333 16.579 43.667 13.263 43.667"/>
      <polygon points="13.263 53.667 16.579 53.667 16.579 57 13.263 57"/>
      <polygon points="13.263 47 16.579 47 16.579 50.333 13.263 50.333"/>
      <polygon points="26.526 20.333 29.842 20.333 29.842 23.667 26.526 23.667"/>
      <polygon points="26.526 27 29.842 27 29.842 30.333 26.526 30.333"/>
      <polygon points="26.526 33.667 29.842 33.667 29.842 37 26.526 37"/>
      <polygon points="26.526 40.333 29.842 40.333 29.842 43.667 26.526 43.667"/>
      <polygon points="26.526 53.667 29.842 53.667 29.842 57 26.526 57"/>
      <polygon points="26.526 47 29.842 47 29.842 50.333 26.526 50.333"/>
      <path d="M61.3421053,63.6666667 L59.6842105,63.6666667 L59.6842105,18.6666667 C59.6842105,16.1233333 57.8041579,13.5033333 55.4035263,12.6966667 L39.7894737,7.46333333 L39.7894737,1.99666667 C39.7894737,1.47 39.5407895,0.973333333 39.1196842,0.66 C38.6985789,0.346666667 38.1547895,0.25 37.6541053,0.4 L7.67273684,9.44333333 C5.229,10.18 3.31578947,12.7666667 3.31578947,15.33 L3.31578947,63.6633333 L1.65789474,63.6633333 C0.742736842,63.6633333 0,64.41 0,65.33 C0,66.25 0.742736842,66.9966667 1.65789474,66.9966667 L61.3421053,66.9966667 C62.2572632,66.9966667 63,66.25 63,65.33 C63,64.41 62.2572632,63.6633333 61.3421053,63.6633333 L61.3421053,63.6666667 Z M54.3557368,15.86 C55.4101579,16.2133333 56.3684211,17.55 56.3684211,18.6666667 L56.3684211,63.6666667 L39.7894737,63.6666667 L39.7894737,10.98 L54.3557368,15.86 L54.3557368,15.86 Z M6.63157895,15.3333333 C6.63157895,14.2366667 7.58321053,12.9533333 8.62768421,12.64 L36.4736842,4.24 L36.4736842,63.6666667 L6.63157895,63.6666667 L6.63157895,15.3333333 L6.63157895,15.3333333 Z"/>
    </g>
  </g>
</svg>
