<svg xmlns="http://www.w3.org/2000/svg" width="80" height="80" viewBox="0 0 80 80">
  <g fill="none" fill-rule="evenodd">
    <rect width="80" height="80"/>
    <path fill="#2196F3" d="M66.56785,33.9722601 L36.9907,1.79192692 C36.0728,0.792681072 34.8333,0.241941613 33.5,0.241941613 L33.5,0.241941613 C32.17005,0.241941613 30.93055,0.792681072 30.0093,1.79192692 L0.43215,33.9722601 C-0.1876,34.6483175 -0.134,35.6904353 0.5494,36.3005359 C0.871,36.5874481 1.273,36.7259574 1.67165,36.7259574 C2.12725,36.7259574 2.58285,36.5445761 2.9145,36.1818136 L10.04665,28.4219936 L10.04665,54.8640833 C10.04665,57.5913979 12.3012,59.8108449 15.07165,59.8108449 L51.92165,59.8108449 C54.6921,59.8108449 56.94665,57.5913979 56.94665,54.8640833 L56.94665,28.4219936 L64.0788,36.1818136 C64.69855,36.857871 65.75715,36.9106365 66.4439,36.2972381 C67.13065,35.6838396 67.18425,34.6450197 66.56115,33.9689623 L66.56785,33.9722601 Z M40.2,56.5130038 L26.8,56.5130038 L26.8,41.672719 C26.8,40.7625149 27.5504,40.0237985 28.475,40.0237985 L38.525,40.0237985 C39.4496,40.0237985 40.2,40.7625149 40.2,41.672719 L40.2,56.5130038 L40.2,56.5130038 Z M53.6,54.8640833 C53.6,55.7742874 52.8496,56.5130038 51.925,56.5130038 L43.55,56.5130038 L43.55,41.672719 C43.55,38.9454044 41.29545,36.7259574 38.525,36.7259574 L28.475,36.7259574 C25.70455,36.7259574 23.45,38.9454044 23.45,41.672719 L23.45,56.5130038 L15.075,56.5130038 C14.1504,56.5130038 13.4,55.7742874 13.4,54.8640833 L13.4,24.7778792 L32.495,4.00148044 C32.7697,3.7013769 33.12815,3.53648484 33.5,3.53648484 C33.87185,3.53648484 34.2303,3.7013769 34.505,4.00148044 L53.6,24.7778792 L53.6,54.8640833 L53.6,54.8640833 Z" transform="translate(7 11)"/>
  </g>
</svg>
