<?xml version="1.0" encoding="UTF-8" standalone="no"?>
<svg width="80px" height="80px" viewBox="0 0 80 80" version="1.1" xmlns="http://www.w3.org/2000/svg" xmlns:xlink="http://www.w3.org/1999/xlink">
    <!-- Generator: Sketch 39.1 (31720) - http://www.bohemiancoding.com/sketch -->
    <title>area-enterprise</title>
    <desc>Created with Sketch.</desc>
    <defs></defs>
    <g id="Elements" stroke="none" stroke-width="1" fill="none" fill-rule="evenodd">
        <g id="area-enterprise">
            <g id="Icon">
                <rect id="BG" x="0" y="0" width="80" height="80"></rect>
                <g id="icon_apartment" transform="translate(10.000000, 6.000000)" fill="#2196F3">
                    <polygon id="Shape" points="46.4210526 20.3333333 49.7368421 20.3333333 49.7368421 23.6666667 46.4210526 23.6666667"></polygon>
                    <polygon id="Shape" points="46.4210526 27 49.7368421 27 49.7368421 30.3333333 46.4210526 30.3333333"></polygon>
                    <polygon id="Shape" points="46.4210526 33.6666667 49.7368421 33.6666667 49.7368421 37 46.4210526 37"></polygon>
                    <polygon id="Shape" points="46.4210526 40.3333333 49.7368421 40.3333333 49.7368421 43.6666667 46.4210526 43.6666667"></polygon>
                    <polygon id="Shape" points="46.4210526 53.6666667 49.7368421 53.6666667 49.7368421 57 46.4210526 57"></polygon>
                    <polygon id="Shape" points="46.4210526 47 49.7368421 47 49.7368421 50.3333333 46.4210526 50.3333333"></polygon>
                    <polygon id="Shape" points="19.8947368 20.3333333 23.2105263 20.3333333 23.2105263 23.6666667 19.8947368 23.6666667"></polygon>
                    <polygon id="Shape" points="19.8947368 27 23.2105263 27 23.2105263 30.3333333 19.8947368 30.3333333"></polygon>
                    <polygon id="Shape" points="19.8947368 33.6666667 23.2105263 33.6666667 23.2105263 37 19.8947368 37"></polygon>
                    <polygon id="Shape" points="19.8947368 40.3333333 23.2105263 40.3333333 23.2105263 43.6666667 19.8947368 43.6666667"></polygon>
                    <polygon id="Shape" points="19.8947368 53.6666667 23.2105263 53.6666667 23.2105263 57 19.8947368 57"></polygon>
                    <polygon id="Shape" points="19.8947368 47 23.2105263 47 23.2105263 50.3333333 19.8947368 50.3333333"></polygon>
                    <polygon id="Shape" points="13.2631579 20.3333333 16.5789474 20.3333333 16.5789474 23.6666667 13.2631579 23.6666667"></polygon>
                    <polygon id="Shape" points="13.2631579 27 16.5789474 27 16.5789474 30.3333333 13.2631579 30.3333333"></polygon>
                    <polygon id="Shape" points="13.2631579 33.6666667 16.5789474 33.6666667 16.5789474 37 13.2631579 37"></polygon>
                    <polygon id="Shape" points="13.2631579 40.3333333 16.5789474 40.3333333 16.5789474 43.6666667 13.2631579 43.6666667"></polygon>
                    <polygon id="Shape" points="13.2631579 53.6666667 16.5789474 53.6666667 16.5789474 57 13.2631579 57"></polygon>
                    <polygon id="Shape" points="13.2631579 47 16.5789474 47 16.5789474 50.3333333 13.2631579 50.3333333"></polygon>
                    <polygon id="Shape" points="26.5263158 20.3333333 29.8421053 20.3333333 29.8421053 23.6666667 26.5263158 23.6666667"></polygon>
                    <polygon id="Shape" points="26.5263158 27 29.8421053 27 29.8421053 30.3333333 26.5263158 30.3333333"></polygon>
                    <polygon id="Shape" points="26.5263158 33.6666667 29.8421053 33.6666667 29.8421053 37 26.5263158 37"></polygon>
                    <polygon id="Shape" points="26.5263158 40.3333333 29.8421053 40.3333333 29.8421053 43.6666667 26.5263158 43.6666667"></polygon>
                    <polygon id="Shape" points="26.5263158 53.6666667 29.8421053 53.6666667 29.8421053 57 26.5263158 57"></polygon>
                    <polygon id="Shape" points="26.5263158 47 29.8421053 47 29.8421053 50.3333333 26.5263158 50.3333333"></polygon>
                    <path d="M61.3421053,63.6666667 L59.6842105,63.6666667 L59.6842105,18.6666667 C59.6842105,16.1233333 57.8041579,13.5033333 55.4035263,12.6966667 L39.7894737,7.46333333 L39.7894737,1.99666667 C39.7894737,1.47 39.5407895,0.973333333 39.1196842,0.66 C38.6985789,0.346666667 38.1547895,0.25 37.6541053,0.4 L7.67273684,9.44333333 C5.229,10.18 3.31578947,12.7666667 3.31578947,15.33 L3.31578947,63.6633333 L1.65789474,63.6633333 C0.742736842,63.6633333 0,64.41 0,65.33 C0,66.25 0.742736842,66.9966667 1.65789474,66.9966667 L61.3421053,66.9966667 C62.2572632,66.9966667 63,66.25 63,65.33 C63,64.41 62.2572632,63.6633333 61.3421053,63.6633333 L61.3421053,63.6666667 Z M54.3557368,15.86 C55.4101579,16.2133333 56.3684211,17.55 56.3684211,18.6666667 L56.3684211,63.6666667 L39.7894737,63.6666667 L39.7894737,10.98 L54.3557368,15.86 L54.3557368,15.86 Z M6.63157895,15.3333333 C6.63157895,14.2366667 7.58321053,12.9533333 8.62768421,12.64 L36.4736842,4.24 L36.4736842,63.6666667 L6.63157895,63.6666667 L6.63157895,15.3333333 L6.63157895,15.3333333 Z" id="Shape"></path>
                </g>
            </g>
        </g>
    </g>
</svg>