<svg xmlns="http://www.w3.org/2000/svg" width="32" height="32" viewBox="0 0 32 32">
  <g fill="none" fill-rule="evenodd">
    <rect width="32" height="32"/>
    <path fill="#2196F3" d="M11.2984696,1.89361111 C12.1753252,0.838055556 13.6574609,0.0527777778 14.8805009,0 C15.0365009,1.46638889 14.4624209,2.93472222 13.6137809,3.99277778 C12.7637843,5.04888889 11.3725357,5.87166667 10.0070609,5.76194444 C9.8214887,4.32722222 10.5095165,2.83111111 11.2984696,1.89361111 Z M18.2563409,21.8963889 C17.2413913,23.4202778 16.1917148,24.935 14.5345878,24.9666667 C12.9037774,24.9983333 12.3809739,23.9744444 10.5198261,23.9744444 C8.65677913,23.9744444 8.07374609,24.935 6.53409391,24.9983333 C4.93421217,25.06 3.71741217,23.3525 2.69459478,21.8352778 C0.604737391,18.7333333 -0.991074783,13.0641667 1.1544,9.23833333 C2.21682783,7.33833333 4.12084174,6.13638889 6.1835687,6.10444444 C7.75496348,6.07472222 9.23926957,7.1925 10.1986017,7.1925 C11.1601043,7.1925 12.9618365,5.85055556 14.8555409,6.0475 C15.6482922,6.08111111 17.8732591,6.37555556 19.3024904,8.52305556 C19.1893565,8.59916667 16.6466922,10.1188889 16.6773496,13.2844444 C16.7082783,17.0658333 19.9037009,18.3225 19.9408696,18.3397222 C19.9115687,18.4286111 19.4297322,20.1341667 18.2563409,21.8963889 Z" transform="translate(6 3)"/>
  </g>
</svg>
