<svg xmlns="http://www.w3.org/2000/svg" width="23" height="27" viewBox="0 0 23 27">
  <g fill="none" fill-rule="evenodd" transform="translate(-5 -2)">
    <rect width="32" height="32"/>
    <path fill="#2196F3" d="M1.70020435,8.76701887 C1.23562452,8.76701887 0.840876436,8.92850943 0.516811707,9.25188679 C0.192746979,9.57515094 0.0306010667,9.9629434 0.0306010667,10.4153774 L0.0306010667,17.3647358 C0.0306010667,17.8276981 0.192690205,18.2209245 0.516811707,18.5441887 C0.840876436,18.8675094 1.23539742,19.0288302 1.70003403,19.0288302 C2.16478418,19.0288302 2.55646648,18.8674528 2.87519447,18.5441887 C3.19414956,18.2209245 3.35351356,17.8276981 3.35351356,17.3647358 L3.35351356,10.4153774 C3.35351356,9.96277358 3.19131087,9.57498113 2.86724615,9.25188679 C2.54312464,8.92867925 2.15394039,8.76701887 1.70020435,8.76701887 Z M4.00221075,19.8371887 C4.00221075,20.3326981 4.17514368,20.7528679 4.520896,21.0976981 C4.86670508,21.4421321 5.28802329,21.6144906 5.78524805,21.6144906 L6.98476444,21.6144906 L7.00111529,25.2829811 C7.00111529,25.7463396 7.16320443,26.1393396 7.48732593,26.4626604 C7.81139066,26.7859245 8.20051814,26.9474717 8.65431095,26.9474717 C9.11917465,26.9474717 9.51346855,26.7859245 9.8377036,26.4626604 C10.1619386,26.1393396 10.3239142,25.7463396 10.3239142,25.2829811 L10.3239142,21.6144906 L12.5606308,21.6144906 L12.5606308,25.2829811 C12.5606308,25.7463396 12.7226632,26.1393396 13.0467279,26.4626604 C13.37119,26.7859245 13.7655975,26.9474717 14.2303476,26.9474717 C14.6947004,26.9474717 15.0891078,26.7859245 15.4131725,26.4626604 C15.7372373,26.1393396 15.8990993,25.7463396 15.8990993,25.2829811 L15.8990993,21.6144906 L17.1149665,21.6144906 C17.6009501,21.6144906 18.0171019,21.4424717 18.3628542,21.0976981 C18.7087201,20.7528679 18.881653,20.3326981 18.881653,19.8371887 L18.881653,9.07403774 L4.00221075,9.07403774 L4.00221075,19.8371887 Z M15.1214121,2.52916981 L16.2719327,0.412018868 C16.3477257,0.271981132 16.3204743,0.164264151 16.1910868,0.0889245283 C16.0504014,0.0242264151 15.9424177,0.0565471698 15.8670221,0.185943396 L14.6997532,2.3190566 C13.6731698,1.86656604 12.5874848,1.64032075 11.4418467,1.64032075 C10.2964925,1.64032075 9.21041012,1.86656604 8.18376988,2.3190566 L7.01672808,0.186 C6.9413325,0.0566037736 6.83312168,0.0242830189 6.69266335,0.0889811321 C6.56293527,0.164320755 6.53608127,0.272037736 6.61170394,0.412075472 L7.76256521,2.52916981 C6.5953531,3.12164151 5.66630698,3.94856604 4.97451849,5.00977358 C4.28295709,6.07103774 3.93709123,7.23198113 3.93709123,8.49232075 L18.9307623,8.49232075 C18.9307623,7.23198113 18.5849532,6.07098113 17.8933351,5.00977358 C17.201433,3.94856604 16.2780075,3.12158491 15.1214121,2.52916981 Z M8.46746845,5.60762264 C8.34330419,5.73158491 8.19478399,5.79350943 8.02185106,5.79350943 C7.84891813,5.79350943 7.70312307,5.73164151 7.58412523,5.60762264 C7.46541125,5.48383019 7.40585556,5.33564151 7.40585556,5.16328302 C7.40585556,4.99086792 7.46541125,4.84267925 7.58412523,4.71871698 C7.70295274,4.59475472 7.8489749,4.5329434 8.02185106,4.5329434 C8.19455689,4.5329434 8.34313387,4.59469811 8.46746845,4.71871698 C8.59180302,4.84267925 8.65391354,4.99086792 8.65391354,5.16328302 C8.65391354,5.33569811 8.59180302,5.48366038 8.46746845,5.60762264 Z M15.2999088,5.60762264 C15.1807975,5.73158491 15.0348888,5.79350943 14.8620127,5.79350943 C14.6890798,5.79350943 14.5408434,5.73164151 14.4164521,5.60762264 C14.2921175,5.48383019 14.2301773,5.33564151 14.2301773,5.16328302 C14.2301773,4.99086792 14.2921175,4.84267925 14.4164521,4.71871698 C14.5407866,4.59475472 14.6890798,4.5329434 14.8620127,4.5329434 C15.0348888,4.5329434 15.1807975,4.59469811 15.2999088,4.71871698 C15.4184525,4.84267925 15.4781217,4.99086792 15.4781217,5.16328302 C15.4781217,5.33569811 15.4186228,5.48366038 15.2999088,5.60762264 Z M22.3668249,9.24373585 C22.0427602,8.92596226 21.6483528,8.76701887 21.1836026,8.76701887 C20.7299234,8.76701887 20.3409094,8.92596226 20.0168447,9.24373585 C19.6926096,9.56162264 19.530407,9.95224528 19.530407,10.4153774 L19.530407,17.3647358 C19.530407,17.8276981 19.6926096,18.2209245 20.0168447,18.5441887 C20.3409094,18.8675094 20.7299234,19.0288302 21.1836026,19.0288302 C21.6483528,19.0288302 22.0427602,18.8674528 22.3668249,18.5441887 C22.6912871,18.2209245 22.8532627,17.8276981 22.8532627,17.3647358 L22.8532627,10.4153774 C22.8532627,9.95218868 22.6912871,9.56156604 22.3668249,9.24373585 Z" transform="translate(5 2)"/>
  </g>
</svg>
