<svg xmlns="http://www.w3.org/2000/svg" width="20" height="25" viewBox="0 0 20 25">
  <g fill="none" fill-rule="evenodd" transform="translate(-6 -3)">
    <rect width="32" height="32"/>
    <path fill="#2196F3" d="M17.2984696,4.89361111 C18.1753252,3.83805556 19.6574609,3.05277778 20.8805009,3 C21.0365009,4.46638889 20.4624209,5.93472222 19.6137809,6.99277778 C18.7637843,8.04888889 17.3725357,8.87166667 16.0070609,8.76194444 C15.8214887,7.32722222 16.5095165,5.83111111 17.2984696,4.89361111 Z M24.2563409,24.8963889 C23.2413913,26.4202778 22.1917148,27.935 20.5345878,27.9666667 C18.9037774,27.9983333 18.3809739,26.9744444 16.5198261,26.9744444 C14.6567791,26.9744444 14.0737461,27.935 12.5340939,27.9983333 C10.9342122,28.06 9.71741217,26.3525 8.69459478,24.8352778 C6.60473739,21.7333333 5.00892522,16.0641667 7.1544,12.2383333 C8.21682783,10.3383333 10.1208417,9.13638889 12.1835687,9.10444444 C13.7549635,9.07472222 15.2392696,10.1925 16.1986017,10.1925 C17.1601043,10.1925 18.9618365,8.85055556 20.8555409,9.0475 C21.6482922,9.08111111 23.8732591,9.37555556 25.3024904,11.5230556 C25.1893565,11.5991667 22.6466922,13.1188889 22.6773496,16.2844444 C22.7082783,20.0658333 25.9037009,21.3225 25.9408696,21.3397222 C25.9115687,21.4286111 25.4297322,23.1341667 24.2563409,24.8963889 Z"/>
  </g>
</svg>
