<svg xmlns="http://www.w3.org/2000/svg" width="22" height="24" viewBox="0 0 22 24">
  <path fill="#2196F3" fill-rule="evenodd" d="M16.015625,18.984375 L16.015625,5.015625 L5.984375,5.015625 L5.984375,18.984375 L16.015625,18.984375 Z M16.015625,1.03125 C16.5468777,1.03125 17.0078105,1.22656055 17.3984375,1.6171875 C17.7890645,2.00781445 17.984375,2.46874734 17.984375,3 L17.984375,21 C17.984375,21.5312527 17.7890645,21.999998 17.3984375,22.40625 C17.0078105,22.812502 16.5468777,23.015625 16.015625,23.015625 L5.984375,23.015625 C5.4531223,23.015625 4.99218945,22.812502 4.6015625,22.40625 C4.21093555,21.999998 4.015625,21.5312527 4.015625,21 L4.015625,3 C4.015625,2.46874734 4.21093555,2.00000203 4.6015625,1.59375 C4.99218945,1.18749797 5.4531223,0.984375 5.984375,0.984375 L16.015625,1.03125 Z M0,7 L2,7 L2,17 L0,17 L0,7 Z M20,7 L22,7 L22,17 L20,17 L20,7 Z"/>
</svg>
