<svg xmlns="http://www.w3.org/2000/svg" width="32" height="32" viewBox="0 0 32 32">
  <path fill="#2196F3" fill-rule="evenodd" d="M19.984375,19.015625 L19.984375,9.03125 L12.015625,9.03125 L12.015625,19.015625 L19.984375,19.015625 Z M19.984375,5.046875 C20.5156277,5.046875 20.984373,5.24218555 21.390625,5.6328125 C21.796877,6.02343945 22,6.48437234 22,7.015625 L22,21.03125 C22,21.5625027 21.796877,22.0234355 21.390625,22.4140625 C20.984373,22.8046895 20.5156277,23 19.984375,23 L12.015625,23 C11.4843723,23 11.015627,22.8046895 10.609375,22.4140625 C10.203123,22.0234355 10,21.5625027 10,21.03125 L10,7.015625 C10,6.48437234 10.203123,6.01562703 10.609375,5.609375 C11.015627,5.20312297 11.4843723,5 12.015625,5 L19.984375,5.046875 Z M12,27 L12,25 L20,25 L20,27 L12,27 Z"/>
</svg>
