<svg xmlns="http://www.w3.org/2000/svg" width="12" height="22" viewBox="0 0 12 22">
  <path fill="#2196F3" fill-rule="evenodd" d="M9.984375,14.015625 L9.984375,4.03125 L2.015625,4.03125 L2.015625,14.015625 L9.984375,14.015625 Z M9.984375,0.046875 C10.5156277,0.046875 10.984373,0.24218555 11.390625,0.6328125 C11.796877,1.02343945 12,1.48437234 12,2.015625 L12,16.03125 C12,16.5625027 11.796877,17.0234355 11.390625,17.4140625 C10.984373,17.8046895 10.5156277,18 9.984375,18 L2.015625,18 C1.4843723,18 1.015627,17.8046895 0.609375,17.4140625 C0.203123,17.0234355 0,16.5625027 0,16.03125 L0,2.015625 C0,1.48437234 0.203123,1.01562703 0.609375,0.609375 C1.015627,0.20312297 1.4843723,0 2.015625,0 L9.984375,0.046875 Z M2,22 L2,20 L10,20 L10,22 L2,22 Z"/>
</svg>
