<?xml version="1.0" encoding="UTF-8" standalone="no"?>
<svg width="32px" height="32px" viewBox="0 0 32 32" version="1.1" xmlns="http://www.w3.org/2000/svg" xmlns:xlink="http://www.w3.org/1999/xlink">
    <!-- Generator: Sketch 39.1 (31720) - http://www.bohemiancoding.com/sketch -->
    <title>phone-mount</title>
    <desc>Created with Sketch.</desc>
    <defs></defs>
    <g id="Elements" stroke="none" stroke-width="1" fill="none" fill-rule="evenodd">
        <g id="phone-mount" fill="#2196F3">
            <path d="M21.015625,22.984375 L21.015625,9.015625 L10.984375,9.015625 L10.984375,22.984375 L21.015625,22.984375 Z M21.015625,5.03125 C21.5468777,5.03125 22.0078105,5.22656055 22.3984375,5.6171875 C22.7890645,6.00781445 22.984375,6.46874734 22.984375,7 L22.984375,25 C22.984375,25.5312527 22.7890645,25.999998 22.3984375,26.40625 C22.0078105,26.812502 21.5468777,27.015625 21.015625,27.015625 L10.984375,27.015625 C10.4531223,27.015625 9.99218945,26.812502 9.6015625,26.40625 C9.21093555,25.999998 9.015625,25.5312527 9.015625,25 L9.015625,7 C9.015625,6.46874734 9.21093555,6.00000203 9.6015625,5.59375 C9.99218945,5.18749797 10.4531223,4.984375 10.984375,4.984375 L21.015625,5.03125 Z M5,11 L7,11 L7,21 L5,21 L5,11 Z M25,11 L27,11 L27,21 L25,21 L25,11 Z" id="icon"></path>
        </g>
    </g>
</svg>