<?xml version="1.0" encoding="UTF-8" standalone="no"?>
<!DOCTYPE svg  PUBLIC '-//W3C//DTD SVG 20010904//EN'  'http://www.w3.org/TR/2001/REC-SVG-20010904/DTD/svg10.dtd'>
<svg xmlns="http://www.w3.org/2000/svg" height="480pt" width="480pt" version="1.0" preserveAspectRatio="xMidYMid meet" viewBox="0 0 480.000000 480.000000">
 <metadata>Created by potrace 1.11, written by Peter Selinger 2001-2013</metadata>
 <g transform="translate(0 480) scale(0.1 -0.1)">
  <path d="m2400 4250v-150h58c80 0 253-25 349-49 205-53 412-148 583-269 122-86 306-270 392-392 373-527 421-1201 127-1770-84-162-176-287-309-420s-258-225-420-309c-569-294-1243-246-1770 127-122 86-306 270-392 392-121 171-216 378-269 583-24 96-49 269-49 350v57h-150-150v-39c0-61 19-238 36-326 75-407 277-783 575-1070 256-247 554-413 894-500 181-46 292-59 495-59s314 13 495 59c340 87 638 253 894 500 692 667 808 1736 276 2539-263 397-676 698-1126 820-156 43-377 76-500 76h-39v-150z"/>
  <path d="m2245 3589c-469-60-878-416-1e3 -870-153-571 121-1157 657-1409 127-59 343-110 470-110h28v149 148l-80 7c-104 8-235 47-334 99-219 114-378 308-452 552-25 81-28 105-28 245s3 164 28 245c93 306 315 528 621 621 81 25 105 28 245 28s164-3 245-28c244-74 438-233 552-452 52-99 91-230 99-334l7-80h148 149v28c0 61-22 202-45 291-104 393-443 732-836 836-164 43-316 54-474 34z"/>
  <path d="m2306 2790c-63-16-153-70-197-117-22-24-55-74-72-111-29-61-32-76-32-163 0-90 2-99 37-171 45-91 103-147 196-191 61-29 76-32 162-32s101 3 162 32c93 44 151 100 196 191 35 72 37 81 37 172s-2 100-37 172c-68 136-188 217-336 224-42 2-94-1-116-6z"/>
 </g>
</svg>
