<?xml version="1.0" encoding="UTF-8" standalone="no"?>
<svg width="120px" height="80px" viewBox="0 0 120 80" version="1.1" xmlns="http://www.w3.org/2000/svg" xmlns:xlink="http://www.w3.org/1999/xlink">
    <!-- Generator: Sketch 39.1 (31720) - http://www.bohemiancoding.com/sketch -->
    <title>logo-university-of-toronto</title>
    <desc>Created with Sketch.</desc>
    <defs></defs>
    <g id="Elements" stroke="none" stroke-width="1" fill="none" fill-rule="evenodd" fill-opacity="0.38">
        <g id="logo-university-of-toronto" fill="#000000">
            <g id="Title" transform="translate(0.000000, 26.000000)">
                <path d="M15.4551415,0.15708744 L15.0655707,0.164337043 C14.605221,0.164337043 13.6799428,0.180171701 13.5427727,0.196960254 L13.4895453,0.203065183 L13.5143466,0.573939587 L13.5662385,0.573939587 C14.0067472,0.573939587 14.1551733,0.573939587 14.2580032,0.647580286 C14.3938378,0.732286169 14.4875103,1.50780286 14.4875103,2.53343084 L14.4035676,4.73101431 C14.4035676,6.24713514 15.3723434,7.05050556 17.2057297,7.05050556 C20.1093863,7.05050556 20.2608649,5.49813672 20.3079873,2.2701558 L20.3268744,1.29508426 L20.3268744,1.2529221 C20.3419459,0.780553259 20.3491955,0.585958665 21.1331065,0.540171701 L21.1815644,0.537691574 L21.2063657,0.160903021 L21.0564134,0.169106518 L19.8829316,0.196960254 L18.9797838,0.175211447 L18.5787663,0.163192369 L18.5810556,0.220044515 L18.5810556,0.558104928 L18.6354277,0.558104928 C18.9750143,0.558104928 19.3071606,0.578709062 19.4557774,0.723701113 C19.670213,0.932604134 19.7257297,1.83765978 19.7257297,2.28579968 L19.7257297,2.88141176 C19.7257297,5.11753259 19.5771129,6.47549762 17.4913259,6.47549762 C15.5923116,6.47549762 15.5923116,4.96281081 15.5923116,4.23556121 L15.5923116,2.9792814 C15.5923116,0.643955485 15.6793068,0.635561208 16.7205787,0.541316375 L16.7713259,0.5365469 L16.7713259,0.151173291 L16.7182893,0.148693164 C16.459593,0.136674086 15.8779078,0.148693164 15.4551415,0.15708744 L15.4551415,0.15708744 Z M27.6997202,0.0918410175 L27.6564134,0.0929856916 L27.6539332,0.135338633 L27.5909762,0.447071542 L27.6550779,0.450696343 C28.9567631,0.52681717 28.7514849,0.554480127 28.7869698,3.24751669 C28.7869698,3.24751669 28.8045215,4.87352623 28.8010874,5.05724642 C28.709132,4.96185692 24.1310079,0.1765469 24.1310079,0.1765469 L24.1123116,0.155942766 L23.3640763,0.171586645 L22.8613736,0.155942766 L22.8209285,0.152317965 L22.3642035,0.118550079 L22.3714531,0.183796502 L22.3750779,0.50754849 L22.4162862,0.514607313 C23.3524388,0.688788553 23.5083052,0.792572337 23.4751097,2.70494118 L23.4594658,3.87804134 C23.4594658,4.31530684 23.4073831,5.64312878 23.3577806,6.01877266 C23.3131383,6.40529094 23.1647122,6.43428935 22.9210874,6.48274722 C22.9109762,6.48389189 22.4857297,6.5756566 22.4857297,6.5756566 L22.4821049,6.62048967 L22.4821049,6.928407 L24.0543148,6.85972655 L24.8077011,6.89234976 C24.8113259,6.89234976 25.3331065,6.92974245 25.3331065,6.92974245 L25.3397838,6.8692655 L25.3397838,6.54074404 L25.293806,6.53215898 C24.0085278,6.30875676 24.0096725,6.16853418 24.0258887,5.0692655 L24.0604197,2.27855008 C24.0604197,2.27969475 24.0676693,2.0393132 24.0724388,1.88344674 C24.3261749,2.14443243 28.9533291,6.94176153 28.9271924,6.9537806 L28.943027,6.97438474 L29.3808649,6.96599046 L29.3759046,6.90303339 C29.3427091,6.35950397 29.3427091,4.95441653 29.3427091,4.34182512 C29.3427091,3.43219078 29.3822003,1.30958347 29.429132,1.04878855 C29.4882734,0.595688394 29.8772719,0.486944356 30.2506264,0.486944356 L30.3061431,0.486944356 L30.3061431,0.125608903 L30.2506264,0.125608903 C29.5233768,0.125608903 29.1586073,0.17273132 28.8415326,0.140298887 L28.6274785,0.116069952 L28.1304992,0.085736089 L27.6997202,0.0918410175 Z M31.5692909,0.203065183 L31.5692909,0.538836248 L31.623663,0.540171701 C32.5062067,0.572794913 32.6492909,0.753844197 32.72007,0.935084261 C32.8414054,1.23231797 32.8686868,3.14354213 32.8686868,3.85514785 L32.8686868,3.97343084 C32.8698315,4.55339905 32.8721208,5.91002862 32.6903084,6.22176153 C32.6294499,6.32554531 32.4047122,6.5092655 31.5372401,6.57451192 L31.4853482,6.57813672 L31.4853482,6.92001272 L32.5514213,6.88510016 L33.5301176,6.88510016 L35.1578442,6.93699205 L35.15193,6.87403498 L35.1318983,6.55753259 L35.0788617,6.55753259 C34.3678283,6.55753259 34.1388935,6.54551351 34.0549507,6.26640382 C34.0114531,6.11912242 33.989132,5.48001272 33.989132,4.36738951 C33.989132,1.73979014 34.0053482,1.0474531 34.1511033,0.793717011 C34.3291002,0.501443561 34.954283,0.538836248 35.1422003,0.558104928 L35.2026773,0.563065183 L35.2026773,0.164337043 L34.4057933,0.164337043 C34.4023593,0.164337043 33.2780986,0.196960254 33.2780986,0.196960254 L32.5371129,0.1765469 L32.2162226,0.164337043 C32.2173672,0.164337043 31.6291955,0.148693164 31.6291955,0.148693164 L31.5704356,0.146213037 L31.5704356,0.203065183 L31.5692909,0.203065183 Z M36.1195612,0.207834658 L36.1394022,0.501443561 L36.1848076,0.50754849 C37.0902448,0.621062003 37.1278283,0.624686804 37.8598474,2.12878855 L39.3753959,5.21788235 L39.3881781,5.24554531 C39.6453482,5.7820159 40.0326296,6.59263593 40.1636948,7.05775517 L40.1745692,7.10010811 L40.5097679,7.10010811 L40.5236948,7.06137997 C40.7526296,6.38964706 40.918035,5.92338315 41.447256,4.8710461 L43.0818506,1.66595866 C43.4594022,0.911046105 43.6211828,0.720076312 44.355682,0.572794913 L44.4028045,0.563065183 L44.4028045,0.194480127 L44.343663,0.19581558 C43.9256661,0.212604134 43.5196884,0.212604134 43.1005469,0.19581558 C43.0994022,0.19581558 41.817558,0.161856916 41.817558,0.161856916 L41.8139332,0.211459459 L41.7927568,0.560585056 L41.852089,0.556960254 C42.1895771,0.556960254 42.6403879,0.597977742 42.6403879,0.962937997 C42.6403879,1.16459141 42.4940604,1.49330366 42.3986709,1.71079173 L42.372725,1.76630843 C42.0403879,2.51893164 41.8272878,2.93215898 41.6050302,3.37075994 L40.8588935,4.90366932 C40.8588935,4.90366932 40.7459523,5.14901113 40.6818506,5.28789825 C39.9492591,4.10392369 38.6136153,0.936228935 38.6057933,0.749074722 C38.6057933,0.66818442 38.6244897,0.657310016 39.1748871,0.588438792 L39.3469698,0.566689984 L39.3469698,0.194480127 L38.3152369,0.199440382 L37.7583529,0.19581558 C37.3699269,0.19581558 36.5846804,0.177691574 36.1800382,0.146213037 L36.114601,0.141443561 L36.1195612,0.207834658 Z M50.7109126,0.131713831 C49.8833132,0.180171701 48.5797202,0.196960254 47.7149189,0.196960254 C47.1904674,0.196960254 45.8750461,0.164337043 45.3916121,0.14754849 L45.3343784,0.145068362 L45.3343784,0.482174881 L45.3815008,0.489424483 C45.9517393,0.589583466 45.9889412,0.601793323 46.0282417,0.732286169 C46.0894817,0.890441971 46.1594976,1.50169793 46.1594976,3.54093482 C46.1594976,4.41336725 46.0953959,5.79041017 46.0091638,6.25686486 C45.96662,6.48503657 45.6796884,6.56001272 45.2328839,6.60713514 L45.1760318,6.61324006 L45.2242989,6.98888394 L45.2775262,6.98277901 C46.1854436,6.88376471 47.2799428,6.88376471 47.9348871,6.88376471 L50.6288776,6.91886804 L50.6517711,6.87765978 C50.7931383,6.65311288 51.0056661,6.31352623 51.1554277,5.23467091 L51.1651574,5.17438474 L50.8461749,5.14901113 L50.8316757,5.19002862 C50.6021685,5.80853418 50.1465882,6.44153895 48.5074149,6.44153895 C47.9310715,6.44153895 47.6800064,6.36541812 47.3596884,6.24217488 C47.3308808,6.04891574 47.2994022,5.77114149 47.2824229,4.94354213 C47.2824229,4.94354213 47.2690684,3.93851828 47.266779,3.706531 C47.7004197,3.64853418 48.0964769,3.64605405 48.2704674,3.64605405 C49.5897043,3.64605405 49.6889094,3.74888394 49.8676693,4.56064865 L49.8785437,4.60414626 L50.1975262,4.60414626 L50.1975262,4.54729412 C50.1818824,3.65826391 50.1818824,3.44668998 50.2301494,2.51893164 L50.2349189,2.45979014 L49.8798792,2.45979014 L49.8676693,2.50328776 C49.7385119,2.99606995 49.6320572,3.09279491 49.4424229,3.12179332 C48.4784165,3.24503657 47.5409285,3.20764388 47.3150461,3.19066455 C47.3114213,3.10366932 47.2824229,2.30144356 47.2824229,2.30144356 C47.2824229,1.87009221 47.3184801,1.20331955 47.3936471,0.730950715 C47.7486868,0.665704293 48.41069,0.606562798 48.692089,0.606562798 C49.4399428,0.606562798 49.8772083,0.703096979 50.0706582,0.912190779 C50.2324388,1.08370111 50.2349189,1.33495707 50.2204197,1.62131638 L50.2179396,1.67454372 L50.6021685,1.72166614 L50.6021685,1.65756439 C50.6021685,1.58621304 50.6458569,1.31683307 50.679434,1.11994913 L50.7181622,0.871173291 C50.7700541,0.522047695 50.7700541,0.351682035 50.7700541,0.187421304 L50.7700541,0.12808903 L50.7109126,0.131713831 Z M54.6976216,3.25953577 C54.8933609,3.28605405 55.183345,3.28605405 55.3645851,3.28605405 C55.9661113,3.28605405 56.9760954,3.122938 56.9760954,2.02118919 C56.9760954,1.44007631 56.5497043,0.573939587 55.3815644,0.573939587 C54.7291002,0.573939587 54.7291002,0.595688394 54.7121208,1.72395548 C54.7121208,1.72395548 54.6976216,3.16414626 54.6976216,3.25953577 L54.6976216,3.25953577 Z M55.7848712,0.09909062 C57.1972083,0.09909062 58.1829634,0.855338633 58.1829634,1.93781876 C58.1829634,2.81616534 57.4194658,3.41406677 56.6849666,3.62068045 C58.035682,5.53800954 58.2867472,5.83276312 58.8220731,6.32554531 C58.8390525,6.34252464 59.2665882,6.75575199 59.7980986,6.78951987 L59.8562862,6.79314467 L59.8309126,7.14951987 L59.7776852,7.14951987 C58.6082099,7.14951987 58.0284324,6.70614944 57.7058251,6.45985374 C56.6790525,5.66716693 55.676318,4.11002862 55.4853482,3.77788235 C55.4273514,3.7765469 54.7787027,3.75250874 54.6794976,3.74754849 L54.6794976,4.64764388 L54.6794976,4.95441653 C54.6794976,5.41362162 54.6892273,6.07314467 54.7893863,6.27250874 C54.8643625,6.40052146 55.3983529,6.55753259 55.6833768,6.64223847 L55.7209603,6.65425755 L55.7438537,7.0119682 L55.676318,7.00090302 C55.2751097,6.9356566 54.6407695,6.88510016 54.2023593,6.88510016 C53.9715167,6.88510016 52.936159,6.9501558 52.7066518,6.96827981 L52.6620095,6.97075994 L52.5835994,6.6674213 L52.6438855,6.65673768 C52.781628,6.63365342 53.3314531,6.49972655 53.4628998,6.25915421 C53.5643943,6.04662639 53.5596248,4.86265183 53.5571447,4.35765978 L53.556,4.202938 L53.556,2.6156566 C53.556,0.594352941 53.4726296,0.588438792 52.6654436,0.541316375 L52.6099269,0.537691574 L52.6341558,0.143923688 L52.7333609,0.151173291 C52.7333609,0.151173291 53.3251574,0.182461049 53.3314531,0.182461049 L53.9499587,0.196960254 C54.1008649,0.196960254 54.4923434,0.163192369 54.869132,0.131713831 L55.7848712,0.09909062 Z M60.5327886,2.00440064 C60.5327886,3.15193641 61.5112941,3.55428935 62.2265246,3.8465628 L62.2868108,3.87079173 C63.5119936,4.36738951 64.0713577,4.59441653 64.0713577,5.44128458 C64.0713577,5.93902703 63.6980032,6.47549762 62.8799428,6.47549762 C62.1574626,6.47549762 61.6309126,6.16738951 61.3155548,5.91002862 C60.933806,5.5874213 60.8298315,5.10799364 60.7937742,4.94964706 L60.7865246,4.90500477 L60.3780668,4.90500477 L60.3998156,4.97864547 C60.6245533,5.72153895 60.7020095,6.05616534 60.6850302,6.89463911 L60.6825501,6.94901113 L61.0112623,6.97075994 L61.0269062,6.93451192 C61.0427409,6.89463911 61.1005469,6.76910652 61.1780032,6.76910652 C61.2577488,6.76910652 61.4893545,6.83187281 61.5898951,6.85591097 L61.6370175,6.86812083 C61.6345374,6.86812083 61.7360318,6.89711924 61.7360318,6.89711924 C61.901628,6.94901113 62.132089,7.01788235 62.5600064,7.01788235 C64.2054754,7.01788235 65.0920254,6.01877266 65.0920254,5.07899523 C65.0920254,3.75594277 63.7872878,3.24026709 62.927256,2.89953577 C62.1044261,2.58303339 61.4847758,2.29304928 61.4847758,1.62608585 C61.4847758,0.967707472 61.9920572,0.525672496 62.7437266,0.525672496 C63.4177488,0.525672496 63.9009921,0.903796502 64.015841,1.03428935 C64.2899905,1.28668998 64.3575262,1.58506836 64.4227727,1.87257234 L64.4323116,1.91606995 L64.4782893,1.92942448 L64.7780032,1.92942448 L64.6873831,1.0474531 C64.6873831,0.727325914 64.7512941,0.386594595 64.7852528,0.252476948 L64.799752,0.191046105 L64.5002289,0.146213037 C64.5002289,0.146213037 64.3176534,0.26945628 64.285221,0.292349762 C63.668814,0.131713831 63.3622321,0.0821112878 62.9320254,0.0821112878 C61.5185437,0.0811573927 60.5327886,0.872317965 60.5327886,2.00440064 L60.5327886,2.00440064 Z M66.4959682,0.203065183 L66.4959682,0.538836248 L66.5514849,0.540171701 C67.4309762,0.572794913 67.5759682,0.753844197 67.6459841,0.935084261 C67.7690366,1.23231797 67.7957456,3.14354213 67.7957456,3.85514785 L67.7957456,3.97343084 C67.7957456,4.55339905 67.7982258,5.91002862 67.615841,6.22176153 C67.5578442,6.32554531 67.3317711,6.5092655 66.4642989,6.57451192 L66.4112623,6.57813672 L66.4112623,6.92001272 L67.4792432,6.88510016 L68.4566041,6.88510016 L70.0839491,6.93699205 L70.0766995,6.87537043 L70.0597202,6.55753259 L70.0066836,6.55753259 C69.2939332,6.55753259 69.06538,6.54551351 68.9822003,6.26640382 C68.9387027,6.11912242 68.9156184,5.48001272 68.9156184,4.36738951 C68.9156184,1.74093482 68.9312623,1.0474531 69.0764452,0.793717011 C69.2563498,0.501443561 69.8822957,0.538836248 70.0669698,0.558104928 L70.1297361,0.563065183 L70.1297361,0.164337043 L69.3324706,0.164337043 C69.3288458,0.164337043 68.2064928,0.196960254 68.2064928,0.196960254 L67.4611192,0.1765469 L67.1409921,0.164337043 L66.5537742,0.148693164 L66.4959682,0.146213037 L66.4959682,0.203065183 Z M77.7505946,7.63116057e-05 L77.5401653,7.63116057e-05 L77.5233768,0.0218251192 C77.4871288,0.0653227345 77.4266518,0.148693164 77.0763816,0.164337043 L75.7220413,0.182461049 L73.8314213,0.182461049 L72.350213,0.164337043 C72.0012782,0.148693164 71.9383211,0.0653227345 71.9045533,0.0218251192 L71.8875739,7.63116057e-05 L71.6376534,7.63116057e-05 L71.6206741,0.0338441971 C71.593965,0.102715421 71.1349507,1.30595866 71.1145374,1.37979014 L71.103663,1.42080763 L71.4176852,1.60796184 L71.439434,1.54634022 C71.6508172,0.987166932 71.8789889,0.722556439 73.0557138,0.722556439 C73.4315485,0.722556439 73.7480509,0.746594595 73.9619141,0.768534181 C74.03193,1.6793132 74.0439491,2.5601399 74.0439491,3.22691256 C74.0439491,3.86716693 74.0235358,5.75053736 73.959434,6.15422576 C73.9353959,6.30265183 73.8918983,6.39689666 73.3144102,6.49972655 C73.3168903,6.4983911 72.8987027,6.55276312 72.8987027,6.55276312 L72.7367313,6.57451192 L72.806938,6.94786645 L73.3649666,6.90913831 L73.5221685,6.90074404 L74.6046486,6.87403498 L74.776159,6.87174563 L75.3753959,6.87765978 L75.8344102,6.89578378 L76.3201335,6.91276312 L76.3273831,6.8620159 L76.3661113,6.52853418 L76.0639173,6.49724642 L75.9939014,6.48751669 C75.7063975,6.45012401 75.4973037,6.38373291 75.4188935,6.30513196 C75.3439173,6.22061685 75.2159046,5.7856407 75.2159046,3.83702385 L75.2485278,2.44758029 L75.2836312,0.863923688 C75.2836312,0.729806041 75.2836312,0.722556439 75.8996566,0.722556439 L75.9227409,0.725036566 L76.2897997,0.721220986 L76.3708808,0.722556439 C77.4604197,0.722556439 77.5426455,0.950918919 77.7311351,1.45095072 L77.789132,1.60796184 L78.0983847,1.42080763 L78.0258887,1.06309698 C77.9173355,0.534066773 77.8265246,0.0906963434 77.801151,0.0338441971 L77.789132,7.63116057e-05 L77.7505946,7.63116057e-05 Z M83.7137742,0.187421304 L83.7137742,0.522047695 L83.7921844,0.525672496 C84.1291002,0.541316375 84.5894499,0.561920509 84.5894499,0.831300477 C84.5894499,0.912190779 84.4480827,1.30595866 83.1771129,3.15079173 C82.6299587,2.4910779 81.4181304,0.932604134 81.4181304,0.732286169 C81.4181304,0.65845469 81.4181304,0.572794913 82.1865882,0.558104928 L82.2422957,0.556960254 L82.2422957,0.163192369 L81.6043307,0.1765469 L80.3673196,0.196960254 L79.0311033,0.180171701 L79.0311033,0.238168521 L79.0311033,0.541316375 L79.08662,0.541316375 C79.4223911,0.541316375 79.6183211,0.585958665 79.7812464,0.698327504 C80.1897043,0.985831479 81.6333291,2.82951987 81.6840763,2.9092655 C81.6877011,2.91517965 82.2627091,3.65578378 82.3182258,3.72827981 C82.3533291,4.20541812 82.3848076,4.73692846 82.3848076,5.39053736 C82.3848076,6.39937679 82.3848076,6.60961526 81.4436948,6.64090302 L81.3927568,6.64223847 L81.3675739,6.98048967 L81.42538,6.98411447 C81.5633132,6.99365342 81.9958092,6.96103021 82.4124706,6.93088712 L83.1313259,6.88510016 L83.6750461,6.91161844 L83.7862703,6.91886804 L84.519434,6.95511606 L84.5171447,6.89463911 L84.5171447,6.61324006 L84.4663975,6.60827981 C83.5456979,6.52853418 83.5359682,6.41025119 83.5228045,6.23149126 C83.5228045,6.23492528 83.5203243,6.16242925 83.5203243,6.16242925 C83.4974308,5.74462321 83.4877011,5.28312878 83.4877011,4.7792814 C83.4877011,4.40230207 83.4949507,4.0001399 83.503345,3.57603816 C83.5228045,3.54818442 84.8286868,1.55721463 84.8286868,1.55721463 C85.2480191,0.912190779 85.4822957,0.558104928 86.3810556,0.541316375 L86.4354277,0.540171701 L86.4354277,0.153462639 L86.3858251,0.148693164 C86.2686868,0.13781876 85.9063975,0.158422893 85.5837901,0.1765469 L85.1501494,0.196960254 L84.6365723,0.169106518 L84.2754277,0.148693164 C84.2765723,0.148693164 83.7715803,0.131713831 83.7715803,0.131713831 L83.7137742,0.131713831 L83.7137742,0.187421304 Z M96.6571765,6.49228617 C97.8943784,6.49228617 98.6553959,5.27702385 98.6553959,4.15219078 C98.6553959,2.40179332 97.6572401,0.59072814 95.9854436,0.59072814 C94.6492273,0.59072814 93.9498315,1.78309698 93.9498315,2.96344674 C93.9498315,4.6983911 94.9632496,6.49228617 96.6571765,6.49228617 L96.6571765,6.49228617 Z M96.3044261,0.0483434022 C98.5226137,0.0483434022 99.8477647,1.80732591 99.8477647,3.50831161 C99.8477647,5.41953577 98.1794022,7.03486169 96.2029316,7.03486169 C94.272248,7.03486169 92.7622321,5.48478219 92.7622321,3.50831161 C92.7622321,1.66481399 94.4174308,0.0483434022 96.3044261,0.0483434022 L96.3044261,0.0483434022 Z M106.524839,0.09909062 C105.549959,0.196960254 105.321596,0.196960254 104.239307,0.196960254 L103.095014,0.182461049 L101.914855,0.148693164 L101.524521,0.170441971 L101.218703,0.20172973 L101.217749,0.253812401 L101.217749,0.489424483 L101.270976,0.493049285 C101.569164,0.50754849 101.846938,0.5365469 101.970372,0.715306836 C102.143027,0.978581876 102.160006,1.25044197 102.160006,3.62316057 C102.160006,4.74303339 102.062137,6.00427345 102.028369,6.19028299 C101.967892,6.45241335 101.603122,6.54551351 101.330118,6.59149126 L101.287765,6.59988553 L101.262391,6.95626073 L101.328973,6.95149126 C101.994601,6.90188871 102.718226,6.88510016 102.90786,6.88510016 L103.492407,6.90303339 C103.496223,6.90303339 104.579847,6.9537806 104.579847,6.9537806 L104.579847,6.89463911 L104.579847,6.56249285 L104.502391,6.55524324 C103.729355,6.48141176 103.468369,6.3474849 103.388432,6.24713514 C103.306588,6.14812083 103.27511,5.74462321 103.27511,5.31937679 C103.27511,5.19479809 103.278544,5.0692655 103.282359,4.94716693 C103.282359,4.94716693 103.308878,3.94576789 103.313647,3.7101558 C103.396064,3.70538633 103.868242,3.67867727 103.868242,3.67867727 C104.473583,3.67867727 105.229831,3.81756439 105.42786,3.90589507 C105.534315,3.93966296 105.626079,4.15581558 105.664617,4.45667409 L105.671866,4.50494118 L106.007828,4.50494118 L106.012598,4.45324006 C106.068114,3.75842289 106.060865,3.06990143 106.046366,2.54793005 L106.046366,2.49241335 L105.691326,2.49241335 L105.681596,2.53953577 C105.601851,3.03231797 105.567892,3.23530684 104.255905,3.23530684 C103.860992,3.23530684 103.736604,3.22080763 103.359625,3.17864547 C103.359625,3.17864547 103.346461,3.17731002 103.330626,3.17482989 C103.323377,3.0565469 103.316318,2.92853418 103.316318,2.79079173 C103.316318,2.63988553 103.321087,2.47791415 103.325857,2.31231797 C103.325857,2.31231797 103.346461,0.916960254 103.349895,0.700807631 C103.729355,0.654829889 104.059211,0.63918601 104.155746,0.63918601 C104.88662,0.63918601 105.529355,0.770823529 105.78786,0.973812401 C105.998099,1.135593 106.081469,1.40039428 106.138321,1.63696025 L106.15034,1.682938 L106.523695,1.65889984 L106.51759,1.60204769 C106.50786,1.49444833 106.530754,1.12605405 106.553838,0.802302067 L106.590086,0.0882162162 L106.524839,0.09909062 Z M9.17793959,13.3929539 L5.95282035,13.3929539 C4.55879809,13.3929539 3.50340859,13.3929539 2.6378442,13.3544165 C1.84706518,13.3168331 1.65819396,13.1271987 1.54410811,12.9774372 L1.13088076,12.9774372 C1.05399682,13.1657361 0.0386709062,15.8780413 -5.72337043e-05,16.0289475 L0.488718601,16.3309507 C0.979783784,15.0130493 1.54410811,14.3716502 4.21978378,14.3716502 C4.44757393,14.3716502 5.31313831,14.3716502 6.36738315,14.484973 C6.5196248,16.4059269 6.55568203,18.2894881 6.55568203,20.2113959 C6.55568203,21.4171192 6.51828935,25.9317138 6.36738315,26.9102194 C6.29164388,27.3644642 6.0669062,27.5783275 4.82207313,27.8044006 C4.29533227,27.8803307 3.95765342,27.9167695 3.65450556,27.9553068 L3.7668744,28.5640827 C4.17151669,28.5280254 4.65666773,28.5013164 5.25399682,28.4652591 C5.86162798,28.426531 6.59383784,28.4023021 7.68642925,28.4023021 C8.10099205,28.4023021 8.77978378,28.3757838 9.41946582,28.4131765 C10.0591479,28.4517138 10.627097,28.4517138 11.4159682,28.4892973 L11.4913259,27.8585819 C11.3390843,27.8585819 11.1193068,27.8236693 10.7749507,27.7776916 C10.3533291,27.7208394 9.68293164,27.5905374 9.41946582,27.3259269 C8.92954531,26.7604579 8.92954531,22.697628 8.92954531,21.6056089 C8.92954531,20.6633514 9.08064229,15.9156248 9.08064229,14.8234149 C9.08064229,14.3716502 9.23116693,14.3716502 10.5872242,14.3716502 L10.6341558,14.3775644 C11.2414054,14.3581049 11.4098633,14.3716502 11.636318,14.3716502 C14.3121844,14.3716502 14.3860159,15.0117138 14.8765087,16.3309507 L15.3664293,16.0289475 C15.3265564,15.8780413 14.8022957,13.1647822 14.7267472,12.9761017 L14.3121844,12.9761017 C14.1980986,13.1271987 14.0101812,13.3156884 13.2184483,13.3544165 C12.1890048,13.3990588 10.97069,13.3918092 9.73844833,13.3918092 L9.17793959,13.3918092 L9.17793959,13.3929539 Z M25.2068108,27.7486932 C28.0326296,27.7486932 29.8030588,24.9593132 29.8030588,22.2845914 C29.8030588,18.0271669 27.3547917,14.0332083 23.7004197,14.0332083 C20.7990525,14.0332083 19.0269062,16.5944165 19.0269062,19.5724769 C19.0269062,23.4903148 21.2878283,27.7486932 25.2068108,27.7486932 L25.2068108,27.7486932 Z M24.4154595,13.053558 C29.2387345,13.053558 32.2150779,16.8964197 32.2150779,20.8142576 C32.2150779,25.1478029 28.4470016,28.7273895 24.1903402,28.7273895 C19.7825819,28.7273895 16.6156502,25.1478029 16.6156502,20.8142576 C16.6156502,16.6705374 20.2711669,13.053558 24.4154595,13.053558 L24.4154595,13.053558 Z M39.2607377,20.3624928 C39.7117393,20.4397583 40.4283052,20.4397583 40.8794976,20.4397583 C41.4461113,20.4397583 44.6107536,20.4397583 44.6107536,17.424496 C44.6107536,16.030283 43.5940922,13.9969603 40.918035,13.9969603 C39.3360954,13.9969603 39.3360954,14.1829698 39.297558,16.7453227 L39.2607377,20.3624928 Z M34.8884642,13.2805851 C35.3783847,13.3168331 35.8314849,13.3555612 36.3214054,13.3555612 C36.7725978,13.3929539 37.2625183,13.3929539 37.7154277,13.3929539 C38.054442,13.3929539 38.9200064,13.3168331 39.7874785,13.2420477 C40.6536153,13.1670715 41.294442,13.1670715 41.8211828,13.1670715 C45.0237901,13.1670715 47.0588299,14.899345 47.0588299,17.2348617 C47.0588299,19.3452591 45.137876,20.6271033 43.6309126,21.0050366 C46.7581622,25.5259269 47.3222957,26.2035739 48.5291638,27.3331765 C48.6789253,27.4854181 49.6223275,28.3504102 50.7883688,28.4253863 L50.75193,28.992 C48.1521844,28.992 46.8714849,27.9745755 46.1932655,27.44669 C43.8941876,25.6381049 41.634601,22.0587091 41.2188935,21.3058951 C40.5792114,21.3058951 40.314601,21.3058951 39.223345,21.229965 L39.223345,23.4140032 C39.223345,24.3938442 39.1849984,26.5805533 39.4864293,27.1834149 C39.6751097,27.5214754 40.8056661,27.8623975 41.5579078,28.0869444 L41.5958728,28.653558 C40.6904356,28.5013164 39.2594022,28.3889475 38.2808967,28.3889475 C37.7511033,28.3889475 35.4163498,28.5400445 34.9271924,28.577628 L34.8129157,28.1256725 C35.0408967,28.0869444 36.3969539,27.7862766 36.7355866,27.1460223 C36.9990525,26.5805533 36.9616598,23.4140032 36.9616598,22.3994404 L36.9616598,18.7811256 C36.9616598,14.1081844 36.7355866,14.0332083 34.8516439,13.9208394 L34.8884642,13.2805851 Z M59.6050302,27.7486932 C62.4295135,27.7486932 64.2028045,24.9593132 64.2028045,22.2845914 C64.2028045,18.0271669 61.7528203,14.0332083 58.0997838,14.0332083 C55.1989889,14.0332083 53.4268426,16.5944165 53.4268426,19.5724769 C53.4268426,23.4903148 55.6860477,27.7486932 59.6050302,27.7486932 L59.6050302,27.7486932 Z M58.8148235,13.053558 C63.6386709,13.053558 66.614442,16.8964197 66.614442,20.8142576 C66.614442,25.1478029 62.8450302,28.7273895 58.5876057,28.7273895 C54.1806105,28.7273895 51.0153959,25.1478029 51.0153959,20.8142576 C51.0153959,16.6705374 54.6711033,13.053558 58.8148235,13.053558 L58.8148235,13.053558 Z M72.4578124,13.3555612 C71.8560954,13.3929539 71.4007059,13.3929539 70.6467472,13.3929539 C70.2699587,13.3929539 69.8918347,13.3929539 69.5173355,13.3555612 C69.1392114,13.3168331 69.0810238,13.3217933 68.7212146,13.2805851 L68.7212146,13.9208394 C70.9054436,14.3352114 71.0987027,14.6736534 71.0239173,19.0444006 L71.0164769,21.7191224 C71.0164769,22.7352114 70.946461,25.7504738 70.8329475,26.6168013 C70.7205787,27.5964515 70.3048712,27.6725723 69.7407377,27.7849412 C69.4387345,27.8599173 69.1004833,27.9360382 68.8757456,27.9736216 L68.8757456,28.5377552 C69.4387345,28.5377552 70.0042035,28.5001717 70.5694817,28.4639237 C71.1349507,28.4240509 71.8911987,28.3879936 72.4566677,28.3879936 C73.0232814,28.3879936 73.623663,28.4240509 74.1526932,28.4639237 C74.6420413,28.4639237 74.9814372,28.5001717 75.2061749,28.5377552 L75.2061749,27.89731 C72.23193,27.3694245 72.23193,26.9563879 72.2679873,24.4325723 L72.2729475,18.0647504 L72.3091955,16.859027 C72.3008013,16.8492973 72.3019459,16.8794404 83.3934563,28.6136852 L84.1678283,28.6136852 C84.0930429,27.3694245 84.0930429,24.1679618 84.0930429,22.7750843 C84.0930429,20.7782003 84.0808331,15.6267854 84.1630588,14.9829062 C84.2910715,14.0005851 85.599434,13.9198855 86.3158092,13.9198855 L86.3158092,13.3544165 C84.6970493,13.3544165 83.8066836,13.3929539 83.0914531,13.3168331 C82.4124706,13.2420477 81.9233132,13.2056089 81.5100859,13.2056089 C81.1704992,13.2056089 80.7923752,13.1670715 80.5664928,13.204655 L80.4552687,13.7699332 C82.9790843,13.9219841 82.9222321,14.1455771 82.9222321,19.8321272 C82.9222321,20.5109189 82.8968585,23.8358156 82.8968585,24.47607 L72.4578124,13.3555612 Z M97.2806423,13.3929539 L94.0560954,13.3929539 C92.6620731,13.3929539 91.6074467,13.3929539 90.7399746,13.3544165 C89.9472878,13.3168331 89.7612782,13.1271987 89.6477647,12.9774372 L89.2345374,12.9774372 C89.1586073,13.1657361 88.1388935,15.8780413 88.1037901,16.0289475 L88.5931383,16.3309507 C89.0822957,15.0130493 89.6477647,14.3716502 92.3226773,14.3716502 C92.5495135,14.3716502 93.4145056,14.3716502 94.4716121,14.484973 C94.6213736,16.4059269 94.6589571,18.2894881 94.6589571,20.2113959 C94.6589571,21.4171192 94.6213736,25.9317138 94.4716121,26.9102194 C94.395682,27.3644642 94.1684642,27.5783275 92.9266836,27.8044006 C92.3974626,27.8803307 92.0580668,27.9167695 91.7572083,27.9553068 L91.870531,28.5640827 C92.2742194,28.5280254 92.7574626,28.5013164 93.3565087,28.4652591 C93.9629952,28.426531 94.6952051,28.4023021 95.7874149,28.4023021 C96.2029316,28.4023021 96.8819141,28.3757838 97.5210238,28.4131765 C98.1599428,28.4517138 98.7301812,28.4517138 99.5203879,28.4892973 L99.5953641,27.8585819 C99.4429316,27.8585819 99.2220095,27.8236693 98.8776534,27.7776916 C98.4571765,27.7208394 97.7854436,27.5905374 97.5210238,27.3259269 C97.0316757,26.7604579 97.0316757,22.697628 97.0316757,21.6056089 C97.0316757,20.6633514 97.1839173,15.9156248 97.1839173,14.8234149 C97.1839173,14.3716502 97.336159,14.3716502 98.6904992,14.3716502 L98.7351415,14.3775644 C99.3439173,14.3581049 99.514283,14.3716502 99.7401653,14.3716502 C102.413742,14.3716502 102.489863,15.0117138 102.976731,16.3309507 L103.468369,16.0289475 C103.432121,15.8780413 102.903091,13.1647822 102.828114,12.9761017 L102.413742,12.9761017 C102.301183,13.1271987 102.112884,13.3156884 101.321533,13.3544165 C100.290944,13.3990588 99.0732019,13.3918092 97.8434404,13.3918092 L97.2806423,13.3918092 L97.2806423,13.3929539 Z M112.954283,27.7486932 C115.778766,27.7486932 117.549959,24.9593132 117.549959,22.2845914 C117.549959,18.0271669 115.098639,14.0332083 111.445412,14.0332083 C108.543663,14.0332083 106.771326,16.5944165 106.771326,19.5724769 C106.771326,23.4903148 109.03282,27.7486932 112.954283,27.7486932 L112.954283,27.7486932 Z M112.160642,13.053558 C116.98201,13.053558 119.961405,16.8964197 119.961405,20.8142576 C119.961405,25.1478029 116.191994,28.7273895 111.934569,28.7273895 C107.526429,28.7273895 104.361024,25.1478029 104.361024,20.8142576 C104.361024,16.6705374 108.015587,13.053558 112.160642,13.053558 L112.160642,13.053558 Z" id="Fill-1"></path>
            </g>
        </g>
    </g>
</svg>