<?xml version="1.0" encoding="UTF-8" standalone="no"?>
<svg width="80px" height="80px" viewBox="0 0 80 80" version="1.1" xmlns="http://www.w3.org/2000/svg" xmlns:xlink="http://www.w3.org/1999/xlink">
    <!-- Generator: Sketch 39.1 (31720) - http://www.bohemiancoding.com/sketch -->
    <title>logo-chevron</title>
    <desc>Created with Sketch.</desc>
    <defs></defs>
    <g id="Elements" stroke="none" stroke-width="1" fill="none" fill-rule="evenodd">
        <g id="logo-chevron" fill="#000000">
            <g id="Shape" transform="translate(4.000000, 16.934307)">
                <path d="M0.543649635,23.6835036 L35.6251095,11.9924088 C35.6280292,11.990073 35.630365,11.9877372 35.6332847,11.9854015 L35.6332847,11.9854015 C35.6327007,11.9848175 35.6321168,11.9842336 35.6315328,11.9836496 L35.6315328,11.9836496 L0.543649635,0.289635036 L0.543649635,23.6835036 Z" id="Fill-1" fill-opacity="0.38"></path>
                <path d="M35.6414599,11.9865693 L0.547737226,23.6858394 L0.547737226,23.6858394 L0.547737226,23.6858394 L35.6414599,35.3839416 L70.7340146,23.6858394 L70.7340146,0.291386861 L35.6414599,11.9865693 Z" id="Fill-3" fill-opacity="0.12"></path>
                <path d="M0.543649635,50.8724088 C0.545985401,50.8741606 0.548321168,50.8753285 0.550656934,50.8770803 L0.550656934,50.8770803 L35.6291971,39.1772263 C35.6309489,39.1754745 35.6315328,39.1743066 35.6327007,39.1725547 L35.6327007,39.1725547 L0.543649635,27.4791241 L0.543649635,50.8724088 Z" id="Fill-6" fill-opacity="0.38"></path>
                <path d="M35.6315328,39.1713869 L0.543649635,50.8759124 L35.3962044,62.4963504 C35.4773723,62.5226277 35.560292,62.5494891 35.6414599,62.5757664 L35.6414599,62.5757664 L70.729927,50.8741606 C70.7316788,50.8694891 70.7334307,50.8642336 70.7351825,50.859562 L70.7351825,50.859562 L70.7351825,27.4832117 C70.7310949,27.4820438 70.7293431,27.4814599 70.7252555,27.480292 L70.7252555,27.480292 L35.6315328,39.1713869 Z" id="Fill-8" fill-opacity="0.12"></path>
            </g>
            <g id="Title" transform="translate(4.000000, 0.529051)" fill-opacity="0.38">
                <path d="M10.5776934,13.9201752 C10.0463066,14.1800292 8.97127007,14.5000292 7.37769343,14.5000292 C2.96367883,14.5000292 0.432291971,11.4641168 0.432291971,7.59141606 C0.432291971,2.98178102 3.65856934,0.540905109 7.67083212,0.540905109 C9.22645255,0.540905109 10.0480584,0.838131387 10.5776934,1.12075912 L10.0865985,3.87871533 C9.49740146,3.61652555 8.872,3.37827737 7.79170803,3.37827737 C5.88105109,3.37827737 3.85477372,4.51637956 3.85477372,7.54178102 C3.85477372,10.2471825 5.4699562,11.6790073 7.80805839,11.6790073 C8.7330219,11.6790073 9.36134307,11.4962336 10.0865985,11.1633869 L10.5776934,13.9201752 Z" id="Fill-10"></path>
                <path d="M29.1896642,8.02633577 C29.1896642,7.29232117 28.832292,6.01115328 27.4477664,6.01115328 C26.2331679,6.01115328 25.6609051,7.0569927 25.5762336,8.02633577 L29.1896642,8.02633577 Z M25.5966715,10.153635 C25.7064526,11.4167007 26.7528759,12.0876496 28.3709781,12.1010803 C29.3444088,12.1092555 30.4778394,11.8260438 31.2334599,11.3810803 L31.6848467,13.7086715 C30.5484964,14.2785985 29.2503942,14.4999124 27.9289343,14.4999124 C24.3692263,14.4999124 22.4609051,12.3585985 22.4609051,9.07918248 C22.4609051,5.9060438 24.5128759,3.85932847 27.5867445,3.85932847 C30.7557956,3.85932847 32.1753577,6.19159124 32.1753577,9.11363504 C32.1753577,9.42312409 32.1385693,9.92472993 32.1041168,10.153635 L25.5966715,10.153635 L25.5966715,10.153635 Z" id="Fill-13"></path>
                <polygon id="Fill-15" points="35.6911533 14.0861314 32.3883796 4.27416058 35.6864818 4.27416058 37.4809343 11.2143066 37.5422482 11.2143066 39.3390365 4.27416058 42.6383066 4.27416058 39.334365 14.0861314"></polygon>
                <path d="M43.4860146,7.50224818 C43.4860146,6.05874453 43.441635,5.11626277 43.3791533,4.27421898 L46.1972555,4.27421898 L46.2825109,6.09786861 L46.3590073,6.09786861 C46.8512701,4.65494891 47.7972555,4.10662774 48.7712701,4.05232117 C49.2343358,4.02545985 49.4836788,4.05816058 49.7698102,4.11363504 L49.7698102,6.9819562 C49.4953577,6.92764964 48.9511241,6.86458394 48.5692263,6.89962044 C47.4182774,7.00589781 46.722219,7.84327007 46.5265985,8.80677372 C46.4868905,9.00648175 46.4676204,9.2289635 46.4676204,9.48706569 L46.4676204,14.0861898 L43.4860146,14.0861898 L43.4860146,7.50224818 Z" id="Fill-17"></path>
                <path d="M57.179562,9.18026277 C57.179562,7.58318248 56.630073,6.19281752 55.2046715,6.19281752 C53.7757664,6.19281752 53.2291971,7.58318248 53.2291971,9.18026277 C53.2291971,10.7773431 53.7757664,12.1647883 55.2046715,12.1647883 C56.630073,12.1647883 57.179562,10.7773431 57.179562,9.18026277 M60.280292,9.18026277 C60.280292,12.3954453 58.3421898,14.4999708 55.2046715,14.4999708 C52.0642336,14.4999708 50.1261314,12.3954453 50.1261314,9.18026277 C50.1261314,5.96391241 52.0642336,3.85938686 55.2046715,3.85938686 C58.3421898,3.85938686 60.280292,5.96391241 60.280292,9.18026277" id="Fill-19"></path>
                <path d="M61.6104526,7.40274453 C61.6104526,6.17763504 61.5649051,5.13354745 61.5012555,4.27456934 L64.3193577,4.27456934 L64.3847591,5.64683212 L64.4449051,5.64683212 C64.8338102,5.00858394 65.8685547,3.96040876 67.4778978,3.96040876 C69.4492847,3.96040876 70.736292,5.3069781 70.736292,8.19515328 L70.736292,14.0859562 L67.7488467,14.0859562 L67.7488467,8.64420438 C67.7488467,7.38289051 67.315562,6.51982482 66.2341022,6.51982482 C65.4054891,6.51982482 64.8910365,7.10435036 64.7000876,7.66143066 C64.6282628,7.86639416 64.6002336,8.14493431 64.6002336,8.42581022 L64.6002336,14.0859562 L61.6104526,14.0859562 L61.6104526,7.40274453 Z" id="Fill-21"></path>
                <path d="M17.9057518,3.96070073 C16.7174307,3.96070073 15.5664818,4.49967883 14.9813723,5.36624818 L14.9451679,5.36624818 L14.9451679,0.589605839 L11.954219,1.62435036 L11.954219,14.0862482 L14.9451679,14.0862482 L14.9451679,8.26435036 C14.9451679,7.42464234 15.4911533,6.52011679 16.5393285,6.52011679 C17.6604964,6.52011679 18.0914453,7.4030365 18.0914453,8.6859562 L18.0914453,14.0862482 L21.0853139,14.0862482 L21.0853139,8.27369343 C21.0853139,5.30668613 19.8123212,3.96070073 17.9057518,3.96070073" id="Fill-23"></path>
            </g>
        </g>
    </g>
</svg>