<?xml version="1.0" encoding="UTF-8" standalone="no"?>
<svg width="120px" height="80px" viewBox="0 0 120 80" version="1.1" xmlns="http://www.w3.org/2000/svg" xmlns:xlink="http://www.w3.org/1999/xlink">
    <!-- Generator: Sketch 39.1 (31720) - http://www.bohemiancoding.com/sketch -->
    <title>logo-columbia-university</title>
    <desc>Created with Sketch.</desc>
    <defs></defs>
    <g id="Elements" stroke="none" stroke-width="1" fill="none" fill-rule="evenodd" fill-opacity="0.38">
        <g id="logo-columbia-university" fill="#000000">
            <g id="Title" transform="translate(0.000000, 44.118557)">
                <path d="M1.48440748,7.04129654 C0.514269514,6.18994519 0.257418257,5.08060858 0.257418257,4.12039312 C0.257418257,3.44736345 0.465507466,2.27877528 1.41580042,1.40757891 C2.12880363,0.753827254 3.06945757,0.357493857 4.54450954,0.357493857 C5.15885466,0.357493857 5.52457002,0.396900397 5.98015498,0.456435456 C6.35692686,0.506898507 6.67302967,0.595350595 6.97013797,0.625118125 C7.07956908,0.634757135 7.11925912,0.684086184 7.11925912,0.743621244 C7.11925912,0.823284823 7.08864109,0.942354942 7.06964657,1.28879229 C7.05008505,1.61566812 7.05972406,2.15942166 7.04016254,2.35758836 C7.03024003,2.50585901 7.01039501,2.58552259 6.92080892,2.58552259 C6.84227934,2.58552259 6.82130032,2.50585901 6.82130032,2.36807787 C6.81194481,2.06104706 6.68295218,1.71432621 6.43602344,1.45634096 C6.10943111,1.11047061 5.33717634,0.843413343 4.42572293,0.843413343 C3.56473256,0.843413343 2.9997165,1.06085806 2.56454356,1.45634096 C1.84218484,2.12058212 1.65337365,3.06123606 1.65337365,4.02116802 C1.65337365,6.37733888 3.44622945,7.54564355 4.77272727,7.54564355 C5.65441315,7.54564355 6.18824419,7.44755245 6.58429408,6.99168399 C6.75269325,6.8040068 6.88140238,6.51653752 6.92080892,6.33821584 C6.95057645,6.18002268 6.97013797,6.14061614 7.05008505,6.14061614 C7.11925912,6.14061614 7.13882064,6.20950671 7.13882064,6.28860329 C7.13882064,6.40795691 7.01975052,7.26838027 6.92080892,7.60602911 C6.87176337,7.77414477 6.83207333,7.82347382 6.66395766,7.89293139 C6.26734077,8.05112455 5.51578152,8.12029862 4.88102438,8.12029862 C3.52504253,8.12029862 2.38565489,7.82347382 1.48440748,7.04129654" id="Fill-1"></path>
                <path d="M8.38622189,4.84473634 C8.38622189,3.42808543 9.32347382,1.5983746 11.8086373,1.5983746 C13.8711019,1.5983746 15.1550747,2.7989983 15.1550747,4.6961822 C15.1550747,6.59336609 13.8299943,8.09364959 11.7261387,8.09364959 C9.34785485,8.09364959 8.38622189,6.31156681 8.38622189,4.84473634 M13.995842,5.0029295 C13.995842,3.14713665 12.9264789,1.995842 11.5685126,1.995842 C10.6148176,1.995842 9.53014553,2.52598753 9.53014553,4.58901909 C9.53014553,6.31156681 10.48299,7.67945568 12.0737101,7.67945568 C12.6531847,7.67945568 13.995842,7.3976564 13.995842,5.0029295" id="Fill-2"></path>
                <path d="M18.1230391,5.57446607 C18.1230391,6.63475713 18.1230391,7.20657721 18.2971083,7.35569836 C18.4380079,7.48015498 18.6534682,7.53827254 19.2995653,7.53827254 C19.7384237,7.53827254 20.0613306,7.52948403 20.2694198,7.30636931 C20.3677944,7.1989227 20.4681535,6.96616897 20.4840295,6.80967681 C20.4931015,6.73454923 20.5095445,6.68493668 20.5756001,6.68493668 C20.6337176,6.68493668 20.6413721,6.72604423 20.6413721,6.82526933 C20.6413721,6.91598942 20.5843886,7.53827254 20.5163485,7.77868078 C20.4681535,7.96068796 20.4261954,8.001512 19.9949915,8.001512 C18.8023058,8.001512 18.2560008,7.95218295 17.5841051,7.95218295 C17.3938764,7.95218295 16.8716689,7.97798148 16.5405405,7.97798148 C16.4328104,7.97798148 16.3744094,7.95218295 16.3744094,7.89463239 C16.3744094,7.85324135 16.4078624,7.82857683 16.507371,7.82857683 C16.6318276,7.82857683 16.7316197,7.81185031 16.8056133,7.79484029 C16.9711775,7.76110376 17.012852,7.57966358 17.0465885,7.33897184 C17.0876961,6.99111699 17.0876961,6.33679834 17.0876961,5.57446607 L17.0876961,4.11614062 C17.0876961,2.85654886 17.0876961,2.62464562 17.0712531,2.36042336 C17.0545266,2.07890758 16.9887545,1.94566245 16.7146097,1.88754489 C16.6482706,1.87166887 16.548762,1.86288036 16.4415989,1.86288036 C16.3508789,1.86288036 16.3006993,1.84672085 16.3006993,1.78860329 C16.3006993,1.72991873 16.3585334,1.71347571 16.48299,1.71347571 C16.8716689,1.71347571 17.3938764,1.73842374 17.6178416,1.73842374 C17.8162918,1.73842374 18.4212814,1.71347571 18.7444717,1.71347571 C18.8604234,1.71347571 18.9188244,1.72991873 18.9188244,1.78860329 C18.9188244,1.84672085 18.8689284,1.86288036 18.7691363,1.86288036 C18.6781327,1.86288036 18.5448875,1.87166887 18.4462294,1.88754489 C18.2219807,1.92921943 18.1556417,2.07011907 18.1394821,2.36042336 C18.1230391,2.62464562 18.1230391,2.85654886 18.1230391,4.11614062 L18.1230391,5.57446607" id="Fill-3"></path>
                <path d="M22.2383292,4.11614062 C22.2383292,2.85654886 22.2383292,2.62464562 22.2213192,2.36042336 C22.2051597,2.07890758 22.1393876,1.94566245 21.8658099,1.88754489 C21.7994708,1.87166887 21.6585712,1.86288036 21.5420525,1.86288036 C21.4513325,1.86288036 21.4014364,1.84672085 21.4014364,1.78860329 C21.4014364,1.73048573 21.4592705,1.71347571 21.5840106,1.71347571 C22.022302,1.71347571 22.5450765,1.73842374 22.7928558,1.73842374 C22.991873,1.73842374 23.5146475,1.71347571 23.8123228,1.71347571 C23.9367794,1.71347571 23.99433,1.73048573 23.99433,1.78860329 C23.99433,1.84672085 23.9450009,1.86288036 23.8622189,1.86288036 C23.7714988,1.86288036 23.7213192,1.87166887 23.6218106,1.88754489 C23.3986959,1.92921943 23.3317898,2.07040257 23.3150633,2.36042336 C23.2989038,2.62464562 23.2989038,2.85654886 23.2989038,4.11614062 L23.2989038,5.27622378 C23.2989038,6.47713098 23.539312,6.98289548 23.9450009,7.31430731 C24.3186543,7.62077112 24.6996787,7.65394065 24.9811945,7.65394065 C25.3454923,7.65394065 25.7925723,7.53827254 26.1237006,7.20657721 C26.5792856,6.75070875 26.6042336,6.00510301 26.6042336,5.15176715 L26.6042336,4.11614062 C26.6042336,2.85654886 26.6042336,2.62464562 26.5883576,2.36042336 C26.5719146,2.07890758 26.504725,1.94566245 26.2319977,1.88754489 C26.1648082,1.87166887 26.024759,1.86288036 25.9331884,1.86288036 C25.8424683,1.86288036 25.7925723,1.84672085 25.7925723,1.78860329 C25.7925723,1.73048573 25.8506899,1.71347571 25.9666415,1.71347571 C26.3890569,1.71347571 26.9109809,1.73842374 26.9200529,1.73842374 C27.018144,1.73842374 27.539501,1.71347571 27.8641089,1.71347571 C27.9800605,1.71347571 28.037611,1.73048573 28.037611,1.78860329 C28.037611,1.84672085 27.9879985,1.86288036 27.8890569,1.86288036 C27.7974863,1.86288036 27.7475902,1.87166887 27.6486486,1.88754489 C27.4246834,1.92921943 27.3583444,2.07040257 27.3424683,2.36042336 C27.3257418,2.62464562 27.3257418,2.85654886 27.3257418,4.11614062 L27.3257418,5.0029295 C27.3257418,5.92317142 27.2336042,6.9003969 26.538178,7.4968815 C25.950482,8.001512 25.3542809,8.09364959 24.8147798,8.09364959 C24.3762049,8.09364959 23.5804196,8.06756757 22.9757135,7.52182952 C22.5530146,7.14080514 22.2383292,6.52646003 22.2383292,5.32583633 L22.2383292,4.11614062" id="Fill-4"></path>
                <path d="M30.026649,1.74721225 C30.0515971,1.60631261 30.1012096,1.53175203 30.1678322,1.53175203 C30.2338877,1.53175203 30.2837838,1.57257607 30.3912304,1.78803629 L32.6529957,6.46125496 L34.9062559,1.73105273 C34.964657,1.5975241 35.014553,1.53175203 35.0885466,1.53175203 C35.1631072,1.53175203 35.2127197,1.61396711 35.2379512,1.78803629 L35.992062,6.90861841 C36.0663391,7.43082593 36.1496881,7.67038367 36.3977509,7.74607825 C36.6384426,7.82035532 36.8040068,7.82857683 36.9117369,7.82857683 C36.9857305,7.82857683 37.044415,7.83651484 37.044415,7.88612739 C37.044415,7.95218295 36.9446229,7.97741448 36.8283878,7.97741448 C36.6217161,7.97741448 35.478643,7.95218295 35.1466641,7.92723493 C34.9558685,7.91107541 34.9062559,7.88612739 34.9062559,7.83651484 C34.9062559,7.79484029 34.9402759,7.76989227 34.997543,7.74607825 C35.046872,7.72821773 35.0721036,7.62077112 35.0392175,7.38858439 L34.5416745,3.74390474 L34.5087885,3.74390474 L32.7034587,7.50510301 C32.5123795,7.89463239 32.470705,7.96919297 32.3961444,7.96919297 C32.3215838,7.96919297 32.2390852,7.8030618 32.1066906,7.55499905 C31.9073899,7.17397467 31.2533548,5.90587791 31.1538462,5.67397467 C31.0792856,5.499622 30.5820261,4.45605746 30.2920053,3.83519184 L30.2588358,3.83519184 L29.8281988,7.13173313 C29.8111888,7.28113778 29.8032508,7.38858439 29.8032508,7.52182952 C29.8032508,7.67860518 29.9109809,7.75316575 30.0515971,7.78718579 C30.2004347,7.82035532 30.3166698,7.82857683 30.3991684,7.82857683 C30.4660745,7.82857683 30.523625,7.84445284 30.523625,7.88612739 C30.523625,7.96068796 30.4490644,7.97741448 30.3251748,7.97741448 C29.97732,7.97741448 29.6048006,7.95218295 29.455963,7.95218295 C29.2980533,7.95218295 28.9003024,7.97741448 28.6346626,7.97741448 C28.5521641,7.97741448 28.485258,7.96068796 28.485258,7.88612739 C28.485258,7.84445284 28.535154,7.82857683 28.6185031,7.82857683 C28.6851257,7.82857683 28.7423927,7.82857683 28.8662824,7.8030618 C29.0987526,7.75316575 29.1653752,7.43082593 29.2067662,7.14845965 L30.026649,1.74721225" id="Fill-5"></path>
                <path d="M38.8667549,4.11614062 C38.8667549,2.85654886 38.8667549,2.62464562 38.8500284,2.36042336 C38.8335853,2.07890758 38.7678133,1.94566245 38.4942355,1.88754489 C38.4278964,1.87166887 38.2869968,1.86288036 38.1704782,1.86288036 C38.0803251,1.86288036 38.030429,1.84672085 38.030429,1.78860329 C38.030429,1.73048573 38.0876961,1.71347571 38.2124362,1.71347571 C38.6515782,1.71347571 39.1735022,1.73842374 39.3399168,1.73842374 C39.7453222,1.73842374 40.0687961,1.71347571 40.3497448,1.71347571 C41.8491778,1.71347571 42.1142506,2.51748252 42.1142506,2.95605746 C42.1142506,3.63674164 41.7247212,4.04186354 41.2694198,4.40616141 C41.9486864,4.63863164 42.7770743,5.22604423 42.7770743,6.19476469 C42.7770743,7.08268758 42.0895861,8.001512 40.5652051,8.001512 C40.3664714,8.001512 39.6117936,7.95218295 39.3645814,7.95218295 C39.1735022,7.95218295 38.6515782,7.97656398 38.3195993,7.97656398 C38.2124362,7.97656398 38.1548857,7.95218295 38.1548857,7.89463239 C38.1548857,7.85324135 38.1877717,7.82857683 38.2869968,7.82857683 C38.4111699,7.82857683 38.5106785,7.81128331 38.5849556,7.79484029 C38.7510868,7.76138726 38.7924778,7.57966358 38.8253638,7.33897184 C38.8667549,6.99168399 38.8667549,6.33679834 38.8667549,5.57503308 L38.8667549,4.11614062 L38.8667549,4.11614062 Z M39.8609904,4.25675676 C39.8609904,4.32366282 39.8853714,4.33982234 39.9185409,4.34861085 C39.9936685,4.36505387 40.1178416,4.37299187 40.3089208,4.37299187 C40.5816481,4.37299187 40.7642223,4.33982234 40.9045549,4.21564922 C41.1200151,4.04186354 41.2450387,3.74305424 41.2450387,3.33821584 C41.2450387,2.78283878 40.9215649,2.05395955 40.2091287,2.05395955 C40.0931771,2.05395955 40.018333,2.05395955 39.9361179,2.07040257 C39.8774334,2.08656209 39.8609904,2.11973162 39.8609904,2.21045171 L39.8609904,4.25675676 L39.8609904,4.25675676 Z M40.954451,4.92014742 C40.7809488,4.7954073 40.5904366,4.73785674 40.2666793,4.72169722 C40.1178416,4.71290871 40.0350595,4.71290871 39.9103194,4.71290871 C39.8774334,4.71290871 39.8609904,4.72963523 39.8609904,4.77102627 L39.8609904,6.73454923 C39.8609904,7.28113778 39.8853714,7.42260442 40.1515782,7.52948403 C40.3749764,7.62077112 40.5652051,7.62899263 40.7557173,7.62899263 C41.1288036,7.62899263 41.7584578,7.42969193 41.7584578,6.56870157 C41.7584578,6.05528256 41.5838216,5.35900586 40.954451,4.92014742 L40.954451,4.92014742 Z" id="Fill-6"></path>
                <path d="M44.6155736,4.11614062 C44.6155736,2.85654886 44.6155736,2.62464562 44.5991306,2.36042336 C44.5824041,2.07890758 44.499622,1.93744094 44.3176148,1.8957664 C44.2263277,1.87166887 44.1191646,1.86288036 44.019656,1.86288036 C43.9363069,1.86288036 43.8869779,1.84672085 43.8869779,1.77981478 C43.8869779,1.73048573 43.95275,1.71347571 44.0854281,1.71347571 C44.4003969,1.71347571 44.9217539,1.73842374 45.1624457,1.73842374 C45.3696844,1.73842374 45.8587224,1.71347571 46.1734077,1.71347571 C46.2808543,1.71347571 46.3471933,1.73048573 46.3471933,1.77981478 C46.3471933,1.84672085 46.2978643,1.86288036 46.2147987,1.86288036 C46.1320166,1.86288036 46.0656776,1.87166887 45.9658855,1.88754489 C45.7427707,1.92921943 45.6764317,2.07040257 45.6594217,2.36042336 C45.6429786,2.62464562 45.6429786,2.85654886 45.6429786,4.11614062 L45.6429786,5.57503308 C45.6429786,6.37818938 45.6429786,7.03250803 45.6764317,7.38886789 C45.7013797,7.61254961 45.7594973,7.76138726 46.008127,7.79484029 C46.1232281,7.81128331 46.3058023,7.82857683 46.4299754,7.82857683 C46.5206955,7.82857683 46.5626536,7.85324135 46.5626536,7.89463239 C46.5626536,7.95218295 46.496598,7.97656398 46.4055944,7.97656398 C45.8587224,7.97656398 45.3367983,7.95218295 45.1128331,7.95218295 C44.9217539,7.95218295 44.4003969,7.97656398 44.0692686,7.97656398 C43.9615385,7.97656398 43.9037044,7.95218295 43.9037044,7.89463239 C43.9037044,7.85324135 43.9363069,7.82857683 44.0358155,7.82857683 C44.1605557,7.82857683 44.2589303,7.81128331 44.3337743,7.79484029 C44.499622,7.76138726 44.5492345,7.62077112 44.5741826,7.38036288 C44.6155736,7.03250803 44.6155736,6.37818938 44.6155736,5.57503308 L44.6155736,4.11614062" id="Fill-7"></path>
                <path d="M49.6581932,5.81459081 C49.6162351,5.81459081 49.5995086,5.83103383 49.5836326,5.88121338 L49.1359856,7.06539407 C49.0534871,7.27319977 49.0106785,7.47193347 49.0106785,7.57087507 C49.0106785,7.72056322 49.0860896,7.82857683 49.3432243,7.82857683 L49.4673975,7.82857683 C49.5660556,7.82857683 49.5910036,7.84473634 49.5910036,7.89463239 C49.5910036,7.96068796 49.5411075,7.97741448 49.4503875,7.97741448 C49.1853147,7.97741448 48.8289548,7.95218295 48.5718201,7.95218295 C48.4808165,7.95218295 48.0252315,7.97741448 47.5945946,7.97741448 C47.4862975,7.97741448 47.4369684,7.96068796 47.4369684,7.89463239 C47.4369684,7.84473634 47.470705,7.82857683 47.537044,7.82857683 C47.6116046,7.82857683 47.7272727,7.82035532 47.7930448,7.81185031 C48.1743527,7.76138726 48.3322623,7.47958798 48.4978265,7.06539407 L50.5764506,1.86288036 C50.6768097,1.62247212 50.7261387,1.53175203 50.8086373,1.53175203 C50.8846154,1.53175203 50.9336609,1.60631261 51.0161595,1.7965413 C51.2157437,2.25269325 52.540824,5.63258363 53.0709696,6.89217539 C53.3859384,7.63721414 53.6263466,7.75288225 53.8006993,7.7951238 C53.9245889,7.82035532 54.048762,7.82857683 54.1468531,7.82857683 C54.2146097,7.82857683 54.2554338,7.83651484 54.2554338,7.89463239 C54.2554338,7.96068796 54.1808732,7.97741448 53.8735589,7.97741448 C53.5767341,7.97741448 52.9711775,7.97741448 52.3089208,7.96068796 C52.1595162,7.95218295 52.0608581,7.95218295 52.0608581,7.89463239 C52.0608581,7.84473634 52.0940276,7.82857683 52.1762427,7.82035532 C52.2346437,7.8036288 52.2921943,7.72793423 52.2508033,7.62870913 L51.5879796,5.87299187 C51.5715366,5.83103383 51.5460215,5.81459081 51.5040635,5.81459081 L49.6581932,5.81459081 L49.6581932,5.81459081 Z M51.3478548,5.4009639 C51.3886789,5.4009639 51.3974674,5.37601588 51.3886789,5.35078435 L50.6430731,3.3039123 C50.6348516,3.27102627 50.6260631,3.23020223 50.6022491,3.23020223 C50.5764506,3.23020223 50.5602911,3.27102627 50.5529201,3.3039123 L49.7908713,5.34256284 C49.7815158,5.37601588 49.7908713,5.4009639 49.8234738,5.4009639 L51.3478548,5.4009639 L51.3478548,5.4009639 Z" id="Fill-8"></path>
                <path d="M58.5343035,3.36798337 C58.5343035,1.86288036 58.5343035,1.58505009 58.513608,1.26866377 C58.4940465,0.931865432 58.4158004,0.773955774 58.0880741,0.704498204 C58.009261,0.684086184 57.8405783,0.675014175 57.7013797,0.675014175 C57.5936496,0.675014175 57.533831,0.654602155 57.533831,0.585428085 C57.533831,0.515687016 57.6030051,0.496408996 57.7512758,0.496408996 C58.2763183,0.496408996 58.9008694,0.526176526 59.1971272,0.526176526 C59.4341334,0.526176526 60.0586846,0.496408996 60.4153279,0.496408996 C60.5633151,0.496408996 60.6339066,0.515687016 60.6339066,0.585428085 C60.6339066,0.654602155 60.5732376,0.675014175 60.4734455,0.675014175 C60.3648649,0.675014175 60.3064638,0.684086184 60.1865432,0.704498204 C59.9194859,0.753260253 59.8409563,0.921942922 59.8205443,1.26866377 C59.8012663,1.58505009 59.8012663,1.86288036 59.8012663,3.36798337 L59.8012663,4.75344925 C59.8012663,6.18994519 60.0878851,6.79380079 60.5732376,7.18928369 C61.0186165,7.55698356 61.474485,7.5958231 61.8115668,7.5958231 C62.2470232,7.5958231 62.7817048,7.45747496 63.1769042,7.06114156 C63.7229257,6.51710452 63.7524098,5.62549613 63.7524098,4.60574561 L63.7524098,3.36798337 C63.7524098,1.86288036 63.7524098,1.58505009 63.7328482,1.26866377 C63.7121527,0.931865432 63.6330561,0.773955774 63.3061803,0.704498204 C63.2268002,0.684086184 63.0584011,0.675014175 62.9498204,0.675014175 C62.8412398,0.675014175 62.7817048,0.654602155 62.7817048,0.585428085 C62.7817048,0.515687016 62.8511624,0.496408996 62.98866,0.496408996 C63.495275,0.496408996 64.1184086,0.526176526 64.1283311,0.526176526 C64.2468342,0.526176526 64.8713854,0.496408996 65.2569458,0.496408996 C65.3950104,0.496408996 65.4658855,0.515687016 65.4658855,0.585428085 C65.4658855,0.654602155 65.4057834,0.675014175 65.2864298,0.675014175 C65.1775657,0.675014175 65.1191646,0.684086184 64.999811,0.704498204 C64.7319032,0.753260253 64.6536572,0.921942922 64.6338121,1.26866377 C64.6128331,1.58505009 64.6128331,1.86288036 64.6128331,3.36798337 L64.6128331,4.42770743 C64.6128331,5.52655453 64.5048195,6.69485919 63.6730297,7.40814591 C62.969949,8.01143451 62.2563788,8.12029862 61.6134001,8.12029862 C61.0886411,8.12029862 60.1386316,8.09053109 59.4145719,7.43706294 C58.9096579,6.98204498 58.5343035,6.24919675 58.5343035,4.81355131 L58.5343035,3.36798337" id="Fill-9"></path>
                <path d="M67.4855415,6.85078435 C67.502835,7.4968815 67.6094311,7.71177471 67.7752788,7.77074277 C67.9173124,7.82035532 68.0738046,7.82857683 68.2064827,7.82857683 C68.2977698,7.82857683 68.3473823,7.84473634 68.3473823,7.89463239 C68.3473823,7.96068796 68.2736723,7.97741448 68.1568702,7.97741448 C67.6182196,7.97741448 67.2873748,7.95218295 67.1294651,7.95218295 C67.0546211,7.95218295 66.6662257,7.97741448 66.2347382,7.97741448 C66.1270081,7.97741448 66.0530146,7.96890947 66.0530146,7.89463239 C66.0530146,7.84473634 66.1029106,7.82857683 66.1854092,7.82857683 C66.2925723,7.82857683 66.4419769,7.82035532 66.5579286,7.78633529 C66.7733888,7.72056322 66.8068418,7.47958798 66.8144963,6.75893026 L66.8887734,1.85494235 C66.8887734,1.68909469 66.9145719,1.57257607 66.9965035,1.57257607 C67.0880741,1.57257607 67.1626347,1.68087318 67.3046683,1.82971083 C67.4024759,1.93744094 68.6623512,3.28803629 69.8714799,4.48865999 C70.4347949,5.05282555 71.5523531,6.24551125 71.6941032,6.37818938 L71.7346437,6.37818938 L71.6521452,2.65838216 C71.6444906,2.15290115 71.5696466,1.995842 71.3709129,1.91249291 C71.2461727,1.86288036 71.0477225,1.86288036 70.9314874,1.86288036 C70.8316953,1.86288036 70.7990928,1.83821584 70.7990928,1.78860329 C70.7990928,1.72113022 70.8906634,1.71432621 71.0148365,1.71432621 C71.4460404,1.71432621 71.8429408,1.73870724 72.016443,1.73870724 C72.1091476,1.73870724 72.4232659,1.71432621 72.8295218,1.71432621 C72.9372519,1.71432621 73.0197505,1.72113022 73.0197505,1.78860329 C73.0197505,1.83821584 72.9704215,1.86288036 72.8706294,1.86288036 C72.7878473,1.86288036 72.7215082,1.86288036 72.6219996,1.88754489 C72.3903799,1.95388395 72.3234738,2.12766963 72.3152523,2.59147609 L72.2239652,7.82035532 C72.2239652,8.0023625 72.1916462,8.07663958 72.1159516,8.07663958 C72.026082,8.07663958 71.9257229,7.98506899 71.8341523,7.89463239 C71.3119448,7.3968059 70.2530713,6.31156681 69.3912304,5.45851446 C68.4879985,4.56378756 67.5680401,3.52872803 67.4200529,3.37110187 L67.3951049,3.37110187 L67.4855415,6.85078435" id="Fill-10"></path>
                <path d="M75.1357966,4.11614062 C75.1357966,2.85654886 75.1357966,2.62464562 75.1199206,2.36042336 C75.1029106,2.07890758 75.019278,1.93744094 74.8381213,1.8957664 C74.7465507,1.87166887 74.6385371,1.86288036 74.539312,1.86288036 C74.4573805,1.86288036 74.4063504,1.84672085 74.4063504,1.77981478 C74.4063504,1.73048573 74.474107,1.71347571 74.6059346,1.71347571 C74.9203364,1.71347571 75.4422604,1.73842374 75.6826687,1.73842374 C75.8896239,1.73842374 76.3786619,1.71347571 76.6944812,1.71347571 C76.8002268,1.71347571 76.8668494,1.73048573 76.8668494,1.77981478 C76.8668494,1.84672085 76.8175203,1.86288036 76.7350217,1.86288036 C76.6530902,1.86288036 76.5867511,1.87166887 76.485825,1.88754489 C76.2621433,1.92921943 76.1972217,2.07040257 76.1796447,2.36042336 C76.1632017,2.62464562 76.1632017,2.85654886 76.1632017,4.11614062 L76.1632017,5.57503308 C76.1632017,6.37818938 76.1632017,7.03250803 76.1972217,7.38886789 C76.2213192,7.61254961 76.2797203,7.76138726 76.527216,7.79484029 C76.6443016,7.81128331 76.8257418,7.82857683 76.950482,7.82857683 C77.041202,7.82857683 77.0828766,7.85324135 77.0828766,7.89463239 C77.0828766,7.95218295 77.016821,7.97656398 76.9258174,7.97656398 C76.3786619,7.97656398 75.8564544,7.95218295 75.6324891,7.95218295 C75.4422604,7.95218295 74.9203364,7.97656398 74.5883576,7.97656398 C74.4823285,7.97656398 74.4244944,7.95218295 74.4244944,7.89463239 C74.4244944,7.85324135 74.4573805,7.82857683 74.5560386,7.82857683 C74.6793612,7.82857683 74.7805708,7.81128331 74.8542809,7.79484029 C75.019278,7.76138726 75.0694576,7.62077112 75.0952561,7.38036288 C75.1357966,7.03250803 75.1357966,6.37818938 75.1357966,5.57503308 L75.1357966,4.11614062" id="Fill-11"></path>
                <path d="M78.7765073,2.52598753 C78.5871291,2.07040257 78.4467964,1.97883198 78.1471366,1.8957664 C78.0235305,1.86288036 77.8914194,1.86288036 77.8242298,1.86288036 C77.7505198,1.86288036 77.7241542,1.83821584 77.7241542,1.78860329 C77.7241542,1.72198072 77.8165753,1.71432621 77.9407484,1.71432621 C78.3796069,1.71432621 78.8507844,1.73870724 79.1416556,1.73870724 C79.3480438,1.73870724 79.7472122,1.71432621 80.1608392,1.71432621 C80.2600643,1.71432621 80.3510679,1.73105273 80.3510679,1.78860329 C80.3510679,1.84672085 80.3017388,1.86288036 80.2271782,1.86288036 C80.0947836,1.86288036 79.96976,1.87166887 79.9034209,1.92071442 C79.8458703,1.96267246 79.8214893,2.02107352 79.8214893,2.0953506 C79.8214893,2.2027972 79.8960499,2.43413343 80.0114345,2.73322623 L81.4368739,6.49385749 L81.469193,6.49385749 C81.8255528,5.58240408 82.9025704,2.91551692 83.1027216,2.36807787 C83.1441126,2.26034776 83.1761482,2.13645814 83.1761482,2.06246456 C83.1761482,1.9966925 83.1441126,1.92921943 83.0681346,1.9042714 C82.968626,1.87166887 82.8453033,1.86288036 82.7375732,1.86288036 C82.6624457,1.86288036 82.5966736,1.85494235 82.5966736,1.7968248 C82.5966736,1.73105273 82.6718012,1.71432621 82.8282933,1.71432621 C83.2430542,1.71432621 83.5894916,1.73870724 83.6975052,1.73870724 C83.8401058,1.73870724 84.2282177,1.71432621 84.477131,1.71432621 C84.5851446,1.71432621 84.6509167,1.73105273 84.6509167,1.78860329 C84.6509167,1.84672085 84.6021546,1.86288036 84.519089,1.86288036 C84.4357399,1.86288036 84.2613873,1.86288036 84.1122661,1.96267246 C84.0053865,2.03723304 83.8812134,2.17728218 83.6572482,2.70856171 C83.3340578,3.48705349 83.1100926,3.93356643 82.6624457,4.95331695 C82.1323001,6.16357966 81.7439047,7.06539407 81.5613306,7.48015498 C81.3458703,7.96068796 81.2959743,8.09308259 81.1805897,8.09308259 C81.0725761,8.09308259 81.022113,7.97741448 80.8647704,7.58760159 L78.7765073,2.52598753" id="Fill-12"></path>
                <path d="M85.965224,4.11614062 C85.965224,2.85654886 85.965224,2.62464562 85.9476469,2.36042336 C85.9317709,2.07890758 85.8648649,1.94566245 85.5912871,1.88754489 C85.5263655,1.87166887 85.3846154,1.86288036 85.2686638,1.86288036 C85.1765262,1.86288036 85.1271971,1.84672085 85.1271971,1.78860329 C85.1271971,1.73048573 85.1853147,1.71347571 85.3086373,1.71347571 C85.7480627,1.71347571 86.2711208,1.73842374 86.5027405,1.73842374 C86.7683803,1.73842374 88.4175014,1.73842374 88.5737101,1.73048573 C88.7313362,1.71347571 88.8637309,1.6964657 88.9300699,1.68030618 C88.971461,1.67208467 89.02079,1.64713665 89.0624646,1.64713665 C89.1041391,1.64713665 89.1129276,1.68030618 89.1129276,1.72283122 C89.1129276,1.77981478 89.0701191,1.87932338 89.0454545,2.26063126 C89.0380835,2.34284634 89.02079,2.70827821 89.0046305,2.80721981 C88.9955585,2.84917785 88.9796825,2.8990739 88.9221319,2.8990739 C88.8637309,2.8990739 88.8472878,2.85654886 88.8472878,2.78283878 C88.8472878,2.72472122 88.8387828,2.58353808 88.7979588,2.48402948 C88.7387072,2.33519184 88.6570592,2.23625024 88.2425817,2.18607069 C88.1013986,2.16934417 87.2313362,2.15290115 87.0660556,2.15290115 C87.0240975,2.15290115 87.007938,2.17728218 87.007938,2.23625024 L87.007938,4.33216783 C87.007938,4.39000189 87.015876,4.42288792 87.0660556,4.42288792 C87.2477792,4.42288792 88.2014742,4.42288792 88.3902854,4.40616141 C88.5904366,4.39000189 88.7143262,4.36505387 88.7894538,4.28255528 C88.8472878,4.21564922 88.8807409,4.17425817 88.9221319,4.17425817 C88.9541675,4.17425817 88.9796825,4.19070119 88.9796825,4.24088074 C88.9796825,4.29020979 88.9388584,4.42288792 88.9139104,4.84473634 C88.8971839,5.01143451 88.8807409,5.34256284 88.8807409,5.4003969 C88.8807409,5.46645247 88.8807409,5.55717256 88.8053298,5.55717256 C88.7480627,5.55717256 88.7313362,5.52485352 88.7313362,5.48431298 C88.7228312,5.4003969 88.7228312,5.29323379 88.6975997,5.18550369 C88.6570592,5.01965602 88.5411075,4.8957664 88.2343602,4.86202986 C88.0775846,4.84473634 87.2560008,4.83708184 87.0575506,4.83708184 C87.015876,4.83708184 87.007938,4.86996787 87.007938,4.92014742 L87.007938,5.57503308 C87.007938,5.85626536 86.9991495,6.61859762 87.007938,6.85815536 C87.0240975,7.42969193 87.1567757,7.55499905 88.0016065,7.55499905 C88.2176337,7.55499905 88.5654886,7.55499905 88.7809488,7.45520696 C88.9955585,7.35683236 89.0950671,7.18219618 89.1540352,6.84199584 C89.1699112,6.75070875 89.1866377,6.71753922 89.2450387,6.71753922 C89.3108108,6.71753922 89.3108108,6.78359478 89.3108108,6.86694387 C89.3108108,7.05773956 89.2450387,7.62077112 89.2033642,7.78718579 C89.1452466,8.001512 89.0701191,8.001512 88.7568513,8.001512 C87.505481,8.001512 86.950104,7.95218295 86.4613495,7.95218295 C86.2711208,7.95218295 85.7480627,7.97656398 85.4172179,7.97656398 C85.3086373,7.97656398 85.2513703,7.95218295 85.2513703,7.89463239 C85.2513703,7.85324135 85.2845398,7.82857683 85.3846154,7.82857683 C85.5082215,7.82857683 85.6082971,7.81128331 85.6825742,7.79484029 C85.8475713,7.76138726 85.8889624,7.57966358 85.9226989,7.33897184 C85.965224,6.99168399 85.965224,6.33679834 85.965224,5.57503308 L85.965224,4.11614062" id="Fill-13"></path>
                <path d="M91.6564922,4.11614062 C91.6564922,2.85654886 91.6564922,2.62464562 91.6383481,2.36042336 C91.6233226,2.07890758 91.5567001,1.94566245 91.2834058,1.88754489 C91.2170667,1.87166887 91.0756001,1.86288036 90.9602155,1.86288036 C90.8686449,1.86288036 90.8187488,1.84672085 90.8187488,1.78860329 C90.8187488,1.73048573 90.8762994,1.71347571 91.0010395,1.71347571 C91.4404649,1.71347571 91.9621055,1.73842374 92.1353241,1.73842374 C92.4176904,1.73842374 93.047061,1.71347571 93.3050463,1.71347571 C93.8266868,1.71347571 94.3812134,1.76365526 94.8299943,2.07040257 C95.0610471,2.22746173 95.3927424,2.64931015 95.3927424,3.20553771 C95.3927424,3.81818182 95.1358911,4.38092988 94.2984313,5.06104706 C95.0358155,5.98865999 95.6076356,6.72604423 96.0966736,7.23974674 C96.5613306,7.72056322 96.9006804,7.77868078 97.02457,7.8036288 C97.1164241,7.82035532 97.1901342,7.82857683 97.2567568,7.82857683 C97.3225288,7.82857683 97.3556984,7.85324135 97.3556984,7.89463239 C97.3556984,7.96068796 97.2975808,7.97656398 97.1975052,7.97656398 L96.4110754,7.97656398 C95.9481194,7.97656398 95.7403137,7.93545644 95.52457,7.82035532 C95.1687772,7.62899263 94.8540919,7.23974674 94.3897184,6.6018711 C94.0588736,6.14571915 93.6772822,5.58240408 93.5695521,5.45851446 C93.527594,5.40918541 93.478832,5.4003969 93.4207144,5.4003969 L92.7000567,5.38395388 C92.6583822,5.38395388 92.6325836,5.4003969 92.6325836,5.45057645 L92.6325836,5.56624457 C92.6325836,6.33679834 92.6325836,6.99168399 92.6751087,7.33897184 C92.7000567,7.57966358 92.7488187,7.76138726 92.997732,7.79484029 C93.1221886,7.81128331 93.3050463,7.82857683 93.4037044,7.82857683 C93.46976,7.82857683 93.50378,7.85324135 93.50378,7.89463239 C93.50378,7.95218295 93.4453789,7.97656398 93.3379323,7.97656398 C92.8576829,7.97656398 92.2447552,7.95218295 92.1197316,7.95218295 C91.9621055,7.95218295 91.4404649,7.97656398 91.1093366,7.97656398 C91.0010395,7.97656398 90.9437724,7.95218295 90.9437724,7.89463239 C90.9437724,7.85324135 90.976942,7.82857683 91.0756001,7.82857683 C91.2000567,7.82857683 91.2989983,7.81128331 91.3741259,7.79484029 C91.5394065,7.76138726 91.5816481,7.57966358 91.6142506,7.33897184 C91.6564922,6.99168399 91.6564922,6.33679834 91.6564922,5.57503308 L91.6564922,4.11614062 L91.6564922,4.11614062 Z M92.6325836,4.77102627 C92.6325836,4.86202986 92.6498771,4.8957664 92.7082782,4.92014742 C92.8817804,4.97826498 93.1304101,5.0029295 93.3379323,5.0029295 C93.6690607,5.0029295 93.7765073,4.96947647 93.9259119,4.86202986 C94.1742582,4.68002268 94.4146664,4.2987148 94.4146664,3.61888112 C94.4146664,2.44263844 93.6356076,2.1030051 93.1477036,2.1030051 C92.9398979,2.1030051 92.7902098,2.11094311 92.7082782,2.13645814 C92.6498771,2.15290115 92.6325836,2.18607069 92.6325836,2.25240975 L92.6325836,4.77102627 L92.6325836,4.77102627 Z" id="Fill-14"></path>
                <path d="M97.9604045,7.87790588 C97.8282933,7.82035532 97.8036288,7.77868078 97.8036288,7.5958231 C97.8036288,7.14080514 97.8356643,6.64297864 97.8438858,6.51086751 C97.8526744,6.38641089 97.8770554,6.2951238 97.9439614,6.2951238 C98.0188055,6.2951238 98.0267435,6.36996787 98.0267435,6.43630694 C98.0267435,6.54432054 98.0596296,6.71753922 98.1013041,6.85815536 C98.2838783,7.47193347 98.7726328,7.6953317 99.2857683,7.6953317 C100.031941,7.6953317 100.396239,7.18956719 100.396239,6.75070875 C100.396239,6.34501985 100.272349,5.95577396 99.5848611,5.42591193 L99.2029862,5.12681913 C98.2923833,4.41438291 97.9779815,3.83462483 97.9779815,3.16329616 C97.9779815,2.25269325 98.7400302,1.5975241 99.8916084,1.5975241 C100.429125,1.5975241 100.776696,1.68087318 100.992723,1.73870724 C101.067001,1.75486675 101.108675,1.78038178 101.108675,1.83821584 C101.108675,1.94594595 101.075506,2.18607069 101.075506,2.83216783 C101.075506,3.01502552 101.050558,3.08079758 100.984218,3.08079758 C100.926101,3.08079758 100.90172,3.03061803 100.90172,2.93167643 C100.90172,2.85654886 100.860045,2.5999811 100.685976,2.38508789 C100.56152,2.22746173 100.321395,1.97883198 99.7833113,1.97883198 C99.1695332,1.97883198 98.7967303,2.33519184 98.7967303,2.83216783 C98.7967303,3.21290871 98.9883765,3.502646 99.6758647,4.02542053 L99.9077679,4.1994897 C100.90172,4.96947647 101.266018,5.52570403 101.266018,6.31156681 C101.266018,6.79266679 101.083444,7.36391986 100.486959,7.75373275 C100.072765,8.01823852 99.6092421,8.09364959 99.1695332,8.09364959 C98.6895672,8.09364959 98.3167643,8.03468153 97.9604045,7.87790588" id="Fill-15"></path>
                <path d="M103.606029,4.11614062 C103.606029,2.85654886 103.606029,2.62464562 103.58987,2.36042336 C103.573143,2.07890758 103.490077,1.93744094 103.307787,1.8957664 C103.216783,1.87166887 103.109053,1.86288036 103.009828,1.86288036 C102.927613,1.86288036 102.878,1.84672085 102.878,1.77981478 C102.878,1.73048573 102.942922,1.71347571 103.075884,1.71347571 C103.390285,1.71347571 103.912776,1.73842374 104.152334,1.73842374 C104.359573,1.73842374 104.848894,1.71347571 105.164147,1.71347571 C105.271593,1.71347571 105.337649,1.73048573 105.337649,1.77981478 C105.337649,1.84672085 105.288036,1.86288036 105.204971,1.86288036 C105.122189,1.86288036 105.05585,1.87166887 104.957191,1.88754489 C104.73351,1.92921943 104.667454,2.07040257 104.649594,2.36042336 C104.633718,2.62464562 104.633718,2.85654886 104.633718,4.11614062 L104.633718,5.57503308 C104.633718,6.37818938 104.633718,7.03250803 104.667454,7.38886789 C104.691835,7.61254961 104.749386,7.76138726 104.998015,7.79484029 C105.114251,7.81128331 105.296541,7.82857683 105.420431,7.82857683 C105.511718,7.82857683 105.553393,7.85324135 105.553393,7.89463239 C105.553393,7.95218295 105.487337,7.97656398 105.395766,7.97656398 C104.848894,7.97656398 104.327254,7.95218295 104.103005,7.95218295 C103.912776,7.95218295 103.390285,7.97656398 103.060008,7.97656398 C102.952277,7.97656398 102.89416,7.95218295 102.89416,7.89463239 C102.89416,7.85324135 102.927613,7.82857683 103.025988,7.82857683 C103.151578,7.82857683 103.249669,7.81128331 103.324513,7.79484029 C103.490077,7.76138726 103.540541,7.62077112 103.564638,7.38036288 C103.606029,7.03250803 103.606029,6.37818938 103.606029,5.57503308 L103.606029,4.11614062" id="Fill-16"></path>
                <path d="M109.265829,2.17728218 L108.030335,2.21045171 C107.550369,2.22746173 107.351068,2.26856927 107.227178,2.45114345 C107.144113,2.57474957 107.103005,2.67539218 107.086279,2.74173124 C107.069552,2.80721981 107.044604,2.84038934 106.994991,2.84038934 C106.936307,2.84038934 106.920431,2.7989983 106.920431,2.70827821 C106.920431,2.57474957 107.077774,1.82120582 107.0945,1.75486675 C107.119448,1.64770365 107.144113,1.5983746 107.194009,1.5983746 C107.259781,1.5983746 107.342846,1.68030618 107.550369,1.6973162 C107.79021,1.72283122 108.105746,1.73842374 108.378756,1.73842374 L111.659705,1.73842374 C112.189851,1.73842374 112.388301,1.65564166 112.455207,1.65564166 C112.513608,1.65564166 112.520979,1.70610471 112.520979,1.82971083 C112.520979,2.0040635 112.495464,2.57474957 112.495464,2.79077679 C112.489227,2.87355887 112.471083,2.92317142 112.421187,2.92317142 C112.354564,2.92317142 112.339255,2.88234738 112.330183,2.75789076 L112.323096,2.66688717 C112.305235,2.45114345 112.082404,2.21924022 111.34502,2.2027972 L110.300605,2.17728218 L110.300605,5.57503308 C110.300605,6.33679834 110.300605,6.99111699 110.341996,7.34776035 C110.366944,7.57966358 110.41769,7.76110376 110.664903,7.79484029 C110.781705,7.81185031 110.962578,7.82857683 111.088169,7.82857683 C111.179172,7.82857683 111.22113,7.85324135 111.22113,7.89463239 C111.22113,7.95218295 111.154224,7.97656398 111.062654,7.97656398 C110.515498,7.97656398 109.994141,7.95218295 109.761671,7.95218295 C109.572009,7.95218295 109.049518,7.97656398 108.718957,7.97656398 C108.61066,7.97656398 108.552542,7.95218295 108.552542,7.89463239 C108.552542,7.85324135 108.585712,7.82857683 108.684653,7.82857683 C108.80996,7.82857683 108.909752,7.81185031 108.983462,7.79484029 C109.149594,7.76110376 109.198923,7.57966358 109.223587,7.33897184 C109.265829,6.99111699 109.265829,6.33679834 109.265829,5.57503308 L109.265829,2.17728218" id="Fill-17"></path>
                <path d="M116.133056,5.83160083 C116.133056,5.38395388 116.050558,5.2025137 115.942544,4.96153846 C115.884993,4.82857683 114.77509,3.00708751 114.485069,2.57560008 C114.278397,2.26856927 114.071159,2.06246456 113.913816,1.97004347 C113.805519,1.91249291 113.665186,1.86288036 113.565111,1.86288036 C113.499338,1.86288036 113.441504,1.84672085 113.441504,1.78860329 C113.441504,1.73842374 113.499338,1.71347571 113.59828,1.71347571 C113.747968,1.71347571 114.368267,1.73842374 114.641561,1.73842374 C114.817048,1.73842374 115.156398,1.71347571 115.529201,1.71347571 C115.611416,1.71347571 115.653374,1.73842374 115.653374,1.78860329 C115.653374,1.83821584 115.59554,1.84672085 115.470799,1.87932338 C115.396239,1.8957664 115.355131,1.96182196 115.355131,2.02844453 C115.355131,2.09478359 115.396239,2.19485919 115.454073,2.31024381 C115.570025,2.55859006 116.729824,4.55528256 116.862502,4.78718579 C116.945284,4.58901909 117.989983,2.76611227 118.105084,2.50897751 C118.187866,2.32725383 118.221036,2.18607069 118.221036,2.07890758 C118.221036,1.995275 118.187866,1.9042714 118.047817,1.87166887 C117.972406,1.85494235 117.898412,1.83821584 117.898412,1.78860329 C117.898412,1.72991873 117.939236,1.71347571 118.039312,1.71347571 C118.312039,1.71347571 118.577679,1.73842374 118.818087,1.73842374 C118.999244,1.73842374 119.5464,1.71347571 119.704593,1.71347571 C119.795313,1.71347571 119.853147,1.72991873 119.853147,1.77981478 C119.853147,1.83821584 119.787091,1.86288036 119.696371,1.86288036 C119.612739,1.86288036 119.456246,1.8957664 119.330939,1.96182196 C119.157721,2.04517105 119.066717,2.14467964 118.884143,2.36864487 C118.611416,2.7003402 117.451049,4.64656965 117.301928,5.0029295 C117.176904,5.3008883 117.176904,5.55830656 117.176904,5.83160083 L117.176904,6.51115101 C117.176904,6.64297864 117.176904,6.99111699 117.202136,7.34010584 C117.218862,7.57966358 117.293706,7.76110376 117.542336,7.79484029 C117.658288,7.81185031 117.840578,7.82857683 117.95653,7.82857683 C118.047817,7.82857683 118.088358,7.85324135 118.088358,7.89463239 C118.088358,7.95218295 118.022302,7.97798148 117.914288,7.97798148 C117.392931,7.97798148 116.870724,7.95218295 116.647326,7.95218295 C116.441221,7.95218295 115.917596,7.97798148 115.611416,7.97798148 C115.49518,7.97798148 115.429692,7.96068796 115.429692,7.89463239 C115.429692,7.85324135 115.470799,7.82857683 115.562087,7.82857683 C115.678322,7.82857683 115.777547,7.81185031 115.851257,7.79484029 C116.017955,7.76110376 116.091949,7.57966358 116.108675,7.34010584 C116.133056,6.99111699 116.133056,6.64297864 116.133056,6.51115101 L116.133056,5.83160083" id="Fill-18"></path>
            </g>
            <g id="Subtitle" transform="translate(15.000000, 56.118557)">
                <path d="M1.37214137,2.39160839 C1.37214137,1.56463806 1.37214137,1.41154791 1.36108486,1.23776224 C1.35059535,1.05235305 1.2961633,0.95993196 1.17680968,0.933282933 C1.11670762,0.916839917 1.04526555,0.910602911 0.98034398,0.910602911 C0.926195426,0.910602911 0.893592894,0.9003969 0.893592894,0.855887356 C0.893592894,0.824135324 0.936684937,0.813078813 1.02343602,0.813078813 C1.23095823,0.813078813 1.57371007,0.82980533 1.73133623,0.82980533 C1.86769987,0.82980533 2.18805519,0.813078813 2.39472689,0.813078813 C2.46560197,0.813078813 2.50897751,0.824135324 2.50897751,0.855887356 C2.50897751,0.9003969 2.47637498,0.910602911 2.42250992,0.910602911 C2.36722737,0.910602911 2.32385182,0.916839917 2.25921376,0.927612928 C2.11207711,0.955112455 2.06870157,1.04725005 2.05821206,1.23776224 C2.04687205,1.41154791 2.04687205,1.56463806 2.04687205,2.39160839 L2.04687205,3.34927235 C2.04687205,3.87629938 2.04687205,4.30665281 2.06870157,4.54025704 C2.08514459,4.68711019 2.12228312,4.78520129 2.28586279,4.80731431 C2.36240786,4.81808732 2.48232848,4.82857683 2.56340956,4.82857683 C2.62351162,4.82857683 2.64987715,4.84501985 2.64987715,4.87280287 C2.64987715,4.90994141 2.60678511,4.92638443 2.54725005,4.92638443 C2.18805519,4.92638443 1.84558685,4.90994141 1.6984502,4.90994141 C1.57371007,4.90994141 1.23095823,4.92638443 1.01266301,4.92638443 C0.942354942,4.92638443 0.904082404,4.90994141 0.904082404,4.87280287 C0.904082404,4.84501985 0.926195426,4.82857683 0.991400491,4.82857683 C1.07304857,4.82857683 1.13768664,4.81808732 1.18701569,4.80731431 C1.2961633,4.78520129 1.32961633,4.69192969 1.34492534,4.53543754 C1.37214137,4.30665281 1.37214137,3.87629938 1.37214137,3.34927235 L1.37214137,2.39160839" id="Fill-19"></path>
                <path d="M4.41353241,4.18616519 C4.42373842,4.61084861 4.4951805,4.75203175 4.6037611,4.79087129 C4.6964657,4.82290682 4.7996598,4.82857683 4.88726139,4.82857683 C4.94679645,4.82857683 4.97968248,4.83963334 4.97968248,4.87280287 C4.97968248,4.91617842 4.93035343,4.92638443 4.85409185,4.92638443 C4.500567,4.92638443 4.28340578,4.90994141 4.17879418,4.90994141 C4.13059913,4.90994141 3.87516538,4.92638443 3.59166509,4.92638443 C3.52050652,4.92638443 3.47174447,4.92128142 3.47174447,4.87280287 C3.47174447,4.83963334 3.5046305,4.82857683 3.55849556,4.82857683 C3.63022113,4.82857683 3.72802873,4.82290682 3.8042903,4.8013608 C3.94547345,4.75826876 3.96758647,4.6003591 3.97240597,4.12634663 L4.02230202,0.905499905 C4.02230202,0.796919297 4.03789454,0.720657721 4.09232659,0.720657721 C4.15186165,0.720657721 4.2006237,0.790965791 4.29332829,0.889340389 C4.35910036,0.95993196 5.18635419,1.84728785 5.98015498,2.63570214 C6.35012285,3.00623701 7.08467208,3.78869779 7.17737668,3.87629938 L7.2043092,3.87629938 L7.14959365,1.43309393 C7.14477414,1.1019656 7.0954451,0.998487998 6.96475146,0.943772444 C6.88367038,0.910602911 6.75354375,0.910602911 6.67699868,0.910602911 C6.61122661,0.910602911 6.58968059,0.895010395 6.58968059,0.862407862 C6.58968059,0.819032319 6.64978265,0.813078813 6.73143073,0.813078813 C7.01436401,0.813078813 7.27518428,0.82980533 7.38915139,0.82980533 C7.44896995,0.82980533 7.65649216,0.813078813 7.92298242,0.813078813 C7.99329049,0.813078813 8.04772255,0.819032319 8.04772255,0.862407862 C8.04772255,0.895010395 8.01540352,0.910602911 7.94963145,0.910602911 C7.89491589,0.910602911 7.85154035,0.910602911 7.78661879,0.927612928 C7.63352863,0.970704971 7.59072009,1.08552259 7.58533359,1.39000189 L7.52523153,4.82290682 C7.52523153,4.94254394 7.503969,4.99215649 7.45520696,4.99215649 C7.39453789,4.99215649 7.32904933,4.93262143 7.27036477,4.87280287 C6.92676243,4.54621055 6.23048573,3.83349083 5.66461916,3.27329427 C5.07153657,2.68503119 4.46824797,2.00519751 4.36987337,1.9017199 L4.35343035,1.9017199 L4.41353241,4.18616519" id="Fill-21"></path>
                <path d="M12.1715177,1.11869212 L11.3612739,1.14023814 C11.045171,1.15101115 10.9150444,1.17851068 10.8336798,1.2981478 C10.7789643,1.37979588 10.7511813,1.44471744 10.7412587,1.48809299 C10.7290682,1.53146853 10.7137592,1.55301455 10.6811567,1.55301455 C10.6434511,1.55301455 10.6315441,1.52608203 10.6315441,1.46626347 C10.6315441,1.37979588 10.7350217,0.884237384 10.7463617,0.840578341 C10.7625213,0.76998677 10.7789643,0.737384237 10.8112833,0.737384237 C10.8552259,0.737384237 10.9099414,0.791816292 11.045171,0.802589303 C11.2027972,0.818181818 11.4097524,0.829238329 11.5900586,0.829238329 L13.7438102,0.829238329 C13.9187299,0.829238329 14.0378,0.813362313 14.1197316,0.802589303 C14.2013797,0.785862786 14.2444717,0.775089775 14.2665848,0.775089775 C14.3045738,0.775089775 14.3099603,0.807408807 14.3099603,0.889340389 C14.3099603,1.004158 14.2935173,1.37979588 14.2935173,1.52012852 C14.2881308,1.57456057 14.2773578,1.60801361 14.2444717,1.60801361 C14.2013797,1.60801361 14.1911737,1.58136458 14.1849367,1.498866 L14.1798337,1.43933094 C14.1682102,1.2981478 14.0210735,1.14590815 13.5365715,1.13456813 L12.8516349,1.11869212 L12.8516349,3.34927235 C12.8516349,3.84851635 12.8516349,4.27858628 12.8794179,4.51275751 C12.8952939,4.66556417 12.9278964,4.78520129 13.0911926,4.80646381 C13.1674542,4.81808732 13.2876583,4.82857683 13.3684559,4.82857683 C13.4285579,4.82857683 13.456341,4.84530335 13.456341,4.87223587 C13.456341,4.91050841 13.4118314,4.92638443 13.3522964,4.92638443 C12.9936685,4.92638443 12.6506332,4.91050841 12.49811,4.91050841 C12.3733699,4.91050841 12.030051,4.92638443 11.8128898,4.92638443 C11.7425817,4.92638443 11.7040257,4.91050841 11.7040257,4.87223587 C11.7040257,4.84530335 11.7261387,4.82857683 11.7907768,4.82857683 C11.8724249,4.82857683 11.9373464,4.81808732 11.9866755,4.80646381 C12.0952561,4.78520129 12.1284256,4.66556417 12.1451521,4.50737101 C12.1715177,4.27858628 12.1715177,3.84851635 12.1715177,3.34927235 L12.1715177,1.11869212" id="Fill-23"></path>
                <path d="M18.3793234,2.54328104 C18.3954829,2.54328104 18.4122094,2.53279153 18.4122094,2.50557551 L18.4122094,2.39160839 C18.4122094,1.56463806 18.4122094,1.41154791 18.4014364,1.23719524 C18.3906634,1.05235305 18.3472878,0.966735967 18.1672652,0.927612928 C18.1241731,0.916839917 18.0314685,0.910602911 17.95464,0.910602911 C17.8951049,0.910602911 17.8630694,0.9003969 17.8630694,0.862407862 C17.8630694,0.824135324 17.9004914,0.813645814 17.9764695,0.813645814 C18.2707428,0.813645814 18.6132111,0.82980533 18.7611983,0.82980533 C18.8913249,0.82980533 19.2335097,0.813645814 19.4461349,0.813645814 C19.52268,0.813645814 19.5598186,0.824135324 19.5598186,0.862407862 C19.5598186,0.9003969 19.527216,0.910602911 19.462578,0.910602911 C19.4189189,0.910602911 19.3698734,0.916839917 19.3052353,0.927612928 C19.1572482,0.955112455 19.1138726,1.04725005 19.1030996,1.23719524 C19.0923266,1.41154791 19.0923266,1.56463806 19.0923266,2.39160839 L19.0923266,3.34927235 C19.0923266,3.84908335 19.0923266,4.27915328 19.1198261,4.51332451 C19.1354186,4.66556417 19.1685882,4.78520129 19.3318843,4.80731431 C19.4081459,4.81808732 19.527216,4.82886033 19.6097146,4.82886033 C19.6692497,4.82886033 19.6961822,4.84501985 19.6961822,4.87280287 C19.6961822,4.90994141 19.6528067,4.92638443 19.5878851,4.92638443 C19.2335097,4.92638443 18.8913249,4.90994141 18.7390852,4.90994141 C18.6132111,4.90994141 18.2707428,4.92638443 18.0595351,4.92638443 C17.9827065,4.92638443 17.9444339,4.90994141 17.9444339,4.87280287 C17.9444339,4.84501985 17.9662635,4.82886033 18.0314685,4.82886033 C18.1134001,4.82886033 18.1780382,4.81808732 18.2273672,4.80731431 C18.3359478,4.78520129 18.3628804,4.66556417 18.3847099,4.50737101 C18.4122094,4.27915328 18.4122094,3.84908335 18.4122094,3.34927235 L18.4122094,2.87072387 C18.4122094,2.84804385 18.3954829,2.83727084 18.3793234,2.83727084 L16.3009828,2.83727084 C16.2848233,2.83727084 16.2683803,2.84350784 16.2683803,2.87072387 L16.2683803,3.34927235 C16.2683803,3.84908335 16.2683803,4.27915328 16.2961633,4.51332451 C16.3117558,4.66556417 16.3446418,4.78520129 16.507938,4.80731431 C16.5841996,4.81808732 16.7038367,4.82886033 16.7852013,4.82886033 C16.8453033,4.82886033 16.8725194,4.84501985 16.8725194,4.87280287 C16.8725194,4.90994141 16.8294273,4.92638443 16.7630883,4.92638443 C16.4092799,4.92638443 16.0668116,4.90994141 15.9148554,4.90994141 C15.7903988,4.90994141 15.4467964,4.92638443 15.2296352,4.92638443 C15.1584767,4.92638443 15.1210546,4.90994141 15.1210546,4.87280287 C15.1210546,4.84501985 15.1423171,4.82886033 15.2072387,4.82886033 C15.2894538,4.82886033 15.3543754,4.81808732 15.4034209,4.80731431 C15.512285,4.78520129 15.5397845,4.66556417 15.5616141,4.50737101 C15.5885466,4.27915328 15.5885466,3.84908335 15.5885466,3.34927235 L15.5885466,2.39160839 C15.5885466,1.56463806 15.5885466,1.41154791 15.5774901,1.23719524 C15.5667171,1.05235305 15.523625,0.966735967 15.3433188,0.927612928 C15.2996598,0.916839917 15.2072387,0.910602911 15.1315441,0.910602911 C15.0717256,0.910602911 15.038556,0.9003969 15.038556,0.862407862 C15.038556,0.824135324 15.0768286,0.813645814 15.1530902,0.813645814 C15.4467964,0.813645814 15.7903988,0.82980533 15.9366849,0.82980533 C16.0668116,0.82980533 16.4092799,0.813645814 16.6219051,0.813645814 C16.6981667,0.813645814 16.7361557,0.824135324 16.7361557,0.862407862 C16.7361557,0.9003969 16.7038367,0.910602911 16.6383481,0.910602911 C16.5952561,0.910602911 16.5456435,0.916839917 16.4804385,0.927612928 C16.3344358,0.955112455 16.2902098,1.04725005 16.2794368,1.23719524 C16.2683803,1.41154791 16.2683803,1.56463806 16.2683803,2.39160839 L16.2683803,2.50557551 C16.2683803,2.53279153 16.2848233,2.54328104 16.3009828,2.54328104 L18.3793234,2.54328104" id="Fill-24"></path>
                <path d="M21.1542242,2.39160839 C21.1542242,1.56463806 21.1542242,1.41154791 21.1434511,1.23776224 C21.1326781,1.05235305 21.0887356,0.966735967 20.9098469,0.927612928 C20.8656209,0.916839917 20.7737668,0.910602911 20.6980722,0.910602911 C20.6376866,0.910602911 20.6042336,0.9003969 20.6042336,0.862407862 C20.6042336,0.824135324 20.6430731,0.813078813 20.7238707,0.813078813 C21.0127575,0.813078813 21.3560764,0.82980533 21.507182,0.82980533 C21.6818182,0.82980533 22.7650728,0.82980533 22.8679834,0.824135324 C22.972028,0.813078813 23.0576451,0.802589303 23.1013041,0.790965791 C23.1293706,0.785862786 23.1614062,0.76970327 23.1891892,0.76970327 C23.2164052,0.76970327 23.2215082,0.790965791 23.2215082,0.819032319 C23.2215082,0.855887356 23.1945757,0.921942922 23.1775657,1.17255717 C23.1727462,1.22698923 23.1614062,1.46626347 23.1509167,1.53175203 C23.1460971,1.55953506 23.1344736,1.59157059 23.0962011,1.59157059 C23.0576451,1.59157059 23.047439,1.56463806 23.047439,1.51474201 C23.047439,1.47703648 23.042336,1.38461538 23.0142695,1.31969382 C22.9768475,1.22103572 22.9226989,1.15611416 22.6502552,1.12351162 C22.5581176,1.11273861 21.9868645,1.1019656 21.8777169,1.1019656 C21.8507844,1.1019656 21.8405783,1.11869212 21.8405783,1.15611416 L21.8405783,2.53279153 C21.8405783,2.57106407 21.8451143,2.59261009 21.8777169,2.59261009 C21.997921,2.59261009 22.6233226,2.59261009 22.7486297,2.58155358 C22.8787564,2.57106407 22.960688,2.55462105 23.0097335,2.500189 C23.047439,2.45709696 23.0692686,2.42959743 23.0962011,2.42959743 C23.1177471,2.42959743 23.1344736,2.44093744 23.1344736,2.47268947 C23.1344736,2.50557551 23.1075411,2.59261009 23.0908146,2.87072387 C23.0797581,2.97902098 23.0692686,3.1961822 23.0692686,3.23445473 C23.0692686,3.27811378 23.0692686,3.33764884 23.0205065,3.33764884 C22.982234,3.33764884 22.972028,3.31610282 22.972028,3.28917029 C22.9660745,3.23445473 22.9660745,3.16414666 22.9499149,3.09327159 C22.9226989,2.98412398 22.8464373,2.9024759 22.6448686,2.88178038 C22.5416745,2.87072387 22.0033075,2.86505387 21.8728974,2.86505387 C21.8451143,2.86505387 21.8405783,2.88659989 21.8405783,2.91920242 L21.8405783,3.34927235 C21.8405783,3.53354753 21.8343413,4.03449253 21.8405783,4.19240219 C21.8507844,4.56775657 21.9378189,4.64855415 22.4923455,4.64855415 C22.6338121,4.64855415 22.8628804,4.64855415 23.0034965,4.58363258 C23.1460971,4.51842752 23.2110187,4.4038934 23.2487242,4.18134568 C23.2600643,4.12152712 23.2708373,4.0991306 23.3093933,4.0991306 C23.3524854,4.0991306 23.3524854,4.14307314 23.3524854,4.1975052 C23.3524854,4.32309582 23.3093933,4.69192969 23.2816103,4.8013608 C23.2433377,4.94254394 23.1945757,4.94254394 22.9876205,4.94254394 C22.1663202,4.94254394 21.8020223,4.90994141 21.4808165,4.90994141 C21.3560764,4.90994141 21.0127575,4.92638443 20.7953128,4.92638443 C20.7238707,4.92638443 20.6867322,4.90994141 20.6867322,4.87280287 C20.6867322,4.84501985 20.7082782,4.82857683 20.7737668,4.82857683 C20.8548479,4.82857683 20.9200529,4.81808732 20.969382,4.80731431 C21.0782461,4.78520129 21.1057456,4.66556417 21.1267246,4.50737101 C21.1542242,4.27915328 21.1542242,3.84993385 21.1542242,3.34927235 L21.1542242,2.39160839" id="Fill-25"></path>
                <path d="M26.8610849,4.40984691 C26.3283878,3.94150444 26.1866377,3.33254583 26.1866377,2.8046683 C26.1866377,2.43526744 26.3011718,1.79313929 26.8236628,1.31374031 C27.2148932,0.955112455 27.7319977,0.737384237 28.542525,0.737384237 C28.8801739,0.737384237 29.0811756,0.758930259 29.3320733,0.790965791 C29.5384615,0.819032319 29.7119637,0.867510868 29.8755434,0.884237384 C29.9350784,0.889340389 29.957475,0.917123417 29.957475,0.94972595 C29.957475,0.993101493 29.9413154,1.05859006 29.9296919,1.24825175 C29.9192024,1.42827443 29.9245889,1.72736723 29.9135324,1.83651484 C29.9075789,1.91872992 29.8968059,1.96210546 29.8480438,1.96210546 C29.8055188,1.96210546 29.7944623,1.91872992 29.7944623,1.84190134 C29.7882253,1.67236817 29.7179172,1.48298998 29.5818371,1.34123984 C29.4020979,1.15101115 28.978265,1.004158 28.47732,1.004158 C28.0044415,1.004158 27.6940087,1.12351162 27.4541675,1.34123984 C27.0572671,1.7049707 26.9537895,2.22264222 26.9537895,2.75051975 C26.9537895,4.04469854 27.9386694,4.68711019 28.6675487,4.68711019 C29.1517672,4.68711019 29.4451899,4.63267813 29.6632017,4.38234738 C29.7559063,4.27915328 29.8267813,4.12152712 29.8480438,4.02315252 C29.8650539,3.93640144 29.8755434,3.91428841 29.9192024,3.91428841 C29.957475,3.91428841 29.967681,3.95256095 29.967681,3.99622 C29.967681,4.06114156 29.9027594,4.53543754 29.8480438,4.72027972 C29.8211113,4.81213381 29.7995653,4.83963334 29.7065772,4.87733888 C29.4885655,4.96465696 29.0763561,5.0029295 28.7276507,5.0029295 C27.982612,5.0029295 27.3563599,4.83963334 26.8610849,4.40984691" id="Fill-27"></path>
                <path d="M31.4101304,2.39160839 C31.4101304,1.56463806 31.4101304,1.41154791 31.3987904,1.23776224 C31.3885844,1.05235305 31.3338688,0.95993196 31.2145152,0.933282933 C31.1538462,0.916839917 31.0835381,0.910602911 31.0180495,0.910602911 C30.9641845,0.910602911 30.9310149,0.9003969 30.9310149,0.855887356 C30.9310149,0.824135324 30.974107,0.813078813 31.0619921,0.813078813 C31.2686638,0.813078813 31.6111321,0.82980533 31.7693253,0.82980533 C31.9039879,0.82980533 32.2260442,0.813078813 32.4329994,0.813078813 C32.503024,0.813078813 32.5463995,0.824135324 32.5463995,0.855887356 C32.5463995,0.9003969 32.5146475,0.910602911 32.4602155,0.910602911 C32.4060669,0.910602911 32.3615574,0.916839917 32.2966358,0.927612928 C32.1497826,0.955112455 32.1058401,1.04725005 32.0956341,1.23776224 C32.0840106,1.41154791 32.0840106,1.56463806 32.0840106,2.39160839 L32.0840106,3.34927235 C32.0840106,3.87629938 32.0840106,4.30665281 32.1058401,4.54025704 C32.1234171,4.68711019 32.1605557,4.78520129 32.3235683,4.80731431 C32.4001134,4.81808732 32.520034,4.82857683 32.6011151,4.82857683 C32.6612172,4.82857683 32.6881497,4.84501985 32.6881497,4.87280287 C32.6881497,4.90994141 32.6447741,4.92638443 32.5858061,4.92638443 C32.2260442,4.92638443 31.8830089,4.90994141 31.7361557,4.90994141 C31.6111321,4.90994141 31.2686638,4.92638443 31.0506521,4.92638443 C30.9806275,4.92638443 30.9412209,4.90994141 30.9412209,4.87280287 C30.9412209,4.84501985 30.9641845,4.82857683 31.0288225,4.82857683 C31.1107541,4.82857683 31.1756757,4.81808732 31.2252882,4.80731431 C31.3338688,4.78520129 31.3661879,4.69192969 31.3826309,4.53543754 C31.4101304,4.30665281 31.4101304,3.87629938 31.4101304,3.34927235 L31.4101304,2.39160839" id="Fill-29"></path>
                <path d="M34.8702514,1.11869212 L34.0594406,1.14023814 C33.7439047,1.15101115 33.6132111,1.17851068 33.5324135,1.2981478 C33.477698,1.37979588 33.4496314,1.44471744 33.4391419,1.48809299 C33.4280854,1.53146853 33.4119259,1.55301455 33.3793234,1.55301455 C33.3413343,1.55301455 33.3305613,1.52608203 33.3305613,1.46626347 C33.3305613,1.37979588 33.4334719,0.884237384 33.4445284,0.840578341 C33.461255,0.76998677 33.477698,0.737384237 33.50945,0.737384237 C33.5539596,0.737384237 33.6078246,0.791816292 33.7439047,0.802589303 C33.9018144,0.818181818 34.1082026,0.829238329 34.2876583,0.829238329 L36.4419769,0.829238329 C36.6166131,0.829238329 36.7365337,0.813362313 36.8176148,0.802589303 C36.8992629,0.785862786 36.9423549,0.775089775 36.9653185,0.775089775 C37.003024,0.775089775 37.0078435,0.807408807 37.0078435,0.889340389 C37.0078435,1.004158 36.992251,1.37979588 36.992251,1.52012852 C36.9874315,1.57456057 36.975808,1.60801361 36.9423549,1.60801361 C36.8992629,1.60801361 36.8884899,1.58136458 36.8822529,1.498866 L36.8777169,1.43933094 C36.8669439,1.2981478 36.7200907,1.14590815 36.2358722,1.13456813 L35.5500851,1.11869212 L35.5500851,3.34927235 C35.5500851,3.84851635 35.5500851,4.27858628 35.5767341,4.51275751 C35.5934606,4.66556417 35.6266301,4.78520129 35.7893593,4.80646381 C35.8661879,4.81808732 35.9855415,4.82857683 36.0671896,4.82857683 C36.1264411,4.82857683 36.1542242,4.84530335 36.1542242,4.87223587 C36.1542242,4.91050841 36.1105651,4.92638443 36.0504631,4.92638443 C35.6918352,4.92638443 35.3490833,4.91050841 35.1965602,4.91050841 C35.0712531,4.91050841 34.7285012,4.92638443 34.5110565,4.92638443 C34.4404649,4.92638443 34.4027594,4.91050841 34.4027594,4.87223587 C34.4027594,4.84530335 34.4240219,4.82857683 34.489794,4.82857683 C34.5705916,4.82857683 34.6357966,4.81808732 34.6848422,4.80646381 C34.7937063,4.78520129 34.8263088,4.66556417 34.8424683,4.50737101 C34.8702514,4.27858628 34.8702514,3.84851635 34.8702514,3.34927235 L34.8702514,1.11869212" id="Fill-30"></path>
                <path d="M38.9226044,3.51710452 C38.9226044,3.22424872 38.8687394,3.1043281 38.7975808,2.94641845 C38.7595918,2.85995086 38.030429,1.66187866 37.8396333,1.37979588 C37.7041202,1.17794368 37.5686071,1.04186354 37.464279,0.981477981 C37.3939709,0.943772444 37.3009828,0.910602911 37.2363447,0.910602911 C37.1924022,0.910602911 37.1546967,0.9003969 37.1546967,0.862407862 C37.1546967,0.829238329 37.1924022,0.813078813 37.2584578,0.813078813 C37.3556984,0.813078813 37.7633718,0.829238329 37.9433944,0.829238329 C38.0573616,0.829238329 38.2807598,0.813078813 38.525137,0.813078813 C38.5804196,0.813078813 38.6073521,0.829238329 38.6073521,0.862407862 C38.6073521,0.895293895 38.5696466,0.9003969 38.487148,0.921942922 C38.4383859,0.933282933 38.4111699,0.976374976 38.4111699,1.02003402 C38.4111699,1.06369306 38.4383859,1.12861463 38.4766585,1.20544321 C38.5529201,1.36902287 39.3144018,2.67907768 39.4017199,2.83160083 C39.456152,2.7023247 40.1416556,1.504536 40.2176337,1.33613684 C40.2717823,1.21621622 40.2927613,1.12351162 40.2927613,1.05235305 C40.2927613,0.998487998 40.2717823,0.938669439 40.1796447,0.917123417 C40.1308826,0.905499905 40.0815536,0.895293895 40.0815536,0.862407862 C40.0815536,0.824135324 40.1084861,0.813078813 40.1739747,0.813078813 C40.3531469,0.813078813 40.527783,0.829238329 40.6856927,0.829238329 C40.8056133,0.829238329 41.1636742,0.813078813 41.2677188,0.813078813 C41.3272538,0.813078813 41.3663769,0.824135324 41.3663769,0.855887356 C41.3663769,0.895293895 41.3224343,0.910602911 41.2617653,0.910602911 C41.2076167,0.910602911 41.1047061,0.933282933 41.021924,0.976374976 C40.9088074,1.03080703 40.8487053,1.0968626 40.7287847,1.24286524 C40.549329,1.46087696 39.7875638,2.73946324 39.6897562,2.97335097 C39.6081081,3.16953317 39.6081081,3.33764884 39.6081081,3.51710452 L39.6081081,3.96305046 C39.6081081,4.05093555 39.6081081,4.27915328 39.6248346,4.50737101 C39.6358911,4.66556417 39.6843697,4.78520129 39.8473823,4.80731431 C39.9236439,4.81808732 40.043281,4.82857683 40.1201096,4.82857683 C40.1796447,4.82857683 40.2065772,4.84501985 40.2065772,4.87223587 C40.2065772,4.90994141 40.1634852,4.92638443 40.0931771,4.92638443 C39.7498582,4.92638443 39.4068229,4.90994141 39.2602533,4.90994141 C39.1236061,4.90994141 38.7814213,4.92638443 38.5804196,4.92638443 C38.5038745,4.92638443 38.4602155,4.91617842 38.4602155,4.87223587 C38.4602155,4.84501985 38.487148,4.82857683 38.5469665,4.82857683 C38.6237951,4.82857683 38.6881497,4.81808732 38.7377622,4.80731431 C38.8466263,4.78520129 38.8956719,4.66556417 38.9058779,4.50737101 C38.9226044,4.27915328 38.9226044,4.05093555 38.9226044,3.96305046 L38.9226044,3.51710452" id="Fill-31"></path>
                <path d="M43.5530146,2.87072387 C43.5530146,1.93999244 44.1676432,0.737384237 45.8000378,0.737384237 C47.1543187,0.737384237 47.998299,1.52608203 47.998299,2.77234927 C47.998299,4.01804952 47.1271026,5.0029295 45.7453222,5.0029295 C44.1840862,5.0029295 43.5530146,3.83349083 43.5530146,2.87072387 M47.2365337,2.97335097 C47.2365337,1.75486675 46.5343035,0.998487998 45.6421281,0.998487998 C45.015876,0.998487998 44.3034398,1.34690985 44.3034398,2.7014742 C44.3034398,3.83349083 44.9296919,4.73048573 45.9743905,4.73048573 C46.3545644,4.73048573 47.2365337,4.54536005 47.2365337,2.97335097" id="Fill-33"></path>
                <path d="M50.0987526,3.34927235 C50.0987526,3.87147987 50.0987526,4.27858628 50.1268191,4.50737101 C50.1418446,4.66556417 50.1752977,4.78520129 50.3383103,4.80646381 C50.4145719,4.81808732 50.534776,4.82857683 50.6104706,4.82857683 C50.6804952,4.82857683 50.7031752,4.84530335 50.7031752,4.87223587 C50.7031752,4.91050841 50.6657532,4.92638443 50.5832546,4.92638443 C50.2407862,4.92638443 49.8986014,4.91050841 49.7562843,4.91050841 C49.6142506,4.91050841 49.2717823,4.92638443 49.0659611,4.92638443 C48.9891325,4.92638443 48.9505765,4.91589492 48.9505765,4.87223587 C48.9505765,4.84530335 48.97354,4.82857683 49.033075,4.82857683 C49.1144396,4.82857683 49.1793612,4.81808732 49.2278397,4.80646381 C49.3372708,4.78520129 49.3642034,4.66556417 49.3865999,4.50737101 C49.4132489,4.27858628 49.4132489,3.87147987 49.4132489,3.34927235 L49.4132489,2.39160839 C49.4132489,1.56378756 49.4132489,1.41154791 49.4027594,1.23776224 C49.3917029,1.05235305 49.3480438,0.965885466 49.1685882,0.927612928 C49.1249291,0.917123417 49.033075,0.910602911 48.9568135,0.910602911 C48.9018144,0.910602911 48.8641089,0.9003969 48.8641089,0.867510868 C48.8641089,0.824135324 48.9074844,0.813362313 48.9891325,0.813362313 C49.2717823,0.813362313 49.6142506,0.829238329 49.7732943,0.829238329 C49.979399,0.829238329 51.0847666,0.829238329 51.2086562,0.824135324 C51.3124173,0.818181818 51.3776224,0.818181818 51.4329049,0.802589303 C51.46409,0.791816292 51.4921565,0.76998677 51.5193725,0.76998677 C51.5409185,0.76998677 51.5570781,0.791816292 51.5570781,0.818181818 C51.5570781,0.856737857 51.530429,0.921942922 51.513986,1.06369306 C51.5085995,1.11869212 51.497543,1.43933094 51.4859195,1.504536 C51.480533,1.54791155 51.470327,1.58136458 51.4329049,1.58136458 C51.3940654,1.58136458 51.3838594,1.55301455 51.3776224,1.49291249 C51.3776224,1.44982045 51.3776224,1.36335286 51.3450198,1.28652429 C51.3073143,1.21054621 51.1922132,1.12861463 50.985825,1.12351162 L50.1477981,1.10706861 C50.1151956,1.10706861 50.0987526,1.12351162 50.0987526,1.18361368 L50.0987526,2.54384804 C50.0987526,2.57645058 50.1044226,2.59261009 50.1364581,2.59261009 L50.8333018,2.58694009 C50.9262899,2.58694009 51.0014175,2.58694009 51.0779626,2.58155358 C51.1822907,2.57645058 51.2577018,2.55462105 51.3124173,2.48402948 C51.3399168,2.45114345 51.3512569,2.42959743 51.3838594,2.42959743 C51.4048384,2.42959743 51.4161784,2.44547345 51.4161784,2.47807598 C51.4161784,2.51124551 51.3883954,2.64732565 51.3728029,2.81544132 C51.3611794,2.92402192 51.3512569,3.17463617 51.3512569,3.21290871 C51.3512569,3.26167076 51.3512569,3.31610282 51.2959743,3.31610282 C51.2630883,3.31610282 51.2520318,3.27811378 51.2520318,3.24012474 C51.2520318,3.2024192 51.2409752,3.13636364 51.2197127,3.07115857 C51.1922132,2.9951805 51.1114156,2.8970894 50.9424494,2.87554338 C50.8069363,2.85853336 50.2294462,2.85853336 50.1364581,2.85853336 C50.1098091,2.85853336 50.0987526,2.86987337 50.0987526,2.90814591 L50.0987526,3.34927235" id="Fill-34"></path>
                <path d="M55.2896428,4.18616519 C55.3006993,4.61084861 55.3712909,4.75203175 55.480155,4.79087129 C55.5722926,4.82290682 55.6749197,4.82857683 55.7630883,4.82857683 C55.8231903,4.82857683 55.8549424,4.83963334 55.8549424,4.87280287 C55.8549424,4.91617842 55.8061803,4.92638443 55.7304857,4.92638443 C55.3763939,4.92638443 55.1586657,4.90994141 55.0551881,4.90994141 C55.006993,4.90994141 54.7501418,4.92638443 54.4683425,4.92638443 C54.3969004,4.92638443 54.3481383,4.92128142 54.3481383,4.87280287 C54.3481383,4.83963334 54.3813079,4.82857683 54.4351729,4.82857683 C54.506048,4.82857683 54.6047061,4.82290682 54.6792667,4.8013608 C54.8207333,4.75826876 54.8425628,4.6003591 54.8493668,4.12634663 L54.8981289,0.905499905 C54.8981289,0.796919297 54.9140049,0.720657721 54.969004,0.720657721 C55.0276885,0.720657721 55.0775846,0.790965791 55.1702892,0.889340389 C55.2346437,0.95993196 56.0616141,1.84728785 56.8565489,2.63570214 C57.2265167,3.00623701 57.9602155,3.78869779 58.0532036,3.87629938 L58.0801361,3.87629938 L58.0265545,1.43309393 C58.0208845,1.1019656 57.972406,0.998487998 57.8414288,0.943772444 C57.7589303,0.910602911 57.6290871,0.910602911 57.5528256,0.910602911 C57.487337,0.910602911 57.4655075,0.895010395 57.4655075,0.862407862 C57.4655075,0.819032319 57.525326,0.813078813 57.6075411,0.813078813 C57.8899074,0.813078813 58.1512947,0.82980533 58.2658288,0.82980533 C58.3256473,0.82980533 58.531752,0.813078813 58.7988093,0.813078813 C58.8696844,0.813078813 58.9229824,0.819032319 58.9229824,0.862407862 C58.9229824,0.895010395 58.8912304,0.910602911 58.8254583,0.910602911 C58.7718768,0.910602911 58.7282177,0.910602911 58.6618787,0.927612928 C58.510206,0.970704971 58.4673975,1.08552259 58.4622945,1.39000189 L58.4007749,4.82290682 C58.4007749,4.94254394 58.3792289,4.99215649 58.3307503,4.99215649 C58.2706483,4.99215649 58.2057267,4.93262143 58.1464751,4.87280287 C57.8034398,4.54621055 57.1068796,3.83349083 56.540446,3.27329427 C55.9473634,2.68503119 55.3437913,2.00519751 55.2462672,1.9017199 L55.2298242,1.9017199 L55.2896428,4.18616519" id="Fill-35"></path>
                <path d="M60.4153279,2.39160839 C60.4153279,1.56463806 60.4153279,1.41154791 60.4039879,1.23776224 C60.3932149,1.05235305 60.3492723,0.966735967 60.1698167,0.927612928 C60.1255906,0.916839917 60.032886,0.910602911 59.9571915,0.910602911 C59.8976564,0.910602911 59.8659044,0.9003969 59.8659044,0.862407862 C59.8659044,0.824135324 59.9027594,0.813078813 59.985258,0.813078813 C60.2730108,0.813078813 60.6163296,0.82980533 60.7677188,0.82980533 C60.9423549,0.82980533 62.025326,0.82980533 62.1285201,0.824135324 C62.2311472,0.813078813 62.3190323,0.802589303 62.3621244,0.790965791 C62.3896239,0.785862786 62.4227934,0.76970327 62.4494424,0.76970327 C62.4772255,0.76970327 62.4828955,0.790965791 62.4828955,0.819032319 C62.4828955,0.855887356 62.454829,0.921942922 62.4389529,1.17255717 C62.4335664,1.22698923 62.4227934,1.46626347 62.4111699,1.53175203 C62.4054999,1.55953506 62.3947269,1.59157059 62.3567379,1.59157059 C62.3190323,1.59157059 62.3079758,1.56463806 62.3079758,1.51474201 C62.3079758,1.47703648 62.3031563,1.38461538 62.2753733,1.31969382 C62.2365337,1.22103572 62.1829522,1.15611416 61.9102249,1.12351162 C61.8192213,1.11273861 61.2479682,1.1019656 61.1385371,1.1019656 C61.1107541,1.1019656 61.0994141,1.11869212 61.0994141,1.15611416 L61.0994141,2.53279153 C61.0994141,2.57106407 61.1053676,2.59261009 61.1385371,2.59261009 C61.2578908,2.59261009 61.8832924,2.59261009 62.00945,2.58155358 C62.1392931,2.57106407 62.2212247,2.55462105 62.2702703,2.500189 C62.3079758,2.45709696 62.3298053,2.42959743 62.3567379,2.42959743 C62.3782839,2.42959743 62.3947269,2.44093744 62.3947269,2.47268947 C62.3947269,2.50557551 62.3672274,2.59261009 62.3513514,2.87072387 C62.3405783,2.97902098 62.3298053,3.1961822 62.3298053,3.23445473 C62.3298053,3.27811378 62.3298053,3.33764884 62.2810433,3.33764884 C62.2419202,3.33764884 62.2311472,3.31610282 62.2311472,3.28917029 C62.2266112,3.23445473 62.2266112,3.16414666 62.2104517,3.09327159 C62.1829522,2.98412398 62.1069741,2.9024759 61.9054054,2.88178038 C61.8024948,2.87072387 61.2629938,2.86505387 61.1323001,2.86505387 C61.1053676,2.86505387 61.0994141,2.88659989 61.0994141,2.91920242 L61.0994141,3.34927235 C61.0994141,3.53354753 61.0951616,4.03449253 61.0994141,4.19240219 C61.1107541,4.56775657 61.1977887,4.64855415 61.7534493,4.64855415 C61.8943489,4.64855415 62.1234171,4.64855415 62.2643168,4.58363258 C62.4054999,4.51842752 62.4715555,4.4038934 62.508694,4.18134568 C62.520034,4.12152712 62.531374,4.0991306 62.5685126,4.0991306 C62.6124551,4.0991306 62.6124551,4.14307314 62.6124551,4.1975052 C62.6124551,4.32309582 62.5685126,4.69192969 62.542147,4.8013608 C62.5038745,4.94254394 62.454829,4.94254394 62.2481572,4.94254394 C61.4265734,4.94254394 61.0614251,4.90994141 60.7413532,4.90994141 C60.6163296,4.90994141 60.2730108,4.92638443 60.0552826,4.92638443 C59.985258,4.92638443 59.9469854,4.90994141 59.9469854,4.87280287 C59.9469854,4.84501985 59.968815,4.82857683 60.032886,4.82857683 C60.1145341,4.82857683 60.1800227,4.81808732 60.2296352,4.80731431 C60.3379323,4.78520129 60.3648649,4.66556417 60.3869779,4.50737101 C60.4153279,4.27915328 60.4153279,3.84993385 60.4153279,3.34927235 L60.4153279,2.39160839" id="Fill-36"></path>
                <path d="M63.6463806,1.34690985 C63.5814591,1.14590815 63.521924,1.01464751 63.4445284,0.96021546 C63.3852769,0.921942922 63.2761293,0.910602911 63.2285012,0.910602911 C63.1726517,0.910602911 63.1400491,0.905499905 63.1400491,0.862407862 C63.1400491,0.824135324 63.1839917,0.813362313 63.2596863,0.813362313 C63.542336,0.813362313 63.8425628,0.829238329 63.8913249,0.829238329 C63.9403704,0.829238329 64.1799282,0.813362313 64.49433,0.813362313 C64.5711586,0.813362313 64.6094311,0.829238329 64.6094311,0.862407862 C64.6094311,0.905499905 64.5652051,0.910602911 64.51134,0.910602911 C64.4679645,0.910602911 64.4140994,0.910602911 64.3752599,0.933282933 C64.3267813,0.955112455 64.3157248,0.993101493 64.3157248,1.05235305 C64.3157248,1.12351162 64.3687394,1.30863731 64.4342279,1.55301455 C64.5280665,1.91249291 65.0341145,3.56048006 65.1322056,3.86609337 L65.1480816,3.86609337 L66.2041202,1.03080703 C66.2642223,0.878850879 66.2965413,0.835191835 66.3390663,0.835191835 C66.3997354,0.835191835 66.4266679,0.917123417 66.497543,1.09034209 L67.6298431,3.82725383 L67.6460026,3.82725383 C67.7432432,3.46267246 68.1784162,2.02617653 68.3689284,1.39056889 C68.4080514,1.26497826 68.4230769,1.15101115 68.4230769,1.07389907 C68.4230769,0.987431487 68.3748819,0.910602911 68.1619732,0.910602911 C68.1072576,0.910602911 68.0706861,0.895293895 68.0706861,0.862407862 C68.0706861,0.824135324 68.1137781,0.813362313 68.1948592,0.813362313 C68.482612,0.813362313 68.7113967,0.829238329 68.7601588,0.829238329 C68.7992818,0.829238329 69.032886,0.813362313 69.2120582,0.813362313 C69.2727273,0.813362313 69.3107163,0.824135324 69.3107163,0.856737857 C69.3107163,0.895293895 69.2832168,0.910602911 69.2336042,0.910602911 C69.1788887,0.910602911 69.1034776,0.917123417 69.0433755,0.938669439 C68.9126819,0.987431487 68.8531469,1.20544321 68.7386127,1.51474201 C68.4879985,2.2005292 67.9173124,3.93101493 67.6508222,4.74721225 C67.5907201,4.93744094 67.5635041,5.0029295 67.493196,5.0029295 C67.4376299,5.0029295 67.4058779,4.93744094 67.3239463,4.73643924 L66.1924967,2.01058401 L66.1822907,2.01058401 C66.0788131,2.28813079 65.3556039,4.21423171 65.1214326,4.71489321 C65.0171045,4.93744094 64.9898885,5.0029295 64.9249669,5.0029295 C64.8705349,5.0029295 64.8430353,4.94254394 64.7999433,4.8013608 L63.6463806,1.34690985" id="Fill-37"></path>
                <path d="M72.8303723,3.51710452 C72.8303723,3.22424872 72.7748063,3.1043281 72.7044982,2.94641845 C72.6665092,2.85995086 71.9373464,1.66187866 71.7471177,1.37979588 C71.6107541,1.17794368 71.4743905,1.04186354 71.3717634,0.981477981 C71.3003213,0.943772444 71.2084672,0.910602911 71.1429786,0.910602911 C71.0998866,0.910602911 71.0607636,0.9003969 71.0607636,0.862407862 C71.0607636,0.829238329 71.0998866,0.813078813 71.1653752,0.813078813 C71.2623323,0.813078813 71.6711397,0.829238329 71.8505954,0.829238329 C71.964279,0.829238329 72.1876772,0.813078813 72.4317709,0.813078813 C72.4870535,0.813078813 72.5137025,0.829238329 72.5137025,0.862407862 C72.5137025,0.895293895 72.4762805,0.9003969 72.3946324,0.921942922 C72.3450198,0.933282933 72.3183708,0.976374976 72.3183708,1.02003402 C72.3183708,1.06369306 72.3450198,1.12861463 72.3830089,1.20544321 C72.459554,1.36902287 73.2218862,2.67907768 73.3083538,2.83160083 C73.3627859,2.7023247 74.0482895,1.504536 74.1245511,1.33613684 C74.1789832,1.21621622 74.2013797,1.12351162 74.2013797,1.05235305 C74.2013797,0.998487998 74.1789832,0.938669439 74.0865621,0.917123417 C74.037233,0.905499905 73.9887545,0.895293895 73.9887545,0.862407862 C73.9887545,0.824135324 74.016254,0.813078813 74.0808921,0.813078813 C74.2609148,0.813078813 74.4341334,0.829238329 74.5926101,0.829238329 C74.7119637,0.829238329 75.0705916,0.813078813 75.1749197,0.813078813 C75.2338877,0.813078813 75.2724438,0.824135324 75.2724438,0.855887356 C75.2724438,0.895293895 75.2296352,0.910602911 75.1692497,0.910602911 C75.1139671,0.910602911 75.0104895,0.933282933 74.9294084,0.976374976 C74.8160083,1.03080703 74.7559063,1.0968626 74.6354186,1.24286524 C74.4573805,1.46087696 73.6944812,2.73946324 73.5972406,2.97335097 C73.5144585,3.16953317 73.5144585,3.33764884 73.5144585,3.51710452 L73.5144585,3.96305046 C73.5144585,4.05093555 73.5144585,4.27915328 73.5309015,4.50737101 C73.542525,4.66556417 73.5910036,4.78520129 73.7540163,4.80731431 C73.8305613,4.81808732 73.9499149,4.82857683 74.0261765,4.82857683 C74.0865621,4.82857683 74.1137781,4.84501985 74.1137781,4.87223587 C74.1137781,4.90994141 74.0704026,4.92638443 74.000378,4.92638443 C73.6562087,4.92638443 73.3143073,4.90994141 73.1671707,4.90994141 C73.0299565,4.90994141 72.6880552,4.92638443 72.4870535,4.92638443 C72.4110754,4.92638443 72.3668494,4.91617842 72.3668494,4.87223587 C72.3668494,4.84501985 72.3946324,4.82857683 72.454451,4.82857683 C72.5301455,4.82857683 72.5956341,4.81808732 72.6446796,4.80731431 C72.7543943,4.78520129 72.8023058,4.66556417 72.8136458,4.50737101 C72.8303723,4.27915328 72.8303723,4.05093555 72.8303723,3.96305046 L72.8303723,3.51710452" id="Fill-38"></path>
                <path d="M75.4428274,2.87072387 C75.4428274,1.93999244 76.0574561,0.737384237 77.6898507,0.737384237 C79.044415,0.737384237 79.8869779,1.52608203 79.8869779,2.77234927 C79.8869779,4.01804952 79.0174825,5.0029295 77.6351351,5.0029295 C76.0730486,5.0029295 75.4428274,3.83349083 75.4428274,2.87072387 M79.1260631,2.97335097 C79.1260631,1.75486675 78.4238329,0.998487998 77.531374,0.998487998 C76.9054054,0.998487998 76.1935362,1.34690985 76.1935362,2.7014742 C76.1935362,3.83349083 76.8183708,4.73048573 77.8633529,4.73048573 C78.2440937,4.73048573 79.1260631,4.54536005 79.1260631,2.97335097" id="Fill-39"></path>
                <path d="M81.3030618,2.39160839 C81.3030618,1.56463806 81.3030618,1.41154791 81.2925723,1.23776224 C81.2809488,1.05235305 81.2375732,0.966735967 81.0581176,0.927612928 C81.0150255,0.916839917 80.9226044,0.910602911 80.8463428,0.910602911 C80.7865243,0.910602911 80.7544888,0.9003969 80.7544888,0.862407862 C80.7544888,0.824135324 80.7916273,0.813078813 80.8729919,0.813078813 C81.1615952,0.813078813 81.504914,0.82980533 81.6188811,0.82980533 C81.8042903,0.82980533 82.2170667,0.813078813 82.3857494,0.813078813 C82.7287847,0.813078813 83.0927991,0.845964846 83.3865054,1.04725005 C83.539312,1.15101115 83.7567568,1.42827443 83.7567568,1.79313929 C83.7567568,2.1951427 83.5880741,2.56596107 83.0392175,3.01162351 C83.5231525,3.62114912 83.8985069,4.10565111 84.2182952,4.44188244 C84.524759,4.75826876 84.7475902,4.7965413 84.8286713,4.81213381 C84.8884899,4.82290682 84.9375354,4.82857683 84.9811945,4.82857683 C85.0248535,4.82857683 85.046116,4.84501985 85.046116,4.87280287 C85.046116,4.91617842 85.0084105,4.92638443 84.9423549,4.92638443 L84.4258174,4.92638443 C84.1210546,4.92638443 83.985825,4.8997354 83.8443583,4.82290682 C83.6093366,4.6984502 83.4035154,4.44188244 83.0984691,4.02315252 C82.8818749,3.72320922 82.6301266,3.35465885 82.5592516,3.27329427 C82.5326025,3.23927424 82.5,3.23445473 82.4617275,3.23445473 L81.989416,3.22424872 C81.9613495,3.22424872 81.9460404,3.23445473 81.9460404,3.26705727 L81.9460404,3.34388584 C81.9460404,3.84993385 81.9460404,4.27915328 81.972973,4.50737101 C81.989416,4.66556417 82.0208845,4.78520129 82.1841807,4.80731431 C82.2663958,4.81808732 82.3857494,4.82857683 82.4509545,4.82857683 C82.49433,4.82857683 82.5161595,4.84501985 82.5161595,4.87280287 C82.5161595,4.90994141 82.479021,4.92638443 82.4084294,4.92638443 C82.0917596,4.92638443 81.6894727,4.90994141 81.6081081,4.90994141 C81.504914,4.90994141 81.1615952,4.92638443 80.9447174,4.92638443 C80.8729919,4.92638443 80.8361368,4.90994141 80.8361368,4.87280287 C80.8361368,4.84501985 80.8571159,4.82857683 80.9226044,4.82857683 C81.0031185,4.82857683 81.0691741,4.81808732 81.1179361,4.80731431 C81.2273672,4.78520129 81.2540163,4.66556417 81.2758458,4.50737101 C81.3030618,4.27915328 81.3030618,3.84993385 81.3030618,3.34927235 L81.3030618,2.39160839 L81.3030618,2.39160839 Z M81.9460404,2.82026082 C81.9460404,2.88178038 81.9556795,2.9024759 81.9948025,2.91920242 C82.1079191,2.95690796 82.2714988,2.97335097 82.4084294,2.97335097 C82.6255906,2.97335097 82.6961822,2.95237195 82.7942733,2.88178038 C82.956719,2.76157626 83.1154791,2.51124551 83.1154791,2.06529957 C83.1154791,1.29247779 82.6031941,1.06879607 82.2822718,1.06879607 C82.1456246,1.06879607 82.0481005,1.07389907 81.9948025,1.09034209 C81.9556795,1.1019656 81.9460404,1.12351162 81.9460404,1.16745417 L81.9460404,2.82026082 L81.9460404,2.82026082 Z" id="Fill-41"></path>
                <path d="M86.3519184,2.63088263 L86.3805519,2.63088263 C86.5636931,2.42959743 87.3577774,1.61821962 87.516821,1.43309393 C87.6693442,1.25448875 87.7881308,1.11869212 87.7881308,1.02570403 C87.7881308,0.966735967 87.7663013,0.927612928 87.7124362,0.917123417 C87.6636742,0.905499905 87.6412776,0.895293895 87.6412776,0.862407862 C87.6412776,0.824135324 87.6693442,0.813362313 87.7283122,0.813362313 C87.8431298,0.813362313 88.1416556,0.829238329 88.2893593,0.829238329 C88.458042,0.829238329 88.7568513,0.813362313 88.9252504,0.813362313 C88.9802495,0.813362313 89.017955,0.824135324 89.017955,0.862407862 C89.017955,0.9003969 88.990739,0.910602911 88.9357399,0.910602911 C88.8603289,0.910602911 88.7248157,0.933282933 88.6204876,0.971271971 C88.4520885,1.03704404 88.2675298,1.15101115 88.0339255,1.37979588 C87.8646759,1.54280854 87.043092,2.35900586 86.8582499,2.55462105 C87.0544321,2.81062181 88.1209601,3.95794746 88.3324513,4.15951616 C88.5720091,4.38773389 88.8163863,4.63267813 89.1103761,4.74721225 C89.2736723,4.81128331 89.3831034,4.82857683 89.4483084,4.82857683 C89.4862975,4.82857683 89.5186165,4.83963334 89.5186165,4.87223587 C89.5186165,4.91050841 89.4908335,4.92638443 89.3882064,4.92638443 L88.9144774,4.92638443 C88.7514648,4.92638443 88.6536572,4.92638443 88.5394065,4.91589492 C88.2454167,4.88896239 88.0988471,4.76819127 87.8646759,4.56208656 C87.6251181,4.35059535 86.5523531,3.09327159 86.4389529,2.93536194 L86.3805519,2.85343035 L86.3519184,2.85343035 L86.3519184,3.34927235 C86.3519184,3.84851635 86.3519184,4.27858628 86.3677944,4.51275751 C86.3805519,4.66556417 86.4278964,4.78520129 86.5636931,4.80646381 C86.6396711,4.81808732 86.7595918,4.82857683 86.8316008,4.82857683 C86.8746929,4.82857683 86.9010584,4.84530335 86.9010584,4.87223587 C86.9010584,4.91050841 86.8582499,4.92638443 86.7981478,4.92638443 C86.493952,4.92638443 86.1503497,4.91050841 86.01512,4.91050841 C85.8889624,4.91050841 85.547061,4.92638443 85.3296163,4.92638443 C85.2581743,4.92638443 85.2204687,4.91050841 85.2204687,4.87223587 C85.2204687,4.84530335 85.2414477,4.82857683 85.3077868,4.82857683 C85.3894349,4.82857683 85.45464,4.81808732 85.5031185,4.80646381 C85.6125496,4.78520129 85.6389151,4.66556417 85.6601777,4.50737101 C85.6879607,4.27858628 85.6879607,3.84851635 85.6879607,3.34927235 L85.6879607,2.39160839 C85.6879607,1.56378756 85.6879607,1.41154791 85.6766207,1.23776224 C85.6666982,1.05235305 85.6230391,0.966735967 85.4438669,0.927612928 C85.3999244,0.917123417 85.3077868,0.910602911 85.2318087,0.910602911 C85.1714232,0.910602911 85.1388206,0.9003969 85.1388206,0.862407862 C85.1388206,0.824135324 85.1765262,0.813362313 85.2581743,0.813362313 C85.547061,0.813362313 85.8889624,0.829238329 86.020223,0.829238329 C86.1503497,0.829238329 86.493952,0.813362313 86.6782272,0.813362313 C86.7550558,0.813362313 86.7930448,0.824135324 86.7930448,0.862407862 C86.7930448,0.9003969 86.7595918,0.910602911 86.7156492,0.910602911 C86.6629182,0.910602911 86.6291816,0.917123417 86.5636931,0.927612928 C86.4176904,0.955112455 86.3737479,1.04725005 86.3621244,1.23776224 C86.3519184,1.41154791 86.3519184,1.56378756 86.3519184,2.39160839 L86.3519184,2.63088263" id="Fill-42"></path>
            </g>
            <g id="Shape" transform="translate(45.000000, 9.998085)">
                <path d="M29.5391181,11.2062589 C29.2233286,9.38111391 27.7494255,8.10942116 25.9459459,7.96301565 C22.7184594,7.70500055 19.9367546,9.43100996 16.807747,9.98183609 C16.5556407,10.0258234 16.2194989,9.49338002 15.9174964,9.19006456 C17.3684211,8.09629062 17.1708064,5.951417 15.4907539,5.02571397 C15.3752052,4.89440858 15.4172229,3.65816829 15.4822191,3.60302002 C15.6207463,3.49009738 16.6928548,3.6949338 16.8451691,3.56297188 C16.9961703,3.43035343 16.9653135,2.14421709 16.867491,2.02079002 C16.7709815,1.898676 15.5629719,2.0299814 15.4946931,1.94857205 C15.4277273,1.86388007 15.5281759,0.708392603 15.4152533,0.614509246 C15.3312179,0.55082613 14.9983587,0.543604333 14.8125615,0.545573914 C14.6241383,0.543604333 14.2906226,0.55082613 14.2098698,0.614509246 C14.0956341,0.708392603 14.1967392,1.86388007 14.1284604,1.94857205 C14.0608382,2.0299814 12.8534851,1.898676 12.755006,2.02079002 C12.6584966,2.14421709 12.6289528,3.43035343 12.7812671,3.56297188 C12.9322683,3.6949338 14.0037203,3.49009738 14.1396214,3.60302002 C14.2065872,3.65816829 14.2492614,4.89440858 14.1337127,5.02571397 C12.4530036,5.951417 12.256702,8.09629062 13.7069701,9.19006456 C13.4029981,9.49338002 13.0668563,10.0258234 12.816063,9.98183609 C9.68836853,9.43100996 6.90469417,7.70500055 3.67983368,7.96301565 C1.87438451,8.10942116 0.399168399,9.38111391 0.0853485064,11.2062589 C-0.478608163,14.4948025 1.8816063,17.0198052 3.02921545,19.8107014 C3.39030529,20.6911041 3.71003392,21.8741657 3.65225955,22.892439 C3.65225955,22.892439 13.0169603,22.892439 14.6845388,22.8944086 L14.8125615,22.8944086 L14.9399278,22.8944086 C16.6061932,22.892439 25.9715505,22.892439 25.9715505,22.892439 C25.9144327,21.8741657 26.2341613,20.6911041 26.5945946,19.8107014 C27.7402342,17.0198052 30.1050443,14.4948025 29.5391181,11.2062589 M13.4771857,18.4832039 C13.1883138,20.1356822 12.2711456,21.1821862 11.5076048,21.1874385 C11.0093008,21.1900646 10.6068498,21.0016413 10.2431338,20.6812562 C9.74023416,20.2407266 9.32924828,19.5185469 9.46186673,19.0911478 C9.57413284,18.9467119 10.9252653,19.1522048 11.0224313,19.0202429 C11.1182843,18.8856549 10.8576431,17.8299595 10.7033592,17.6953715 C10.551045,17.5581573 9.32924828,17.7406718 9.16708611,17.6073969 C9.00164132,17.4728088 8.84998359,16.1676332 8.68322574,16.0862239 C8.68322574,16.0862239 7.39118065,15.8932049 7.29861035,16.0783456 C7.20341394,16.2634862 7.73191815,17.3526644 7.64197396,17.5397746 C7.55268629,17.7242587 5.84112047,17.3749863 5.81092023,17.5680053 C5.78071999,17.7610242 5.90874275,18.7208666 6.07484407,18.863333 C6.23700624,19.0044863 7.83630594,19.0143342 7.83630594,19.0143342 C8.16719554,19.2677536 8.25451362,19.7818142 8.2564832,20.3109749 C8.25910931,20.9780063 7.7378269,21.3233395 6.90863333,21.0902725 C5.36316884,20.6589342 3.44611008,17.3040814 2.30769231,14.9819455 C1.47259,13.2749754 0.969033811,10.4821096 3.16249043,9.64438122 C4.49983587,9.13425977 5.90480359,9.42378816 7.34391071,9.84856111 C8.85195317,10.2989386 10.8412299,10.9029434 12.012474,11.6323449 C12.3006894,11.8109202 11.6697669,11.6691104 12.7116752,13.9728636 C13.1955356,15.0469417 13.6800525,17.3316555 13.4771857,18.4832039 M22.7151767,21.0902725 C21.8866397,21.3233395 21.3660138,20.9780063 21.3686399,20.3109749 C21.3706095,19.7818142 21.455958,19.2677536 21.7907867,19.0143342 C21.7907867,19.0143342 23.3887734,19.0044863 23.5509356,18.863333 C23.7130977,18.7208666 23.841777,17.7610242 23.8142029,17.5680053 C23.7813765,17.3749863 22.0711238,17.7242587 21.9798665,17.5397746 C21.8905788,17.3526644 22.4236787,16.2634862 22.3271693,16.0783456 C22.2326294,15.8932049 20.9399278,16.0862239 20.9399278,16.0862239 C20.7738265,16.1676332 20.6221687,17.4728088 20.4600066,17.6073969 C20.2958748,17.7406718 19.0740781,17.5581573 18.9211073,17.6953715 C18.76748,17.8299595 18.5074953,18.8856549 18.6020352,19.0202429 C18.6972316,19.1522048 20.0516468,18.9467119 20.1619433,19.0911478 C20.2958748,19.5185469 19.8842324,20.2407266 19.3819893,20.6812562 C19.0182733,21.0016413 18.6158223,21.1900646 18.1162053,21.1874385 C17.3533209,21.1821862 16.4381223,20.1356822 16.1472809,18.4832039 C15.9450706,17.3316555 16.4295875,15.0469417 16.9121348,13.9728636 C17.9527301,11.6691104 17.3244337,11.8109202 17.610023,11.6323449 C18.7838932,10.9029434 20.7738265,10.2989386 22.2818689,9.84856111 C23.719663,9.42378816 25.1239742,9.13425977 26.4619761,9.64438122 C28.6567458,10.4821096 28.1518766,13.2749754 27.3154612,14.9819455 C26.1803261,17.3040814 24.2632673,20.6589342 22.7151767,21.0902725" id="Fill-44"></path>
                <polyline id="Fill-46" points="14.9392713 24.4208338 3.4027793 24.4208338 3.4027793 26.3589014 26.2230003 26.3589014 26.2230003 24.4208338 14.9392713 24.4208338"></polyline>
            </g>
        </g>
    </g>
</svg>