<?xml version="1.0" encoding="UTF-8" standalone="no"?>
<svg width="80px" height="80px" viewBox="0 0 80 80" version="1.1" xmlns="http://www.w3.org/2000/svg" xmlns:xlink="http://www.w3.org/1999/xlink">
    <!-- Generator: Sketch 39.1 (31720) - http://www.bohemiancoding.com/sketch -->
    <title>logo-shell</title>
    <desc>Created with Sketch.</desc>
    <defs></defs>
    <g id="Elements" stroke="none" stroke-width="1" fill="none" fill-rule="evenodd">
        <g id="logo-shell" fill="#000000">
            <g id="shell" transform="translate(7.000000, 0.000000)">
                <path d="M9.5302994,10.2579641 C21.7159281,-2.75592814 44.308024,-4.18922156 58.4670659,11.2924551 C64.7415569,19.1245509 67.8850299,28.4316168 66.4538922,39.8965269 L55.7106587,47.9056287 L54.354491,60.4160479 L37.3635928,60.5293413 C34.9403593,62.8706587 32.1858683,62.8057485 30.0572455,60.5892216 L12.8411976,60.5437126 L11.4332934,47.9494611 L0.597365269,40.2244311 C-1.36502994,27.7585629 2.61580838,18.2479042 9.5302994,10.2579641 L9.5302994,10.2579641 Z M60.7427545,37.3156886 L50.3247904,44.96 L49.3216766,54.7803593 L36.6088623,54.8723353 C34.6529341,57.3892216 32.428982,57.1973653 30.7111377,54.9207186 L17.8617964,54.8838323 L16.771497,45.3671856 L6.14898204,37.2658683 C5.36335329,34.3219162 5.67305389,31.3971257 6.82898204,28.2486228 L23.7908982,45.5166467 C24.3295808,45.8251497 24.5822754,45.5111377 24.3211976,45.119521 L7.75928144,24.8138922 C7.79976048,22.3226347 9.36622754,19.9130539 11.6253892,17.5408383 L26.6045509,43.165509 C27.1159281,43.8831138 27.6210778,43.702515 27.2328144,42.8294611 L13.7784431,14.7372455 C15.5906587,11.942515 17.9722156,10.4728144 20.6124551,9.60526946 L29.8203593,41.8761677 C30.1178443,42.571976 30.6682635,42.4862275 30.4898204,41.6529341 L23.765509,8.06323353 C24.9772455,7.14443114 26.4438323,6.48502994 28.2823952,6.20431138 C29.1882635,6.09389222 30.2675449,6.10610778 31.6950898,6.15616766 L33.2376048,41.7846707 C33.1916168,42.9073054 33.8095808,42.6749701 33.8304192,41.8227545 L35.0550898,6.3039521 C36.1065868,6.24287425 37.1573653,6.22610778 38.2095808,6.32934132 C40.0577246,6.49341317 41.8682635,7.03185629 43.000479,8.01676647 L36.6673054,41.6560479 C36.6761677,42.0725749 37.0402395,42.1271856 37.2337725,41.737485 L46.3465868,9.51305389 C50.0594012,11.2158084 52.2699401,13.0615569 53.0016766,14.657006 L39.8984431,42.7791617 C39.588024,43.3734132 40.1336527,43.7717365 40.4656287,43.3149701 L55.2007186,17.3643114 C57.2304192,19.3638323 58.8555689,21.5585629 59.3640719,24.2934132 L43.2596407,44.5942515 C42.4934132,45.5111377 42.9073054,45.7777246 43.6002395,44.9338922 L59.9841916,28.3451497 C61.0828743,30.7607186 61.5779641,33.5865868 60.7427545,37.3156886 L60.7427545,37.3156886 Z" id="Fill-1" fill-opacity="0.38"></path>
                <path d="M60.7427545,37.3156886 L50.3247904,44.96 L49.3216766,54.7803593 L36.6088623,54.8723353 C34.6529341,57.3892216 32.428982,57.1973653 30.7111377,54.9207186 L17.8617964,54.8838323 L16.771497,45.3671856 L6.14898204,37.2658683 C5.36335329,34.3219162 5.67305389,31.3971257 6.82898204,28.2486228 L23.7908982,45.5166467 C24.3295808,45.8251497 24.5822754,45.5111377 24.3211976,45.119521 L7.75928144,24.8138922 C7.79976048,22.3226347 9.36622754,19.9130539 11.6253892,17.5408383 L26.6045509,43.165509 C27.1159281,43.8831138 27.6210778,43.702515 27.2328144,42.8294611 L13.7784431,14.7372455 C15.5906587,11.942515 17.9722156,10.4728144 20.6124551,9.60526946 L29.8203593,41.8761677 C30.1178443,42.571976 30.6682635,42.4862275 30.4898204,41.6529341 L23.765509,8.06323353 C24.9772455,7.14443114 26.4438323,6.48502994 28.2823952,6.20431138 C29.1882635,6.09389222 30.2675449,6.10610778 31.6950898,6.15616766 L33.2376048,41.7846707 C33.1916168,42.9073054 33.8095808,42.6749701 33.8304192,41.8227545 L35.0550898,6.3039521 C36.1065868,6.24287425 37.1573653,6.22610778 38.2095808,6.32934132 C40.0577246,6.49341317 41.8682635,7.03185629 43.000479,8.01676647 L36.6673054,41.6560479 C36.6761677,42.0725749 37.0402395,42.1271856 37.2337725,41.737485 L46.3465868,9.51305389 C50.0594012,11.2158084 52.2699401,13.0615569 53.0016766,14.657006 L39.8984431,42.7791617 C39.588024,43.3734132 40.1336527,43.7717365 40.4656287,43.3149701 L55.2007186,17.3643114 C57.2304192,19.3638323 58.8555689,21.5585629 59.3640719,24.2934132 L43.2596407,44.5942515 C42.4934132,45.5111377 42.9073054,45.7777246 43.6002395,44.9338922 L59.9841916,28.3451497 C61.0828743,30.7607186 61.5779641,33.5865868 60.7427545,37.3156886" id="Fill-2" fill-opacity="0.12"></path>
                <path d="M61.7561677,66.6883832 L66.3398802,66.6883832 C66.4644311,66.6883832 66.5664671,66.7897006 66.5664671,66.9132934 L66.5664671,79.5168862 C66.5664671,79.6407186 66.4644311,79.7417964 66.3398802,79.7417964 L61.7561677,79.7417964 C61.6316168,79.7417964 61.5298204,79.6407186 61.5298204,79.5168862 L61.5298204,66.9132934 C61.5298204,66.7897006 61.6316168,66.6883832 61.7561677,66.6883832" id="Fill-3" fill-opacity="0.38"></path>
                <path d="M54.0950898,66.6883832 L58.6785629,66.6883832 C58.8033533,66.6883832 58.9051497,66.7897006 58.9051497,66.9132934 L58.9051497,79.5168862 C58.9051497,79.6407186 58.8033533,79.7417964 58.6785629,79.7417964 L54.0950898,79.7417964 C53.9705389,79.7417964 53.868503,79.6407186 53.868503,79.5168862 L53.868503,66.9132934 C53.868503,66.7897006 53.9705389,66.6883832 54.0950898,66.6883832" id="Fill-4" fill-opacity="0.38"></path>
                <path d="M40.8670659,70.2747305 C43.4411976,70.1662275 46.0328144,70.1738922 48.5897006,70.4467066 C50.1626347,70.6634731 51.3475449,71.3736527 51.5813174,73.0364072 L51.6438323,75.4043114 C51.6467066,75.7063473 51.5185629,75.839521 51.2821557,75.8613174 L42.148503,75.8023952 C41.9983234,75.8122156 41.9094611,75.902515 41.8893413,76.0311377 C41.7334132,77.2124551 42.0946108,77.9417964 43.2124551,78.0107784 L45.3592814,77.9882635 C45.7108982,77.9717365 46.3949701,77.4644311 46.4550898,76.9662275 C46.4706587,76.6931737 46.594491,76.5702994 46.8641916,76.56 L50.971497,76.5564072 C51.3702994,76.5535329 51.5415569,76.7037126 51.5202395,77.0474251 C51.3930539,78.4874251 50.5760479,79.4756886 48.7508982,79.8038323 C46.6392814,79.891497 43.6881437,79.8524551 41.1120958,79.8572455 C38.3930539,79.8002395 37.3441916,79.1508982 36.8835928,77.7858683 C36.4989222,76.1360479 36.508503,74.3147305 36.8249102,72.7576048 C37.1942515,71.3180838 38.2148503,70.405509 40.8670659,70.2747305 L40.8670659,70.2747305 Z M43.3159281,72.2524551 C43.9841916,72.182994 44.6522156,72.1964072 45.3202395,72.2783234 C45.9691018,72.4 47.0091018,73.4632335 46.2447904,73.8565269 C44.9178443,73.8982036 43.6021557,73.8953293 42.291976,73.8699401 C41.7271856,73.3664671 42.2720958,72.4316168 43.3159281,72.2524551 L43.3159281,72.2524551 Z" id="Fill-5" fill-opacity="0.38"></path>
                <path d="M20.5120958,66.6883832 L25.0955689,66.6883832 C25.2201198,66.6883832 25.3221557,66.7897006 25.3221557,66.9132934 L25.3221557,70.7686228 C25.4182036,70.8589222 25.5707784,70.8989222 25.76,70.8723353 C26.2311377,70.7353293 26.6900599,70.525509 27.1537725,70.4716168 C31.3791617,70.1073054 34.3075449,70.5911377 34.588982,72.805509 L34.5360479,75.9547305 L34.5360479,79.5168862 C34.5360479,79.6402395 34.4332934,79.7417964 34.3094611,79.7417964 L29.908024,79.7417964 C29.7841916,79.7417964 29.6814371,79.640479 29.6814371,79.5168862 L29.6814371,75.6673054 L29.6823952,73.8682635 C29.5176048,72.5832335 26.0366467,72.6560479 25.3221557,73.7113772 L25.3221557,79.5168862 C25.3221557,79.6407186 25.2201198,79.7417964 25.0955689,79.7417964 L20.5120958,79.7417964 C20.3875449,79.7417964 20.285509,79.6407186 20.285509,79.5168862 L20.285509,66.9132934 C20.285509,66.7897006 20.3875449,66.6883832 20.5120958,66.6883832" id="Fill-6" fill-opacity="0.38"></path>
                <path d="M4.72143713,79.6376048 C1.37173653,79.6447904 0.738682635,77.9022754 0.722874251,75.6713772 C0.722155689,75.5477844 0.84239521,75.4464671 0.988742515,75.4464671 L6.3657485,75.4464671 C6.51185629,75.4464671 6.6354491,75.5482635 6.63161677,75.6713772 C6.60646707,76.4845509 6.75856287,77.2019162 7.73964072,77.399521 L11.0368862,77.4179641 C11.9717365,77.3101796 12.3911377,76.542994 12.2852695,75.3923353 C12.2179641,74.7712575 11.9247904,74.3154491 10.965988,74.1537725 L4.88,74.0112575 C2.59209581,73.8986826 1.34946108,73.1683832 1.15257485,71.7470659 L1.16143713,69.2380838 C1.27520958,67.6567665 2.34754491,66.611018 5.17580838,66.5243114 L12.5564072,66.4481437 C15.554012,66.3226347 17.1053892,66.920479 17.6670659,68.0134132 C17.8409581,68.7104192 17.8320958,69.4234731 17.8646707,70.1858683 C17.8359281,70.4567665 17.662994,70.5832335 17.3461078,70.5652695 L12.5180838,70.5576048 C12.2845509,70.5458683 12.1700599,70.4265868 12.1750898,70.2002395 C12.3705389,68.7046707 11.405988,68.4136527 9.44982036,68.4558084 C7.47832335,68.4617964 6.61772455,68.7235928 6.48814371,69.3633533 C6.29652695,70.7394012 6.6891018,71.5573653 7.93508982,71.559521 L12.6198802,71.6435928 C16.5295808,71.708503 17.9192814,72.8265868 17.9899401,74.6541317 C18.3858683,77.9027545 17.3738922,79.1501796 15.6790419,79.5192814 C12.0996407,79.7827545 8.47592814,79.9168862 4.72143713,79.6376048" id="Fill-7" fill-opacity="0.38"></path>
            </g>
        </g>
    </g>
</svg>