<svg xmlns="http://www.w3.org/2000/svg" width="120" height="80" viewBox="0 0 120 80">
  <g fill="#000000" fill-opacity=".38" fill-rule="evenodd">
    <path d="M111.175363,0.721018252 L113.556291,0.721018252 L113.556291,7.28152263 L116.294152,4.06206567 L119.15145,4.06206567 L116.234509,7.46060339 L119.447818,13.006573 L116.651237,13.006573 L114.627394,9.18915541 L113.556291,10.3231286 L113.556291,13.006573 L111.175363,13.006573 L111.175363,0.721018252 Z M101.295792,4.06206567 L103.675645,4.06206567 L103.675645,5.0755244 C103.97401,4.71736289 104.331096,4.41899744 104.807466,4.18042806 C105.342556,4.0013473 105.818927,3.88190889 106.23673,3.88190889 C107.068956,3.88190889 107.723331,4.12063199 108.31914,4.4787935 C108.913872,4.95516369 109.27188,5.55297061 109.27188,6.26806389 L109.27188,13.006573 L106.890029,13.006573 L106.890029,7.10244187 C106.890029,6.7455101 106.771667,6.44714465 106.532944,6.26806389 C106.23673,6.02934079 105.937289,5.96969845 105.581279,5.96969845 C105.104756,5.96969845 104.747824,6.02934079 104.450534,6.20734553 C104.152015,6.44714465 103.914368,6.68586775 103.675645,7.10244187 L103.675645,13.006573 L101.295792,13.006573 L101.295792,4.06206567 Z M96.8324543,9.96512078 L96.8324543,8.59350053 C96.058641,8.71278522 95.4629861,8.89186598 94.986616,9.01115067 C94.094594,9.24895147 93.6778661,9.66660161 93.6778661,10.2036902 C93.6778661,10.621494 93.7375085,10.8602171 93.9762316,11.0382219 C94.2128026,11.2171489 94.5113218,11.278021 94.9278959,11.278021 C95.3435477,11.278021 95.7602756,11.1576603 96.1173611,10.9198595 C96.4753688,10.7409324 96.7131696,10.3827709 96.8324543,9.96512078 L96.8324543,9.96512078 Z M93.9762316,6.7455101 L91.5943806,6.7455101 C91.5943806,5.79061769 92.0120308,5.0755244 92.7858441,4.53735983 C93.4987854,4.12063199 94.332241,3.88190889 95.3435477,3.88190889 C96.7131696,3.88190889 97.7255524,4.12063199 98.3788513,4.53735983 C98.9150175,4.95516369 99.213383,5.43245618 99.213383,6.08898314 L99.213383,11.5753104 C99.213383,12.112399 99.391234,12.5898452 99.7483195,13.006573 L97.3079022,13.006573 C97.1895398,12.8285683 97.0701014,12.7082076 97.0115351,12.5302028 C96.950663,12.4107644 96.8920967,12.2318374 96.8324543,11.9931143 C96.5351649,12.4107644 96.1173611,12.7082076 95.6409909,12.8871346 C95.2253391,13.0672914 94.6902488,13.1856538 94.0347979,13.1856538 C93.202572,13.1856538 92.5469673,12.8871346 92.0705971,12.4107644 C91.5356606,11.8736759 91.2371414,11.2171489 91.2371414,10.5020556 C91.2371414,9.78696233 91.4760183,9.13058908 91.8927461,8.65314288 C92.3083979,8.17569667 92.9040528,7.87840725 93.6778661,7.75896884 C95.0473343,7.52024573 95.7017092,7.39988502 95.7602756,7.39988502 C96.4753688,7.22188028 96.8324543,6.98315718 96.8324543,6.7455101 C96.8324543,6.38642628 96.7131696,6.08898314 96.4157265,5.96969845 C96.1780794,5.79061769 95.8209939,5.73082163 95.3435477,5.73082163 C94.9278959,5.73082163 94.6295305,5.85026004 94.332241,5.96969845 C94.094594,6.14770318 93.9762316,6.38642628 93.9762316,6.7455101 L93.9762316,6.7455101 Z M82.3104653,7.75896884 L82.3104653,10.8005748 L85.5246959,10.8005748 C86.0001438,10.8005748 86.3570755,10.6811364 86.714161,10.3231286 C87.0125265,10.0246094 87.1905312,9.66660161 87.1905312,9.24895147 C87.1905312,8.83222363 87.0125265,8.47406212 86.714161,8.17569667 C86.3570755,7.87840725 86.0001438,7.75896884 85.5246959,7.75896884 L82.3104653,7.75896884 Z M82.3104653,2.9280925 L82.3104653,5.55297061 L85.3457688,5.55297061 C85.7624967,5.55297061 86.1183524,5.43245618 86.4168716,5.1948091 C86.714161,4.95516369 86.8334457,4.65664452 86.8334457,4.29971275 C86.8334457,3.88190889 86.714161,3.58354344 86.4168716,3.28625401 C86.1183524,3.04737719 85.822139,2.9280925 85.4054112,2.9280925 L82.3104653,2.9280925 Z M79.8107132,13.006573 L79.8107132,0.721018252 L86.0597861,0.721018252 C86.9528841,0.721018252 87.7256214,1.0193837 88.3212763,1.67591066 C88.975805,2.33120789 89.3327367,3.10609724 89.3327367,4.06206567 C89.3327367,4.5980782 89.2143743,5.0755244 88.975805,5.55297061 C88.6794378,6.02934079 88.261634,6.38642628 87.7852638,6.62499567 C88.3810724,6.86387249 88.8563665,7.28152263 89.2730944,7.75896884 C89.6300262,8.29605739 89.8101829,8.83222363 89.8101829,9.42895453 C89.8101829,10.441491 89.4520214,11.278021 88.7978002,11.9334719 C88.1421956,12.6496412 87.4281783,13.006573 86.4754379,13.006573 L79.8107132,13.006573 Z M67.7288339,7.5800418 L71.4781547,7.5800418 C71.4781547,7.16223794 71.2405077,6.7455101 70.8834222,6.44714465 C70.5269515,6.08898314 70.1097626,5.90990238 69.6333924,5.90990238 C69.1579445,5.90990238 68.6804983,6.08898314 68.3240277,6.44714465 C67.9670959,6.7455101 67.7288339,7.16223794 67.7288339,7.5800418 L67.7288339,7.5800418 Z M71.4781547,10.1440478 L73.7999022,10.1440478 C73.6214363,11.1576603 73.08527,11.8736759 72.2524292,12.4705605 C71.5382582,12.9480067 70.6451602,13.1856538 69.6333924,13.1856538 C68.38367,13.1856538 67.3723633,12.7082076 66.5389076,11.8140335 C65.7049908,10.9198595 65.3479053,9.78696233 65.3479053,8.35477743 C65.3479053,7.10244187 65.7049908,6.02934079 66.5389076,5.1948091 C67.3121061,4.35827907 68.38367,3.88190889 69.6333924,3.88190889 C71.3593312,3.88190889 72.5503335,4.53735983 73.2045547,5.79061769 C73.502459,6.20734553 73.6806175,6.7455101 73.7999022,7.28152263 C73.9187257,7.87840725 73.9187257,8.47406212 73.9187257,9.13058908 L67.7288339,9.13058908 C67.7288339,9.60695927 67.9079147,10.0246094 68.2648465,10.441491 C68.6213171,10.9198595 69.0976873,11.1576603 69.6333924,11.1576603 C70.0495053,11.1576603 70.4075131,11.0382219 70.7639838,10.9198595 C71.0614269,10.7409324 71.30015,10.5020556 71.4781547,10.1440478 L71.4781547,10.1440478 Z M55.7065971,0.721018252 L58.0879868,0.721018252 L58.0879868,5.01480603 C58.3848151,4.5980782 58.8020041,4.29971275 59.2772983,4.12063199 C59.7536685,4.0013473 60.2892198,3.88190889 60.8253861,3.88190889 C61.5985845,3.88190889 62.3126018,4.12063199 62.9077955,4.5980782 C63.5036041,5.01480603 63.8004324,5.671333 63.8004324,6.38642628 L63.8004324,13.006573 L61.4802221,13.006573 L61.4802221,7.39988502 C61.4802221,6.92336112 61.3006802,6.56642934 61.0624183,6.32770624 C60.8253861,6.08898314 60.4683006,5.96969845 60.0515727,5.96969845 C59.5752026,5.96969845 59.0988324,6.08898314 58.6827194,6.38642628 C58.3256339,6.68586775 58.0879868,7.04279953 58.0879868,7.52024573 L58.0879868,13.006573 L55.7065971,13.006573 L55.7065971,0.721018252 Z M50.1123602,13.1856538 C48.8621767,13.1856538 47.8504088,12.7082076 47.0174143,11.8140335 C46.243601,10.9198595 45.827488,9.78696233 45.827488,8.35477743 C45.827488,7.16223794 46.243601,6.08898314 47.0765955,5.1948091 C47.9098975,4.35827907 48.9219727,3.88190889 50.1123602,3.88190889 C51.183463,3.88190889 52.1357422,4.23991668 52.9094018,4.89644365 C53.7423963,5.49225224 54.1595853,6.32770624 54.1595853,7.28152263 L51.7786567,7.28152263 C51.7786567,6.86387249 51.6001908,6.56642934 51.3029014,6.32770624 C50.9453547,6.02934079 50.5882692,5.90990238 50.1123602,5.90990238 C49.5171665,5.90990238 49.1004386,6.14770318 48.7435069,6.62499567 C48.4460637,7.04279953 48.266983,7.63968414 48.266983,8.35477743 C48.266983,9.18915541 48.4460637,9.84568237 48.7435069,10.3827709 C49.1004386,10.8602171 49.5171665,11.1576603 50.1123602,11.1576603 C50.529088,11.1576603 50.9453547,10.9795018 51.2426441,10.6811364 C51.6001908,10.3827709 51.7786567,10.0854815 51.7786567,9.66660161 L54.1595853,9.66660161 C54.1595853,10.6811364 53.7423963,11.5753104 52.9094018,12.2318374 C52.076561,12.8285683 51.183463,13.1856538 50.1123602,13.1856538 L50.1123602,13.1856538 Z M36.6614739,9.96512078 L39.0419414,9.96512078 C39.0419414,10.3827709 39.1612261,10.7409324 39.5183116,10.9795018 C39.8160622,11.2171489 40.2323288,11.3376633 40.7091602,11.3376633 C41.125888,11.3376633 41.4823586,11.278021 41.7206206,11.1576603 C42.0185249,11.0382219 42.1963759,10.7409324 42.1963759,10.3827709 C42.1963759,9.90532472 41.7804166,9.54839294 40.8275226,9.30951612 C39.2805108,8.89186598 38.3880276,8.65314288 38.2687429,8.53370447 C37.3164637,8.11605433 36.8399398,7.52024573 36.8399398,6.68586775 C36.8399398,5.85026004 37.1970253,5.1948091 37.8524762,4.65664452 C38.5068512,4.12063199 39.3999492,3.88190889 40.4705908,3.88190889 C41.5421547,3.88190889 42.3745343,4.12063199 43.0894739,4.5980782 C43.8632872,5.13409073 44.2800151,5.85026004 44.2800151,6.86387249 L42.0777061,6.86387249 C42.0185249,6.50571098 41.8394441,6.20734553 41.5421547,6.02934079 C41.2447115,5.85026004 40.8876261,5.73082163 40.4705908,5.73082163 C40.1135053,5.73082163 39.8160622,5.85026004 39.5779539,5.96969845 C39.3403068,6.14770318 39.2208684,6.32770624 39.2208684,6.62499567 C39.2208684,6.98315718 39.6967775,7.28152263 40.5898755,7.46060339 C41.9588825,7.69825047 42.8513657,7.87840725 43.1486551,8.057488 C44.1015492,8.47406212 44.5768434,9.18915541 44.5768434,10.2036902 C44.5768434,11.2171489 44.1607304,11.9931143 43.3277359,12.4705605 C42.6132574,12.9480067 41.7804166,13.1856538 40.7091602,13.1856538 C39.5183116,13.1856538 38.5664935,12.8871346 37.792219,12.2914797 C37.0190206,11.7543912 36.6614739,10.9795018 36.6614739,9.96512078 L36.6614739,9.96512078 Z M34.2805453,1.49575388 L34.2805453,4.06206567 L35.6500135,4.06206567 L35.6500135,5.73082163 L34.2805453,5.73082163 L34.2805453,10.3231286 C34.2805453,10.5020556 34.3995226,10.6811364 34.5188073,10.8005748 C34.638092,10.9198595 34.8160967,10.9795018 35.0543586,10.9795018 L35.4119053,10.9795018 C35.5307288,10.9198595 35.5903712,10.9198595 35.6500135,10.9198595 L35.6500135,13.006573 C35.3521092,13.0672914 35.0543586,13.1270874 34.875739,13.1270874 C34.638092,13.1856538 34.3403414,13.1856538 33.9240747,13.1856538 C33.328881,13.1856538 32.9121531,13.006573 32.4960402,12.5898452 C32.1384935,12.2318374 31.9598739,11.8140335 31.9598739,11.278021 L31.9598739,5.73082163 L30.7694865,5.73082163 L30.7694865,4.06206567 L31.9598739,4.06206567 L31.9598739,2.86737413 L34.2805453,1.49575388 Z M21.6637296,4.06206567 L24.0440433,4.06206567 L24.0440433,9.96512078 C24.0440433,10.2634862 24.2225092,10.5618517 24.4607712,10.8005748 C24.7580606,11.0382219 25.1156072,11.1576603 25.4726927,11.1576603 C25.9490629,11.1576603 26.3657908,11.0382219 26.7227225,10.7409324 C27.0791931,10.3827709 27.2578128,10.0246094 27.2578128,9.60695927 L27.2578128,4.06206567 L29.579099,4.06206567 L29.579099,13.006573 L27.2578128,13.006573 L27.2578128,11.8736759 C26.5436418,12.7678499 25.6511586,13.1856538 24.5800559,13.1856538 C23.8063963,13.1856538 23.1514065,12.9480067 22.6158551,12.5898452 C22.0206614,12.172195 21.6637296,11.5753104 21.6637296,10.8602171 L21.6637296,4.06206567 Z M13.9858535,7.5800418 L17.6759931,7.5800418 C17.6759931,7.16223794 17.4975272,6.7455101 17.1405955,6.44714465 C16.7238676,6.08898314 16.3071398,5.90990238 15.8312308,5.90990238 C15.3548606,5.90990238 14.9387476,6.08898314 14.581201,6.44714465 C14.1644731,6.7455101 13.9858535,7.16223794 13.9858535,7.5800418 L13.9858535,7.5800418 Z M17.6759931,10.1440478 L20.0564606,10.1440478 C19.8784559,11.1576603 19.3424433,11.8736759 18.5089876,12.4705605 C17.7954315,12.9480067 16.9024872,13.1856538 15.8312308,13.1856538 C14.581201,13.1856538 13.5697406,12.7082076 12.7960809,11.8140335 C11.9626253,10.9198595 11.5458974,9.78696233 11.5458974,8.35477743 C11.5458974,7.10244187 11.9626253,6.02934079 12.7358237,5.1948091 C13.5697406,4.35827907 14.581201,3.88190889 15.8312308,3.88190889 C17.6169656,3.88190889 18.8068919,4.53735983 19.4618817,5.79061769 C19.69999,6.20734553 19.8784559,6.7455101 19.9972794,7.28152263 C20.1161029,7.87840725 20.175899,8.47406212 20.175899,9.13058908 L13.9858535,9.13058908 C13.9858535,9.60695927 14.1644731,10.0246094 14.4623774,10.441491 C14.8789515,10.9198595 15.2956794,11.1576603 15.8312308,11.1576603 C16.2474974,11.1576603 16.6642253,11.0382219 16.9619759,10.9198595 C17.3184465,10.7409324 17.5573233,10.5020556 17.6759931,10.1440478 L17.6759931,10.1440478 Z M2.55881037,2.9280925 L2.55881037,10.8005748 L4.93973899,10.8005748 C5.8920182,10.8005748 6.54700799,10.3827709 7.02230215,9.60695927 C7.44010601,8.89186598 7.61811075,7.99661592 7.61811075,6.86387249 C7.61811075,5.90990238 7.44010601,5.01480603 7.02230215,4.29971275 C6.54700799,3.34589636 5.83237586,2.9280925 4.93973899,2.9280925 L2.55881037,2.9280925 Z M3.07434775e-05,13.006573 L3.07434775e-05,0.721018252 L5.23764329,0.721018252 C6.90393976,0.721018252 8.15304725,1.37754521 9.10578762,2.68844709 C9.87960095,3.82226654 10.2961751,5.1948091 10.2961751,6.86387249 C10.2961751,8.47406212 9.87960095,9.90532472 8.98650293,11.0989402 C8.03422371,12.3511221 6.78450135,13.006573 5.23764329,13.006573 L3.07434775e-05,13.006573 Z" transform="translate(0 49)"/>
    <g transform="translate(44 12)">
      <path d="M0,30.2961599 L30.2343655,30.2961599 L30.2343655,0 L0,0 L0,30.2961599 Z M4.22476868,26.0620145 L26.0088282,26.0620145 L26.0088282,4.17434937 L4.22476868,4.17434937 L4.22476868,26.0620145 Z"/>
      <polygon points="7 23.221 17.892 7.118 23.783 7 12.536 23.221"/>
    </g>
  </g>
</svg>
