<svg xmlns="http://www.w3.org/2000/svg" width="120" height="80" viewBox="0 0 120 80">
  <g fill="#000000" fill-opacity=".38" fill-rule="evenodd" transform="translate(0 31)">
    <path d="M11.0068966,3.22758621 L7.69655172,8.77241379 L7.69655172,12.4965517 C8.11034483,13.4068966 9.02068966,13.4896552 9.93103448,13.5724138 L9.93103448,14.0689655 L3.55862069,14.0689655 L3.55862069,13.5724138 C4.46896552,13.5724138 5.54482759,13.4068966 5.87586207,12.8275862 L5.87586207,9.02068966 L2.56551724,3.39310345 C1.9862069,2.4 1.40689655,2.15172414 0.331034483,2.06896552 L0.331034483,1.57241379 L5.87586207,1.57241379 L5.87586207,2.06896552 C4.8,2.15172414 4.46896552,2.31724138 4.22068966,2.56551724 L7.28275862,7.94482759 L10.3448276,2.56551724 C10.0137931,2.31724138 9.6,2.06896552 8.52413793,2.06896552 L8.52413793,1.57241379 L13.3241379,1.57241379 L13.3241379,2.06896552 C12.2482759,1.9862069 11.5862069,2.31724138 11.0068966,3.22758621 L11.0068966,3.22758621 Z M17.5448276,14.2344828 C16.4689655,14.2344828 15.9724138,13.4896552 15.8896552,12.9931034 C15.2275862,13.737931 14.3172414,14.2344828 13.4896552,14.2344828 C12.4137931,14.2344828 11.5034483,13.5724138 11.5034483,12.4137931 C11.5034483,11.8344828 11.6689655,11.2551724 11.9172414,10.8413793 L15.8896552,9.43448276 L15.8896552,7.94482759 C15.8896552,7.03448276 15.4758621,6.20689655 14.5655172,6.20689655 C14.0689655,6.20689655 13.4896552,6.86896552 13.4896552,7.86206897 L11.6689655,8.19310345 L11.6689655,8.02758621 C12.2482759,6.20689655 14.2344828,5.54482759 15.1448276,5.54482759 C16.9655172,5.54482759 17.6275862,6.53793103 17.6275862,7.94482759 L17.5448276,12.0827586 C17.5448276,12.9103448 17.9586207,13.0758621 18.3724138,13.0758621 C18.7034483,13.0758621 19.0344828,12.9103448 19.3655172,12.4965517 L19.3655172,13.0758621 C19.0344828,13.6551724 18.2068966,14.2344828 17.5448276,14.2344828 L17.5448276,14.2344828 Z M13.5724138,11.0068966 C13.4896552,11.337931 13.4068966,11.5862069 13.4068966,12 C13.4068966,12.5793103 13.737931,13.1586207 14.4,13.1586207 C14.9793103,13.1586207 15.3103448,12.9931034 15.8896552,12.5793103 L15.8896552,9.93103448 C15.3931034,10.1793103 14.1517241,10.7586207 13.5724138,11.0068966 L13.5724138,11.0068966 Z M19.6137931,14.0689655 L19.6137931,13.5724138 C20.5241379,13.4896552 20.7724138,13.3241379 20.937931,12.9931034 L20.937931,2.73103448 C20.937931,2.06896552 20.8551724,1.73793103 19.4482759,1.65517241 L19.4482759,1.24137931 L23.0896552,0.331034483 L23.1724138,0.662068966 L22.5931034,1.40689655 L22.5931034,12.9931034 C22.7586207,13.4068966 23.1724138,13.4896552 24,13.5724138 L24,14.0689655 L19.6137931,14.0689655 L19.6137931,14.0689655 Z M28.8,14.2344828 C26.7310345,14.2344828 25.0758621,12.5793103 25.0758621,10.262069 C25.0758621,7.44827586 26.8137931,5.54482759 29.2137931,5.54482759 C31.2,5.54482759 32.2758621,6.62068966 32.2758621,8.44137931 L32.2758621,8.77241379 L26.8965517,8.77241379 C26.8965517,9.02068966 26.8137931,9.35172414 26.8137931,9.76551724 C26.8137931,11.7517241 28.0551724,13.1586207 29.7931034,13.1586207 C30.7862069,13.1586207 31.2827586,12.8275862 32.1103448,12.1655172 L32.4413793,12.662069 C31.3655172,13.5724138 30.4551724,14.2344828 28.8,14.2344828 L28.8,14.2344828 Z M28.9655172,6.12413793 C27.9724138,6.12413793 27.3103448,6.95172414 27.062069,8.19310345 L30.537931,8.19310345 C30.537931,7.11724138 29.8758621,6.12413793 28.9655172,6.12413793 L28.9655172,6.12413793 Z" transform="translate(0 .61)"/>
    <g transform="translate(37.241 1.437)">
      <path d="M12.2482759 1.9862069L12.2482759 8.27586207C12.2482759 11.9172414 10.0137931 13.5724138 7.03448276 13.5724138 3.97241379 13.5724138 2.06896552 11.7517241 2.06896552 8.68965517L2.06896552 1.90344828C1.90344828 1.48965517 1.07586207 1.24137931.248275862 1.15862069L.248275862.662068966 5.79310345.662068966 5.79310345 1.15862069C4.88275862 1.15862069 4.05517241 1.48965517 3.88965517 1.90344828L3.88965517 8.27586207C3.88965517 10.7586207 5.13103448 12.2482759 7.53103448 12.2482759 10.0137931 12.2482759 11.2551724 10.7586207 11.2551724 7.86206897L11.2551724 5.29655172C11.2551724 4.13793103 11.1724138 2.56551724 11.1724138 1.90344828 11.0068966 1.48965517 9.93103448 1.07586207 8.93793103.993103448L8.93793103.496551724 14.0689655.496551724 14.0689655.993103448C13.1586207 1.15862069 12.4137931 1.57241379 12.2482759 1.9862069L12.2482759 1.9862069zM19.7793103 13.2413793L19.7793103 12.7448276C20.7724138 12.662069 20.8551724 12.4965517 21.0206897 12.1655172L21.0206897 7.86206897C21.0206897 6.7862069 20.2758621 5.87586207 19.2827586 5.87586207 18.7862069 5.87586207 17.9586207 6.20689655 17.3793103 6.53793103L17.3793103 12.1655172C17.6275862 12.5793103 17.7103448 12.662069 18.7034483 12.7448276L18.7034483 13.2413793 14.4 13.2413793 14.4 12.7448276C15.3931034 12.662069 15.4758621 12.4965517 15.7241379 12.1655172L15.7241379 7.03448276C15.7241379 6.62068966 15.3931034 6.20689655 14.4827586 5.95862069L14.4827586 5.54482759 17.1310345 4.63448276 17.3793103 4.63448276 17.3793103 6.04137931C18.2896552 5.37931034 19.6965517 4.63448276 20.4413793 4.63448276 22.1793103 4.63448276 22.7586207 5.71034483 22.7586207 7.36551724L22.7586207 12.2482759C23.1724138 12.5793103 23.5862069 12.5793103 24.4137931 12.662069L24.4137931 13.2413793 19.7793103 13.2413793 19.7793103 13.2413793zM24.9931034 13.2413793L24.9931034 12.7448276C25.9862069 12.662069 26.1517241 12.4965517 26.3172414 12.1655172L26.3172414 7.03448276C26.3172414 6.53793103 26.0689655 6.20689655 25.0758621 5.95862069L25.0758621 5.62758621 27.8068966 4.71724138 28.0551724 4.71724138 28.0551724 12.2482759C28.3034483 12.662069 28.3862069 12.7448276 29.3793103 12.8275862L29.3793103 13.2413793 24.9931034 13.2413793 24.9931034 13.2413793zM27.062069 2.31724138C26.4 2.31724138 25.9034483 1.73793103 25.9034483 1.24137931 25.9034483.744827586 26.4.165517241 27.062069.165517241 27.7241379.165517241 28.137931.744827586 28.137931 1.24137931 28.137931 1.82068966 27.7241379 2.31724138 27.062069 2.31724138L27.062069 2.31724138zM36.662069 6.12413793C36.4965517 5.79310345 36 5.46206897 35.1724138 5.46206897L35.1724138 4.96551724 38.7310345 4.96551724 38.7310345 5.46206897C37.9034483 5.46206897 37.4068966 6.04137931 37.2413793 6.53793103L34.3448276 13.2413793 33.6 13.4068966 30.7862069 6.37241379C30.537931 5.87586207 30.1241379 5.54482759 29.2965517 5.46206897L29.2965517 4.96551724 33.7655172 4.96551724 33.7655172 5.46206897C33.1034483 5.46206897 32.7724138 5.62758621 32.5241379 5.79310345L34.6758621 11.2551724 36.662069 6.12413793 36.662069 6.12413793zM42.7862069 13.4068966C40.7172414 13.4068966 39.062069 11.7517241 39.062069 9.43448276 39.062069 6.62068966 40.8 4.71724138 43.2 4.71724138 45.1862069 4.71724138 46.262069 5.79310345 46.262069 7.6137931L46.262069 7.94482759 40.8827586 7.94482759C40.8827586 8.19310345 40.8 8.52413793 40.8 8.93793103 40.8 10.9241379 42.0413793 12.3310345 43.7793103 12.3310345 44.7724138 12.3310345 45.2689655 12 46.0965517 11.337931L46.4275862 11.8344828C45.3517241 12.7448276 44.4413793 13.4068966 42.7862069 13.4068966L42.7862069 13.4068966zM42.9517241 5.29655172C41.9586207 5.29655172 41.2965517 6.12413793 41.0482759 7.36551724L44.5241379 7.36551724C44.5241379 6.28965517 43.862069 5.29655172 42.9517241 5.29655172L42.9517241 5.29655172zM53.2965517 6.86896552L53.1310345 6.86896552C52.5517241 6.53793103 52.137931 6.28965517 51.6413793 6.28965517 51.1448276 6.28965517 50.8965517 6.62068966 50.4827586 7.03448276L50.4827586 12.1655172C50.7310345 12.5793103 51.4758621 12.662069 52.3034483 12.7448276L52.3034483 13.2413793 47.5862069 13.2413793 47.5862069 12.7448276C48.5793103 12.662069 48.662069 12.4965517 48.8275862 12.1655172L48.8275862 6.95172414C48.8275862 6.53793103 48.5793103 6.20689655 47.5862069 5.95862069L47.5862069 5.54482759 50.2344828 4.63448276 50.4 4.63448276 50.4 6.53793103C51.3103448 5.54482759 52.0551724 4.71724138 52.8 4.71724138 53.2965517 4.71724138 53.7931034 4.88275862 54.2068966 5.13103448L53.2965517 6.86896552 53.2965517 6.86896552zM57.7655172 13.4068966C56.2758621 13.4068966 55.3655172 13.0758621 54.8689655 12.9103448L54.6206897 10.7586207 55.1172414 10.7586207C55.6965517 11.8344828 56.6896552 12.8275862 57.1034483 12.8275862 58.7586207 12.8275862 59.1724138 12.0827586 59.1724138 11.337931 59.1724138 10.5103448 58.4275862 10.1793103 57.3517241 9.68275862 55.6965517 9.02068966 54.8689655 8.35862069 54.8689655 7.03448276 54.8689655 5.71034483 56.2758621 4.63448276 58.0137931 4.63448276 59.0896552 4.63448276 60 4.96551724 60.4965517 5.13103448L60.5793103 7.2 60.1655172 7.2C59.5862069 6.12413793 58.7586207 5.2137931 58.262069 5.2137931 56.6896552 5.2137931 56.3586207 6.04137931 56.3586207 6.53793103 56.3586207 7.36551724 56.6896552 7.69655172 58.262069 8.35862069 59.8344828 8.93793103 60.7448276 9.6 60.7448276 10.8413793 60.7448276 12.2482759 59.5034483 13.4068966 57.7655172 13.4068966L57.7655172 13.4068966zM62.1517241 13.2413793L62.1517241 12.7448276C63.1448276 12.662069 63.3103448 12.4965517 63.4758621 12.1655172L63.4758621 7.03448276C63.4758621 6.53793103 63.2275862 6.20689655 62.2344828 5.95862069L62.2344828 5.62758621 64.9655172 4.71724138 65.2137931 4.71724138 65.2137931 12.2482759C65.462069 12.662069 65.5448276 12.7448276 66.537931 12.8275862L66.537931 13.2413793 62.1517241 13.2413793 62.1517241 13.2413793zM64.2206897 2.31724138C63.5586207 2.31724138 63.062069 1.73793103 63.062069 1.24137931 63.062069.744827586 63.5586207.165517241 64.2206897.165517241 64.8827586.165517241 65.2965517.744827586 65.2965517 1.24137931 65.2965517 1.82068966 64.8827586 2.31724138 64.2206897 2.31724138L64.2206897 2.31724138zM70.6758621 13.4068966C68.8551724 13.4068966 68.2758621 12.4137931 68.2758621 10.8413793 68.2758621 8.93793103 68.3586207 7.77931034 68.3586207 5.87586207L67.2827586 5.87586207 67.2827586 5.46206897 69.6827586 3.14482759 70.0965517 3.14482759 70.0965517 4.96551724 72.8275862 4.96551724 72.8275862 5.87586207 70.0965517 5.87586207 70.0965517 10.5931034C70.0965517 11.6689655 70.8413793 12.4137931 72 12.4137931 72.4965517 12.4137931 73.1586207 12.0827586 73.3241379 12L73.3241379 12.4137931C72.7448276 12.8275862 71.337931 13.4068966 70.6758621 13.4068966L70.6758621 13.4068966zM80.1103448 6.12413793C80.0275862 5.79310345 79.5310345 5.46206897 78.7034483 5.46206897L78.7034483 4.96551724 82.262069 4.96551724 82.262069 5.46206897C81.4344828 5.46206897 80.937931 6.04137931 80.7724138 6.53793103L78.2896552 12.4137931C77.8758621 13.4068966 77.0482759 15.6413793 76.3034483 17.3793103 76.0551724 17.9586207 75.7241379 18.2068966 75.1448276 18.2068966 74.4827586 18.2068966 74.1517241 17.7103448 74.1517241 17.2137931 74.1517241 16.7172414 74.4827586 16.2206897 75.1448276 16.2206897 75.3103448 16.2206897 75.6413793 16.3034483 75.8896552 16.3862069L77.1310345 13.4896552 74.3172414 6.20689655C74.1517241 5.71034483 73.8206897 5.37931034 72.9931034 5.29655172L72.9931034 4.96551724 77.2965517 4.96551724 77.2965517 5.46206897C76.6344828 5.46206897 76.3034483 5.62758621 75.9724138 5.79310345L78.1241379 11.337931 80.1103448 6.12413793 80.1103448 6.12413793z"/>
    </g>
  </g>
</svg>
