<svg xmlns="http://www.w3.org/2000/svg" width="120" height="80" viewBox="0 0 120 80">
  <g fill="#000000" fill-opacity=".38" fill-rule="evenodd" transform="translate(0 35)">
    <path d="M16.0087013 1.93850649C14.9456494 2.10779221 14.5088961 2.00181818 14.4225974 1.60227273 14.3464286 1.25045455 14.4806494.874675325 15.6956494.581298701 21.119026-.728961039 35.2702597.00116883117 35.6304545 4.66636364 35.7566883 6.30311688 33.4488312 7.81032468 26.9501299 8.88136364 24.186039 9.33701299 17.3883117 9.46538961 17.4490909 7.23915584 17.4490909 7.23915584 17.5842857 4.55415584 17.6033766 4.17311688 17.6242208 3.81077922 17.9555844 3.39584416 18.592987 3.41551948 19.079026 3.43090909 19.5331169 3.66058442 19.567013 4.48909091 19.6088961 5.51337662 19.6967532 6.42798701 19.6967532 6.42798701 19.6979221 6.75194805 19.8903896 7.37064935 21.4759091 7.53019481 25.5333117 7.93850649 31.3794156 6.54818182 31.3961688 4.73474026 31.4234416 1.77 22.1976623 1.33655844 16.0087013 1.93850649M14.4409091 4.9574026C14.4294156 4.67123377 14.0682468 4.24987013 13.6355844 4.19103896 11.9931818 3.9674026 8.80675325 4.10298701 7.69675325 4.15948052 6.58714286 4.21616883 6.67792208 5.36376623 7.69675325 5.45025974 8.37058442 5.50753247 11.4109091 5.68597403 11.4109091 5.68597403 11.6571429 5.68597403 11.8706494 5.82525974 11.8706494 6.05357143 11.8706494 6.6337013 10.4006494 7.6237013 6.94207792 7.6237013 4.50837662 7.6237013 2.91077922 6.46071429 2.91077922 4.72344156 2.91077922 2.2911039 6.19090909 1.0011039 10.6611039 1.67493506 11.2348052 1.76162338 11.8531169 1.35720779 11.8342208.952792208 11.7923377.0905844156 9.07519481.00564935065 7.91396104.00564935065 2.82467532.00564935065.0311688312 1.92019481.0311688312 4.72344156.0311688312 7.34863636 2.28564935 9.1124026 6.56941558 9.11532468 12.2633766 9.11941558 14.5127922 6.75194805 14.4409091 4.9574026M52.0612987.743571429C52.0256494.368571429 51.5355195.222857143 50.9998052.186038961 48.8645455.0385714286 42.9364286-.336038961 39.8984416 1.07824675 38.2864286 1.82863636 37.5742208 2.90707792 37.3223377 4.05097403 36.998961 5.52058442 36.9952597 7.91746753 37.6005195 8.55292208 38.2885714 9.27506494 40.0063636 8.77285714 39.9861039 8.07720779 39.9712987 7.5525974 39.8879221 6.74006494 39.8879221 6.74006494 39.8248052 5.2538961 42.5025974 5.79116883 45.7552597 5.41480519 46.6920779 5.38188312 46.8800649 4.035 45.6574675 4.07805195 45.1887662 4.09461039 41.6662987 4.19103896 40.8208442 4.21461039 40.7051299 4.21714286 40.6622727 4.11720779 40.6655844 4.06655844 40.8613636 1.08058442 51.1051948 1.39441558 51.3625325 1.37084416 51.8875325 1.32272727 52.0868182 1.01474026 52.0612987.743571429M73.8122727.832012987C73.6891558.564935065 73.462987.417662338 73.1236364.417662338 72.5750649.417662338 72.3056494.832012987 72.3056494 1.20954545 72.3056494 1.61025974 73.0868182 3.48175325 74.5414286 5.25077922 75.7379221 6.71357143 78.1474675 8.78883117 81.3777273 8.78883117 85.1955195 8.78883117 89.2373377 6.3787013 93.3853247 1.67961039 93.5577273 1.47779221 93.7266234 1.27733766 93.7266234 1.04181818 93.7266234.698181818 93.4233117.417662338 93.0116883.417662338 92.7952597.417662338 92.6415584.532207792 92.3059091.832012987 88.6996753 4.13084416 84.9824026 5.96902597 81.9629221 5.96902597 78.8590909 5.96902597 75.7024675 4.00032468 73.8122727.832012987M110.913896 5.93649351L118.215 2.43077922C118.590584 2.26616883 118.805844 1.84753247 118.805844 1.40844156 118.805844.832012987 118.348442.316753247 117.678506.316753247L108.827727.316753247C108.452727.316753247 108.216429.633506494 108.216429.975779221 108.216429 1.37844156 108.452727 1.61025974 108.793636 1.64668831L113.667468 2.23090909C114.075 2.26616883 114.141623 2.50422078 114.141623 2.68012987 114.141623 2.77675325 114.075 2.97623377 113.873377 3.07811688L108.396818 5.55409091C107.646818 5.90337662 107.273961 6.3787013 107.273961 7.04902597 107.273961 7.87753247 107.983831 8.68402597 108.827727 8.68402597L119.163117 8.68402597C119.603377 8.68402597 119.903571 8.38032468 119.903571 8.01116883 119.903571 7.60227273 119.603377 7.35448052 119.263247 7.32350649L111.008766 6.64811688C110.775779 6.61480519 110.607662 6.51272727 110.607662 6.31032468 110.607662 6.14590909 110.674675 6.03857143 110.913896 5.93649351M101.51961 7.67084416C99.164026 7.67084416 96.7005195 6.88188312 96.7005195 4.44720779 96.7005195 2.70818182 97.98 1.54285714 99.9288312 1.54285714 102.697597 1.54285714 103.873636 2.53363636 103.873636 3.11532468 103.873636 3.34558442 103.703571 3.48175325 103.50487 3.48175325L99.5974675 3.71883117C99.2234416 3.74571429 98.9585065 4.00032468 98.9585065 4.38779221 98.9585065 4.74409091 99.2234416 5.01272727 99.5974675 5.01272727L103.667727 5.18376623C104.846494 5.21863636 105.563377 4.36753247 105.563377 3.44902597 105.563377 1.14233766 102.428571.0492857143 99.6307792.0492857143 96.2000649.0492857143 93.9385714 1.81792208 93.9385714 4.44720779 93.9385714 7.25201299 96.6315584 9.1687013 100.706494 9.1687013 103.401818 9.1687013 105.155065 8.64974026 105.628052 8.38032468 105.794221 8.27961039 106.133571 8.14558442 106.133571 7.77233766 106.133571 7.40006494 105.830065 7.1511039 105.423701 7.1511039 104.992987 7.1511039 103.401818 7.67084416 101.51961 7.67084416M67.7417532 6.68571429C66.8123377 6.93857143 64.5225974 6.95201299 63.8016234 6.95201299 60.3685714 6.95201299 58.1756494 6.75038961 57.8888961 6.75038961 57.3720779 6.75038961 57.1369481 7.08525974 57.1369481 7.40006494 57.1369481 7.84792208 57.6187013 8.01116883 58.1464286 8.11285714 58.6330519 8.21474026 62.3686364 8.7525974 67.0075325 8.7525974 68.9082468 8.7525974 70.5675974 8.60337662 71.8581818 8.34818182 72.4217532 8.23694805 72.742013 7.8788961 72.8125325 7.4737013 72.8857792 7.05058442 72.698961 6.67616883 72.2086364 6.27701299 71.6996104 5.86246753 67.6203896 3.59396104 67.0131818 3.22188312 66.1724026 2.70701299 66.3442208 1.84422078 67.0722078 1.7812987 67.5827922 1.73727273 69.7285714 1.58649351 70.2533766 1.54285714 70.6936364 1.50603896 70.9085065 1.20954545 70.9085065.921038961 70.9085065.491493506 70.477013.350064935 70.1281169.316753247 69.0701299.183116883 67.439026.0796753247 66.3584416.0796753247 65.0224675.0796753247 63.4264286.254025974 62.8544805.417662338 62.4224026.541558442 62.2081169.852272727 62.1921429 1.14409091 62.1734416 1.485 62.4097403 1.81519481 62.6392208 2.01974026 63.4149351 2.71051948 67.6135714 5.00493506 68.1237662 5.33123377 68.633961 5.65753247 68.6398052 6.44123377 67.7417532 6.68571429"/>
  </g>
</svg>
