<?xml version="1.0" encoding="UTF-8" standalone="no"?>
<svg width="192px" height="40px" viewBox="0 0 192 40" version="1.1" xmlns="http://www.w3.org/2000/svg" xmlns:xlink="http://www.w3.org/1999/xlink">
    <!-- Generator: Sketch 39.1 (31720) - http://www.bohemiancoding.com/sketch -->
    <title>Logo</title>
    <desc>Created with Sketch.</desc>
    <defs>
        <path d="M20,40 C31.045695,40 40,31.045695 40,20 C40,8.954305 31.045695,0 20,0 C8.954305,0 0,8.954305 0,20" id="path-1"></path>
        <mask id="mask-2" maskContentUnits="userSpaceOnUse" maskUnits="objectBoundingBox" x="0" y="0" width="40" height="40" fill="white">
            <use xlink:href="#path-1"></use>
        </mask>
        <path d="M20,32 C26.627417,32 32,26.627417 32,20 C32,13.372583 26.627417,8 20,8 C13.372583,8 8,13.372583 8,20" id="path-3"></path>
        <mask id="mask-4" maskContentUnits="userSpaceOnUse" maskUnits="objectBoundingBox" x="0" y="0" width="24" height="24" fill="white">
            <use xlink:href="#path-3"></use>
        </mask>
    </defs>
    <g id="Elements" stroke="none" stroke-width="1" fill="none" fill-rule="evenodd">
        <g id="Logo">
            <use id="Outer" stroke="#2196F3" mask="url(#mask-2)" stroke-width="6" transform="translate(20.000000, 20.000000) rotate(90.000000) translate(-20.000000, -20.000000) " xlink:href="#path-1"></use>
            <use id="Inner" stroke="#2196F3" mask="url(#mask-4)" stroke-width="6" transform="translate(20.000000, 20.000000) rotate(270.000000) translate(-20.000000, -20.000000) " xlink:href="#path-3"></use>
            <circle id="Circle" fill="#F44336" cx="20" cy="20" r="4"></circle>
            <path d="M52.48,15.28 C52.0399978,15.5600014 51.82,15.9833305 51.82,16.55 C51.82,17.1166695 52.0399978,17.5499985 52.48,17.85 C52.9200022,18.1500015 53.8566595,18.4733316 55.29,18.82 C56.7233405,19.1666684 57.8033297,19.6533302 58.53,20.28 C59.2566703,20.9066698 59.62,21.8299939 59.62,23.05 C59.62,24.2700061 59.1600046,25.2599962 58.24,26.02 C57.3199954,26.7800038 56.1133408,27.16 54.62,27.16 C52.4333224,27.16 50.4933418,26.4066742 48.8,24.9 L50.28,23.12 C51.6933404,24.3466728 53.1599924,24.96 54.68,24.96 C55.4400038,24.96 56.0433311,24.7966683 56.49,24.47 C56.9366689,24.1433317 57.16,23.7100027 57.16,23.17 C57.16,22.6299973 56.9500021,22.2100015 56.53,21.91 C56.1099979,21.6099985 55.3866718,21.3366679 54.36,21.09 C53.3333282,20.8433321 52.553336,20.6166677 52.02,20.41 C51.486664,20.2033323 51.0133354,19.933335 50.6,19.6 C49.7733292,18.9733302 49.36,18.0133398 49.36,16.72 C49.36,15.4266602 49.8299953,14.4300035 50.77,13.73 C51.7100047,13.0299965 52.8733264,12.68 54.26,12.68 C55.1533378,12.68 56.0399956,12.8266652 56.92,13.12 C57.8000044,13.4133348 58.5599968,13.826664 59.2,14.36 L57.94,16.14 C57.5266646,15.7666648 56.9666702,15.4600012 56.26,15.22 C55.5533298,14.9799988 54.8566701,14.86 54.17,14.86 C53.4833299,14.86 52.9200022,14.9999986 52.48,15.28 L52.48,15.28 Z M72.27,22.66 L63.93,22.66 C63.9833336,23.4333372 64.3366634,24.0566643 64.99,24.53 C65.6433366,25.0033357 66.3899958,25.24 67.23,25.24 C68.56334,25.24 69.5766632,24.8200042 70.27,23.98 L71.55,25.38 C70.4033276,26.5666726 68.9100092,27.16 67.07,27.16 C65.5766592,27.16 64.3066719,26.6633383 63.26,25.67 C62.2133281,24.6766617 61.69,23.3433417 61.69,21.67 C61.69,19.9966583 62.223328,18.6666716 63.29,17.68 C64.356672,16.6933284 65.6133261,16.2 67.06,16.2 C68.5066739,16.2 69.7366616,16.6366623 70.75,17.51 C71.7633384,18.3833377 72.27,19.586659 72.27,21.12 L72.27,22.66 Z M63.93,20.9 L70.03,20.9 C70.03,20.0066622 69.7500028,19.3200024 69.19,18.84 C68.6299972,18.3599976 67.9400041,18.12 67.12,18.12 C66.2999959,18.12 65.5633366,18.3699975 64.91,18.87 C64.2566634,19.3700025 63.93,20.0466624 63.93,20.9 L63.93,20.9 Z M77.12,21.24 L77.12,27 L74.88,27 L74.88,16.36 L77.12,16.36 L77.12,18.3 C77.4800018,17.6466634 77.9766635,17.1333352 78.61,16.76 C79.2433365,16.3866648 79.926663,16.2 80.66,16.2 C81.860006,16.2 82.8299963,16.566663 83.57,17.3 C84.3100037,18.033337 84.68,19.0933264 84.68,20.48 L84.68,27 L82.44,27 L82.44,21.16 C82.44,19.1999902 81.6266748,18.22 80,18.22 C79.2266628,18.22 78.5533362,18.4766641 77.98,18.99 C77.4066638,19.5033359 77.12,20.2533284 77.12,21.24 L77.12,21.24 Z M94.43,26.25 C93.696663,26.8566697 92.7566724,27.16 91.61,27.16 C90.8366628,27.16 90.0333375,27.0200014 89.2,26.74 C88.3666625,26.4599986 87.6300032,26.0666692 86.99,25.56 L88.07,23.82 C89.3100062,24.753338 90.5099942,25.22 91.67,25.22 C92.1766692,25.22 92.5766652,25.1033345 92.87,24.87 C93.1633348,24.6366655 93.31,24.3400018 93.31,23.98 C93.31,23.446664 92.6033404,22.9666688 91.19,22.54 C91.0833328,22.4999998 91.0033336,22.4733334 90.95,22.46 C88.7366556,21.859997 87.63,20.860007 87.63,19.46 C87.63,18.4733284 88.0133295,17.6833363 88.78,17.09 C89.5466705,16.4966637 90.5433272,16.2 91.77,16.2 C92.9966728,16.2 94.1566612,16.5599964 95.25,17.28 L94.41,18.94 C93.543329,18.3666638 92.6033384,18.08 91.59,18.08 C91.056664,18.08 90.623335,18.1766657 90.29,18.37 C89.956665,18.5633343 89.79,18.8533314 89.79,19.24 C89.79,19.5866684 89.9633316,19.8399992 90.31,20 C90.5500012,20.1200006 90.8866645,20.2333328 91.32,20.34 C91.7533355,20.4466672 92.136665,20.5533328 92.47,20.66 C92.803335,20.7666672 93.1266651,20.886666 93.44,21.02 C93.7533349,21.153334 94.0899982,21.3399988 94.45,21.58 C95.1700036,22.0600024 95.53,22.8066616 95.53,23.82 C95.53,24.8333384 95.163337,25.6433303 94.43,26.25 L94.43,26.25 Z M103.12,25.16 C104.093338,25.16 104.896664,24.8366699 105.53,24.19 C106.163337,23.5433301 106.48,22.7066718 106.48,21.68 C106.48,20.6533282 106.163337,19.8166699 105.53,19.17 C104.896664,18.5233301 104.093338,18.2 103.12,18.2 C102.146662,18.2 101.343337,18.5233301 100.71,19.17 C100.076664,19.8166699 99.76,20.6533282 99.76,21.68 C99.76,22.7066718 100.076664,23.5433301 100.71,24.19 C101.343337,24.8366699 102.146662,25.16 103.12,25.16 L103.12,25.16 Z M103.12,27.16 C101.519992,27.16 100.186672,26.6300053 99.12,25.57 C98.053328,24.5099947 97.52,23.213341 97.52,21.68 C97.52,20.146659 98.053328,18.8500053 99.12,17.79 C100.186672,16.7299947 101.519992,16.2 103.12,16.2 C104.720008,16.2 106.053328,16.7299947 107.12,17.79 C108.186672,18.8500053 108.72,20.146659 108.72,21.68 C108.72,23.213341 108.186672,24.5099947 107.12,25.57 C106.053328,26.6300053 104.720008,27.16 103.12,27.16 L103.12,27.16 Z M116.99,18.46 C115.883328,18.46 115.050003,18.8199964 114.49,19.54 C113.929997,20.2600036 113.65,21.2266606 113.65,22.44 L113.65,27 L111.41,27 L111.41,16.36 L113.65,16.36 L113.65,18.5 C114.010002,17.83333 114.499997,17.2866688 115.12,16.86 C115.740003,16.4333312 116.396663,16.2133334 117.09,16.2 L117.11,18.46 C117.07,18.46 117.03,18.46 116.99,18.46 L116.99,18.46 Z M127.81,15.22 L127.81,19.06 L134.01,19.06 L134.01,21.24 L127.81,21.24 L127.81,27 L125.45,27 L125.45,13.02 L134.77,13.02 L134.75,15.22 L127.81,15.22 Z M141.96,25.16 C142.933338,25.16 143.736664,24.8366699 144.37,24.19 C145.003337,23.5433301 145.32,22.7066718 145.32,21.68 C145.32,20.6533282 145.003337,19.8166699 144.37,19.17 C143.736664,18.5233301 142.933338,18.2 141.96,18.2 C140.986662,18.2 140.183337,18.5233301 139.55,19.17 C138.916664,19.8166699 138.6,20.6533282 138.6,21.68 C138.6,22.7066718 138.916664,23.5433301 139.55,24.19 C140.183337,24.8366699 140.986662,25.16 141.96,25.16 L141.96,25.16 Z M141.96,27.16 C140.359992,27.16 139.026672,26.6300053 137.96,25.57 C136.893328,24.5099947 136.36,23.213341 136.36,21.68 C136.36,20.146659 136.893328,18.8500053 137.96,17.79 C139.026672,16.7299947 140.359992,16.2 141.96,16.2 C143.560008,16.2 144.893328,16.7299947 145.96,17.79 C147.026672,18.8500053 147.56,20.146659 147.56,21.68 C147.56,23.213341 147.026672,24.5099947 145.96,25.57 C144.893328,26.6300053 143.560008,27.16 141.96,27.16 L141.96,27.16 Z M154.97,27.16 C153.489993,27.16 152.216672,26.6566717 151.15,25.65 C150.083328,24.6433283 149.55,23.3266748 149.55,21.7 C149.55,20.0733252 150.106661,18.7500051 151.22,17.73 C152.333339,16.7099949 153.689992,16.2 155.29,16.2 C156.890008,16.2 158.243328,16.7533278 159.35,17.86 L158.03,19.48 C157.109995,18.679996 156.183338,18.28 155.25,18.28 C154.316662,18.28 153.50667,18.5899969 152.82,19.21 C152.13333,19.8300031 151.79,20.6299951 151.79,21.61 C151.79,22.5900049 152.129997,23.4199966 152.81,24.1 C153.490003,24.7800034 154.326662,25.12 155.32,25.12 C156.313338,25.12 157.249996,24.6666712 158.13,23.76 L159.45,25.2 C158.15666,26.5066732 156.663342,27.16 154.97,27.16 L154.97,27.16 Z M169.36,22.12 L169.36,16.36 L171.6,16.36 L171.6,27 L169.36,27 L169.36,25.06 C168.999998,25.7133366 168.503337,26.2266648 167.87,26.6 C167.236664,26.9733352 166.553337,27.16 165.82,27.16 C164.619994,27.16 163.650004,26.793337 162.91,26.06 C162.169996,25.326663 161.8,24.2666736 161.8,22.88 L161.8,16.36 L164.04,16.36 L164.04,22.2 C164.04,24.1600098 164.853325,25.14 166.48,25.14 C167.253337,25.14 167.926664,24.8833359 168.5,24.37 C169.073336,23.8566641 169.36,23.1066716 169.36,22.12 L169.36,22.12 Z M181.47,26.25 C180.736663,26.8566697 179.796672,27.16 178.65,27.16 C177.876663,27.16 177.073338,27.0200014 176.24,26.74 C175.406663,26.4599986 174.670003,26.0666692 174.03,25.56 L175.11,23.82 C176.350006,24.753338 177.549994,25.22 178.71,25.22 C179.216669,25.22 179.616665,25.1033345 179.91,24.87 C180.203335,24.6366655 180.35,24.3400018 180.35,23.98 C180.35,23.446664 179.64334,22.9666688 178.23,22.54 C178.123333,22.4999998 178.043334,22.4733334 177.99,22.46 C175.776656,21.859997 174.67,20.860007 174.67,19.46 C174.67,18.4733284 175.05333,17.6833363 175.82,17.09 C176.586671,16.4966637 177.583327,16.2 178.81,16.2 C180.036673,16.2 181.196661,16.5599964 182.29,17.28 L181.45,18.94 C180.583329,18.3666638 179.643338,18.08 178.63,18.08 C178.096664,18.08 177.663335,18.1766657 177.33,18.37 C176.996665,18.5633343 176.83,18.8533314 176.83,19.24 C176.83,19.5866684 177.003332,19.8399992 177.35,20 C177.590001,20.1200006 177.926665,20.2333328 178.36,20.34 C178.793336,20.4466672 179.176665,20.5533328 179.51,20.66 C179.843335,20.7666672 180.166665,20.886666 180.48,21.02 C180.793335,21.153334 181.129998,21.3399988 181.49,21.58 C182.210004,22.0600024 182.57,22.8066616 182.57,23.82 C182.57,24.8333384 182.203337,25.6433303 181.47,26.25 L181.47,26.25 Z" id="Title" fill-opacity="0.54" fill="#000000"></path>
        </g>
    </g>
</svg>