<?xml version="1.0" encoding="UTF-8" standalone="no"?>
<svg xmlns="http://www.w3.org/2000/svg" height="40px" width="192px" version="1.1" xmlns:xlink="http://www.w3.org/1999/xlink" viewBox="0 0 192 40"><!-- Generator: Sketch 39.1 (31720) - http://www.bohemiancoding.com/sketch -->
 <title>Logo</title>
 <desc>Created with Sketch.</desc>
 <defs>
  <path id="path-1" d="m8 20c0 6.627 5.373 12 12 12s12-5.373 12-12-5.373-12-12-12"/>
  <mask id="mask-2" maskContentUnits="userSpaceOnUse" height="24" width="24" y="0" x="0" maskUnits="objectBoundingBox" fill="white">
   <use xlink:href="#path-1"/>
  </mask>
  <path id="path-3" d="m27 20c0-3.866-3.134-7-7-7s-7 3.134-7 7 3.134 7 7 7"/>
  <mask id="mask-4" maskContentUnits="userSpaceOnUse" height="14" width="14" y="0" x="0" maskUnits="objectBoundingBox" fill="white">
   <use xlink:href="#path-3"/>
  </mask>
 </defs>
 <g id="Elements" fill-rule="evenodd" fill="none">
  <g id="Logo">
   <use id="Outer" xlink:href="#path-1" stroke="#2196F3" stroke-width="4" mask="url(#mask-2)"/>
   <use id="Inner" xlink:href="#path-3" stroke="#2196F3" stroke-width="4" mask="url(#mask-4)"/>
   <path id="Title" fill-opacity=".54" fill="#000" d="m44.48 15.28c-0.44 0.28-0.66 0.703-0.66 1.27s0.22 1 0.66 1.3 1.377 0.623 2.81 0.97 2.513 0.833 3.24 1.46 1.09 1.55 1.09 2.77-0.46 2.21-1.38 2.97-2.127 1.14-3.62 1.14c-2.187 0-4.127-0.753-5.82-2.26l1.48-1.78c1.413 1.227 2.88 1.84 4.4 1.84 0.76 0 1.363-0.163 1.81-0.49s0.67-0.76 0.67-1.3-0.21-0.96-0.63-1.26-1.143-0.573-2.17-0.82-1.807-0.473-2.34-0.68-1.007-0.477-1.42-0.81c-0.827-0.627-1.24-1.587-1.24-2.88s0.47-2.29 1.41-2.99 2.103-1.05 3.49-1.05c0.893 0 1.78 0.147 2.66 0.44s1.64 0.707 2.28 1.24l-1.26 1.78c-0.413-0.373-0.973-0.68-1.68-0.92s-1.403-0.36-2.09-0.36-1.25 0.14-1.69 0.42zm19.79 7.38h-8.34c0.053 0.773 0.407 1.397 1.06 1.87s1.4 0.71 2.24 0.71c1.333 0 2.347-0.42 3.04-1.26l1.28 1.4c-1.147 1.187-2.64 1.78-4.48 1.78-1.493 0-2.763-0.497-3.81-1.49s-1.57-2.327-1.57-4 0.533-3.003 1.6-3.99 2.323-1.48 3.77-1.48 2.677 0.437 3.69 1.31 1.52 2.077 1.52 3.61v1.54zm-8.34-1.76h6.1c0-0.893-0.28-1.58-0.84-2.06s-1.25-0.72-2.07-0.72-1.557 0.25-2.21 0.75-0.98 1.177-0.98 2.03zm13.19 0.34v5.76h-2.24v-10.64h2.24v1.94c0.36-0.653 0.857-1.167 1.49-1.54s1.317-0.56 2.05-0.56c1.2 0 2.17 0.367 2.91 1.1s1.11 1.793 1.11 3.18v6.52h-2.24v-5.84c0-1.96-0.813-2.94-2.44-2.94-0.773 0-1.447 0.257-2.02 0.77s-0.86 1.263-0.86 2.25zm17.31 5.01c-0.733 0.607-1.673 0.91-2.82 0.91-0.773 0-1.577-0.14-2.41-0.42s-1.57-0.673-2.21-1.18l1.08-1.74c1.24 0.933 2.44 1.4 3.6 1.4 0.507 0 0.907-0.117 1.2-0.35s0.44-0.53 0.44-0.89c0-0.533-0.707-1.013-2.12-1.44-0.107-0.04-0.187-0.067-0.24-0.08-2.213-0.6-3.32-1.6-3.32-3 0-0.987 0.383-1.777 1.15-2.37s1.763-0.89 2.99-0.89 2.387 0.36 3.48 1.08l-0.84 1.66c-0.867-0.573-1.807-0.86-2.82-0.86-0.533 0-0.967 0.097-1.3 0.29s-0.5 0.483-0.5 0.87c0 0.347 0.173 0.6 0.52 0.76 0.24 0.12 0.577 0.233 1.01 0.34s0.817 0.213 1.15 0.32 0.657 0.227 0.97 0.36 0.65 0.32 1.01 0.56c0.72 0.48 1.08 1.227 1.08 2.24s-0.367 1.823-1.1 2.43zm8.69-1.09c0.973 0 1.777-0.323 2.41-0.97s0.95-1.483 0.95-2.51-0.317-1.863-0.95-2.51-1.437-0.97-2.41-0.97-1.777 0.323-2.41 0.97-0.95 1.483-0.95 2.51 0.317 1.863 0.95 2.51 1.437 0.97 2.41 0.97zm0 2c-1.6 0-2.933-0.53-4-1.59s-1.6-2.357-1.6-3.89 0.533-2.83 1.6-3.89 2.4-1.59 4-1.59 2.933 0.53 4 1.59c1.07 1.06 1.6 2.357 1.6 3.89s-0.53 2.83-1.6 3.89c-1.067 1.06-2.4 1.59-4 1.59zm13.87-8.7c-1.11 0-1.94 0.36-2.5 1.08s-0.84 1.687-0.84 2.9v4.56h-2.24v-10.64h2.24v2.14c0.36-0.667 0.85-1.213 1.47-1.64s1.28-0.647 1.97-0.66l0.02 2.26h-0.12zm5.19-3.24v3.84h6.2v2.18h-6.2v5.76h-2.36v-13.98h9.32l-0.02 2.2h-6.94zm14.15 9.94c0.97 0 1.78-0.323 2.41-0.97s0.95-1.483 0.95-2.51-0.32-1.863-0.95-2.51-1.44-0.97-2.41-0.97-1.78 0.323-2.41 0.97-0.95 1.483-0.95 2.51 0.32 1.863 0.95 2.51 1.44 0.97 2.41 0.97zm0 2c-1.6 0-2.93-0.53-4-1.59s-1.6-2.357-1.6-3.89 0.53-2.83 1.6-3.89 2.4-1.59 4-1.59 2.93 0.53 4 1.59 1.6 2.357 1.6 3.89-0.53 2.83-1.6 3.89-2.4 1.59-4 1.59zm13.01 0c-1.48 0-2.75-0.503-3.82-1.51s-1.6-2.323-1.6-3.95 0.56-2.95 1.67-3.97 2.47-1.53 4.07-1.53 2.95 0.553 4.06 1.66l-1.32 1.62c-0.92-0.8-1.85-1.2-2.78-1.2s-1.74 0.31-2.43 0.93-1.03 1.42-1.03 2.4 0.34 1.81 1.02 2.49 1.52 1.02 2.51 1.02 1.93-0.453 2.81-1.36l1.32 1.44c-1.29 1.307-2.79 1.96-4.48 1.96zm14.39-5.04v-5.76h2.24v10.64h-2.24v-1.94c-0.36 0.653-0.86 1.167-1.49 1.54s-1.32 0.56-2.05 0.56c-1.2 0-2.17-0.367-2.91-1.1s-1.11-1.793-1.11-3.18v-6.52h2.24v5.84c0 1.96 0.81 2.94 2.44 2.94 0.77 0 1.45-0.257 2.02-0.77s0.86-1.263 0.86-2.25zm12.11 4.13c-0.73 0.607-1.67 0.91-2.82 0.91-0.77 0-1.58-0.14-2.41-0.42s-1.57-0.673-2.21-1.18l1.08-1.74c1.24 0.933 2.44 1.4 3.6 1.4 0.51 0 0.91-0.117 1.2-0.35s0.44-0.53 0.44-0.89c0-0.533-0.71-1.013-2.12-1.44-0.11-0.04-0.19-0.067-0.24-0.08-2.21-0.6-3.32-1.6-3.32-3 0-0.987 0.38-1.777 1.15-2.37s1.76-0.89 2.99-0.89 2.39 0.36 3.48 1.08l-0.84 1.66c-0.87-0.573-1.81-0.86-2.82-0.86-0.53 0-0.97 0.097-1.3 0.29s-0.5 0.483-0.5 0.87c0 0.347 0.17 0.6 0.52 0.76 0.24 0.12 0.58 0.233 1.01 0.34s0.82 0.213 1.15 0.32 0.66 0.227 0.97 0.36 0.65 0.32 1.01 0.56c0.72 0.48 1.08 1.227 1.08 2.24s-0.37 1.823-1.1 2.43z"/>
   <circle id="Circle" cy="20" cx="20" r="2" fill="#F44336"/>
  </g>
 </g>
</svg>
