<?xml version="1.0" encoding="UTF-8" standalone="no"?>
<svg width="192px" height="40px" viewBox="0 0 192 40" version="1.1" xmlns="http://www.w3.org/2000/svg" xmlns:xlink="http://www.w3.org/1999/xlink">
    <!-- Generator: Sketch 39.1 (31720) - http://www.bohemiancoding.com/sketch -->
    <title>Logo</title>
    <desc>Created with Sketch.</desc>
    <defs>
        <path d="M20,40 C31.045695,40 40,31.045695 40,20 C40,8.954305 31.045695,0 20,0 C8.954305,0 0,8.954305 0,20" id="path-1"></path>
        <mask id="mask-2" maskContentUnits="userSpaceOnUse" maskUnits="objectBoundingBox" x="0" y="0" width="40" height="40" fill="white">
            <use xlink:href="#path-1"></use>
        </mask>
        <path d="M20,32 C26.627417,32 32,26.627417 32,20 C32,13.372583 26.627417,8 20,8 C13.372583,8 8,13.372583 8,20" id="path-3"></path>
        <mask id="mask-4" maskContentUnits="userSpaceOnUse" maskUnits="objectBoundingBox" x="0" y="0" width="24" height="24" fill="white">
            <use xlink:href="#path-3"></use>
        </mask>
    </defs>
    <g id="Elements" stroke="none" stroke-width="1" fill="none" fill-rule="evenodd">
        <g id="Logo">
            <g id="Logo-/-Dark">
                <use id="Outer" stroke="#2196F3" mask="url(#mask-2)" stroke-width="6" transform="translate(20.000000, 20.000000) rotate(90.000000) translate(-20.000000, -20.000000) " xlink:href="#path-1"></use>
                <use id="Inner" stroke="#2196F3" mask="url(#mask-4)" stroke-width="6" transform="translate(20.000000, 20.000000) rotate(270.000000) translate(-20.000000, -20.000000) " xlink:href="#path-3"></use>
                <circle id="Circle" fill="#F44336" fill-rule="evenodd" cx="20" cy="20" r="4"></circle>
                <text id="Title" font-family="Montserrat-Regular, Montserrat" font-size="20" font-weight="normal" line-spacing="24" letter-spacing="0.150000006" fill-opacity="0.54" fill="#000000">
                    <tspan x="48" y="27">Sensor Focu</tspan>
                    <tspan x="173.37" y="27">s</tspan>
                </text>
            </g>
        </g>
    </g>
</svg>